<svg width="16" height="16" viewBox="0 0 16 16" fill="none" xmlns="http://www.w3.org/2000/svg">
<path d="M6.62436 9.37435C5.09719 7.84718 4.75236 6.32 4.67457 5.70814C4.65283 5.53896 4.71105 5.36929 4.83209 5.24911L6.06795 4.0138C6.24975 3.83211 6.28201 3.54896 6.14574 3.33104L4.17802 0.275588C4.02726 0.0342778 3.71772 -0.0528137 3.46326 0.074485L0.304363 1.56221C0.0985859 1.66354 -0.0224492 1.88217 0.00091446 2.11035C0.166432 3.68276 0.851949 7.54814 4.65057 11.347C8.44919 15.1459 12.314 15.8312 13.8873 15.9967C14.1154 16.0201 14.3341 15.899 14.4354 15.6932L15.9231 12.5343C16.0499 12.2804 15.9634 11.9717 15.7231 11.8207L12.6677 9.85352C12.4499 9.71711 12.1667 9.74914 11.9849 9.93076L10.7496 11.1666C10.6294 11.2877 10.4598 11.3459 10.2906 11.3241C9.67871 11.2463 8.15154 10.9015 6.62436 9.37435Z" fill="white"/>
<path d="M12.6886 8.55134C12.3839 8.55134 12.1369 8.30433 12.1369 7.99963C12.1343 5.7154 10.2832 3.86432 7.99898 3.86174C7.69428 3.86174 7.44727 3.61472 7.44727 3.31002C7.44727 3.00531 7.69428 2.7583 7.99898 2.7583C10.8924 2.76149 13.2371 5.10625 13.2403 7.99963C13.2403 8.30433 12.9933 8.55134 12.6886 8.55134Z" fill="white"/>
<path d="M15.4472 8.55172C15.1425 8.55172 14.8955 8.30471 14.8955 8C14.8912 4.1929 11.8061 1.10771 7.99899 1.10345C7.69428 1.10345 7.44727 0.856433 7.44727 0.551724C7.44727 0.247015 7.69428 0 7.99899 0C12.4152 0.00486507 15.9941 3.58374 15.9989 8C15.9989 8.14633 15.9408 8.28666 15.8373 8.39013C15.7339 8.4936 15.5935 8.55172 15.4472 8.55172Z" fill="white"/>
</svg>
