<svg width="16" height="16" viewBox="0 0 16 16" fill="none" xmlns="http://www.w3.org/2000/svg">
<path d="M6.62632 9.37435C5.09914 7.84718 4.75432 6.32 4.67652 5.70814C4.65478 5.53896 4.71301 5.36929 4.83404 5.24911L6.0699 4.0138C6.2517 3.83211 6.28396 3.54896 6.1477 3.33104L4.17997 0.275588C4.02922 0.0342778 3.71968 -0.0528137 3.46521 0.074485L0.306316 1.56221C0.100539 1.66354 -0.0204961 1.88217 0.00286759 2.11035C0.168385 3.68276 0.853902 7.54814 4.65252 11.347C8.45114 15.1459 12.316 15.8312 13.8892 15.9967C14.1174 16.0201 14.336 15.899 14.4374 15.6932L15.9251 12.5343C16.0519 12.2804 15.9654 11.9717 15.7251 11.8207L12.6696 9.85352C12.4518 9.71711 12.1687 9.74914 11.9869 9.93076L10.7516 11.1666C10.6314 11.2877 10.4617 11.3459 10.2925 11.3241C9.68066 11.2463 8.15349 10.9015 6.62632 9.37435Z" fill="#03A803"/>
<path d="M12.6905 8.55134C12.3858 8.55134 12.1388 8.30433 12.1388 7.99963C12.1362 5.7154 10.2852 3.86432 8.00094 3.86174C7.69623 3.86174 7.44922 3.61472 7.44922 3.31002C7.44922 3.00531 7.69623 2.7583 8.00094 2.7583C10.8943 2.76149 13.2391 5.10625 13.2423 7.99963C13.2423 8.30433 12.9952 8.55134 12.6905 8.55134Z" fill="#03A803"/>
<path d="M15.4492 8.55172C15.1445 8.55172 14.8974 8.30471 14.8974 8C14.8932 4.1929 11.808 1.10771 8.00094 1.10345C7.69623 1.10345 7.44922 0.856433 7.44922 0.551724C7.44922 0.247015 7.69623 0 8.00094 0C12.4172 0.00486507 15.996 3.58374 16.0009 8C16.0009 8.14633 15.9428 8.28666 15.8393 8.39013C15.7358 8.4936 15.5955 8.55172 15.4492 8.55172Z" fill="#03A803"/>
</svg>
