<svg width="24" height="24" viewBox="0 0 24 24" fill="none" xmlns="http://www.w3.org/2000/svg">
<path d="M23.4965 0H0.503498C0.225567 0 0 0.225567 0 0.503498V23.4963C0 23.7742 0.225567 23.9997 0.503498 23.9997H12.7196V15.9803H10.1415C9.91866 15.9803 9.73816 15.7998 9.73816 15.577V12.3259C9.73816 12.1031 9.91866 11.9223 10.1415 11.9223H12.7199V9.6785C12.7199 6.72195 14.5816 4.81168 17.4626 4.81168L20.0274 4.81571C20.2497 4.81596 20.4302 4.99647 20.4302 5.21901V8.23773C20.4302 8.46053 20.2497 8.64104 20.0269 8.64104L18.2991 8.64179C17.1086 8.64179 16.8906 9.10602 16.8906 10.0201V11.9223H19.9063C20.0133 11.9223 20.1158 11.9649 20.1915 12.0407C20.2671 12.1164 20.3096 12.2189 20.3096 12.3259L20.3086 15.5772C20.3086 15.8 20.1281 15.9808 19.9053 15.9808H16.8904V24H23.4963C23.7742 24 23.9997 23.7744 23.9997 23.4965V0.503498C24 0.225315 23.7747 0 23.4965 0Z" fill="#03A803"/>
</svg>
