<svg width="32" height="32" viewBox="0 0 32 32" fill="none" xmlns="http://www.w3.org/2000/svg">
<g clip-path="url(#clip0)">
<path d="M30 11.9999V28.6666C30.0048 29.3226 29.8094 29.9645 29.44 30.5066C29.3214 30.6943 29.1828 30.8686 29.0267 31.0266L15.8001 17.7999L15.3334 17.3332L24.44 8.22656L25.0134 8.58656L29.68 11.4266C29.8786 11.5496 29.9996 11.7664 30 11.9999Z" fill="#CFD8DC"/>
<path d="M24.44 8.22668L14.8667 17.8L1.64002 31.0266C1.4839 30.8687 1.34533 30.6943 1.22671 30.5066C0.857335 29.9645 0.661961 29.3226 0.666711 28.6666V7.33331C0.666711 5.49237 2.15908 4 4.00002 4H17.3333C17.4545 4.00412 17.5731 4.03606 17.68 4.09331L23.8667 7.86662L24.44 8.22668Z" fill="#4CAF50"/>
<path d="M29.0267 31.0266C28.8688 31.1828 28.6945 31.3214 28.5067 31.4399C27.9645 31.8093 27.3227 32.0047 26.6667 31.9999H4.00001C3.34401 32.0047 2.70214 31.8093 2.16001 31.4399C1.9722 31.3213 1.79789 31.1828 1.64001 31.0266L14.8667 17.7999L15.3334 17.3333L15.8001 17.7999L29.0267 31.0266Z" fill="#2196F3"/>
<path d="M29.44 30.5066C29.2041 30.8847 28.8848 31.204 28.5067 31.4399L14.8667 17.7999C14.6116 17.5396 14.6158 17.1217 14.8761 16.8666C15.1328 16.6151 15.5434 16.6151 15.8 16.8666L29.44 30.5066Z" fill="#FAFAFA"/>
<path d="M25.0133 8.5867L15.8 17.8L2.16 31.44C1.78187 31.204 1.46262 30.8848 1.22668 30.5067L23.8666 7.8667L25.0133 8.5867Z" fill="#FFC107"/>
<path d="M6.6668 11.9999C5.19406 11.9999 4.00012 10.8059 4.00012 9.33319C4.00012 7.86044 5.19406 6.6665 6.6668 6.6665C8.13955 6.6665 9.33348 7.86044 9.33348 9.33319C9.33348 10.8059 8.13955 11.9999 6.6668 11.9999ZM6.6668 7.99988C5.93043 7.99988 5.33349 8.59681 5.33349 9.33319C5.33349 10.0696 5.93043 10.6665 6.6668 10.6665C7.40318 10.6665 8.00011 10.0696 8.00011 9.33319C8.00011 8.59681 7.40318 7.99988 6.6668 7.99988Z" fill="#FAFAFA"/>
<path d="M9.33349 7.99988H6.66681C6.29862 7.99988 6.00012 7.70138 6.00012 7.33319C6.00012 6.965 6.29862 6.6665 6.66681 6.6665H9.33349C9.70168 6.6665 10.0002 6.965 10.0002 7.33319C10.0002 7.70138 9.70168 7.99988 9.33349 7.99988Z" fill="#FAFAFA"/>
<path d="M6.66674 17.3331C5.02037 17.5256 3.52969 16.347 3.33719 14.7006C3.33587 14.6893 3.33456 14.6779 3.33337 14.6665C3.33337 13.4198 4.51737 12.5785 6.85605 12.1572C6.73112 11.9005 6.66637 11.6187 6.66674 11.3332C6.66674 10.965 6.96524 10.6665 7.33343 10.6665C7.70162 10.6665 8.00011 10.965 8.00011 11.3332C8.00011 11.6359 8.27611 11.9225 8.72943 12.3612C9.46405 12.9118 9.92686 13.7514 10.0001 14.6665C10 17.0105 8.40005 17.3331 6.66674 17.3331ZM7.84005 13.3571C5.50406 13.6518 4.66675 14.2411 4.66675 14.6664C4.66675 14.9331 5.02275 15.9997 6.66674 15.9997C8.57743 15.9997 8.66674 15.5424 8.66674 14.6664C8.66674 14.1998 8.35605 13.8571 7.84005 13.3571Z" fill="#FAFAFA"/>
<path d="M24 0C19.9521 0.00512499 16.6719 3.28537 16.6667 7.3333C16.6689 7.73611 16.7087 8.13786 16.7854 8.5333C16.9461 9.56698 17.3316 10.5528 17.9147 11.4213C18.2241 11.9546 18.5814 12.5093 18.9587 13.1013C21.1266 16.2135 22.6211 19.7438 23.3467 23.4666C23.42 23.8274 23.7719 24.0605 24.1327 23.9873C24.3951 23.934 24.6001 23.729 24.6534 23.4666C25.3784 19.7435 26.8725 16.2127 29.0401 13.0999C29.4201 12.5092 29.7748 11.9586 30.0574 11.4639C30.6515 10.5874 31.0456 9.59098 31.2121 8.54523C31.29 8.14586 31.3306 7.74011 31.3334 7.33324C31.3282 3.28537 28.048 0.00512499 24 0Z" fill="#F44336"/>
<path d="M24.0001 10.6666C25.841 10.6666 27.3334 9.17424 27.3334 7.33331C27.3334 5.49237 25.841 4 24.0001 4C22.1591 4 20.6667 5.49237 20.6667 7.33331C20.6667 9.17424 22.1591 10.6666 24.0001 10.6666Z" fill="#C62828"/>
</g>
<defs>
<clipPath id="clip0">
<rect width="32" height="32" fill="white"/>
</clipPath>
</defs>
</svg>
