<svg width="530" height="330" viewBox="0 0 530 330" fill="none" xmlns="http://www.w3.org/2000/svg">
<path d="M372.972 102.788C372.972 102.788 379.032 73.0409 402.17 75.7965C402.17 75.7965 418.16 76.8945 421.448 87.3626V110.5L372.972 102.788Z" fill="#3A3768"/>
<path d="M499.682 113.81L293.64 96.7274L267.198 102.239L268.85 139.149L270.652 139.367L272.704 194.794L474.887 231.15L496.377 212.969V152.884L499.127 151.269L499.682 113.81Z" fill="#03A803"/>
<path opacity="0.05" d="M499.959 113.81L499.405 151.269L477.093 161.737L476.816 122.621L499.959 113.81Z" fill="black"/>
<path opacity="0.05" d="M496.377 152.922L496.649 211.871L475.164 230.052L476.544 161.737L496.377 152.922Z" fill="black"/>
<path opacity="0.05" d="M270.929 141.574L476.709 166.684L476.816 161.919L270.774 139.698L270.929 141.574Z" fill="black"/>
<path opacity="0.05" d="M496.377 155.086V152.922L475.99 161.919V166.694L496.377 155.086Z" fill="black"/>
<path d="M266.921 102.239L293.363 96.7274L499.405 113.81L476.267 122.621L266.921 102.239Z" fill="#44C044"/>
<path opacity="0.1" d="M477.456 114.871L487.567 115.532L470.809 120.547L462.276 119.934L477.456 114.871Z" fill="black"/>
<path d="M477.456 114.428L487.567 115.089L470.809 120.11L462.276 119.492L477.456 114.428Z" fill="white"/>
<path d="M476.246 115.564C476.646 115.393 477.067 115.718 477.493 115.798C477.738 115.846 477.989 115.798 478.234 115.846C478.73 115.91 479.22 116.241 479.694 116.075" fill="#D3DAE1"/>
<path d="M475.723 115.867C476.118 115.697 476.544 116.017 476.971 116.102C477.216 116.145 477.466 116.102 477.711 116.145C478.207 116.214 478.698 116.544 479.172 116.379" fill="#D3DAE1"/>
<path d="M474.519 116.475C474.919 116.304 475.345 116.624 475.771 116.704C476.011 116.752 476.267 116.704 476.507 116.752C477.008 116.821 477.498 117.152 477.967 116.981" fill="#D3DAE1"/>
<path opacity="0.1" d="M433.75 109.892L443.861 110.559L427.103 115.574L418.57 114.956L433.75 109.892Z" fill="black"/>
<path d="M433.75 109.456L443.861 110.116L427.103 115.132L418.57 114.519L433.75 109.456Z" fill="white"/>
<path d="M432.54 110.591C432.94 110.42 433.361 110.74 433.787 110.825C434.032 110.868 434.283 110.825 434.528 110.868C435.024 110.937 435.514 111.268 435.988 111.103" fill="#D3DAE1"/>
<path d="M432.017 110.894C432.412 110.724 432.838 111.044 433.265 111.124C433.51 111.172 433.76 111.124 434.006 111.172C434.501 111.241 434.992 111.571 435.466 111.401" fill="#D3DAE1"/>
<path d="M430.813 111.497C431.213 111.326 431.639 111.651 432.066 111.731C432.305 111.779 432.561 111.731 432.801 111.779C433.302 111.843 433.792 112.179 434.261 112.008" fill="#D3DAE1"/>
<path opacity="0.1" d="M454.713 112.382L464.829 113.043L448.071 118.063L439.533 117.445L454.713 112.382Z" fill="black"/>
<path d="M454.713 111.945L464.829 112.605L448.071 117.621L439.533 117.003L454.713 111.945Z" fill="white"/>
<path d="M453.503 113.08C453.902 112.909 454.329 113.229 454.755 113.309C454.995 113.357 455.246 113.309 455.491 113.357C455.986 113.421 456.482 113.757 456.951 113.586" fill="#D3DAE1"/>
<path d="M452.98 113.378C453.38 113.208 453.807 113.533 454.233 113.613C454.473 113.661 454.723 113.613 454.969 113.661C455.464 113.725 455.96 114.061 456.429 113.89" fill="#D3DAE1"/>
<path d="M451.781 113.986C452.176 113.815 452.602 114.135 453.028 114.22C453.274 114.263 453.524 114.22 453.769 114.263C454.265 114.332 454.755 114.663 455.23 114.498" fill="#D3DAE1"/>
<path d="M248.985 116.64C248.985 116.64 247.68 125.334 251.597 125.446C255.515 125.557 258.132 118.74 258.132 118.74L256.533 113.288L248.985 116.64Z" fill="#3F3D56"/>
<path opacity="0.2" d="M248.985 116.64C248.985 116.64 247.68 125.334 251.597 125.446C255.515 125.557 258.132 118.74 258.132 118.74L256.533 113.288L248.985 116.64Z" fill="black"/>
<path d="M161.238 304.81C154.266 305.114 145.173 297.237 145.173 297.237L144.72 289.055C144.72 289.055 144.118 289.359 142.903 287.541C142.087 286.321 143.26 281.263 144.118 278.081C144.534 276.524 144.875 275.416 144.875 275.416L160.172 279.509L160.902 281.444L166.84 297.231C166.84 297.231 168.204 304.507 161.238 304.81Z" fill="#636992"/>
<path d="M231.524 281.636C231.524 281.636 213.802 288.453 208.072 283.149C202.343 277.846 198.073 279.36 198.073 279.36C198.073 279.36 188.074 279.514 186.102 278.752C184.94 278.31 185.569 274.52 186.294 271.503C186.784 269.419 187.317 267.698 187.317 267.698C187.317 267.698 204.736 261.787 207.465 265.422C208.284 266.49 209.264 267.425 210.37 268.193C213.525 270.475 218.455 272.543 226.253 275.725C236.977 280.117 231.524 281.636 231.524 281.636Z" fill="#636992"/>
<path d="M215.62 143.168L220.465 152.863C220.465 152.863 227.436 162.713 219.255 166.497C211.073 170.282 211.228 144.687 211.228 144.687L215.62 143.168Z" fill="#FFD6D6"/>
<path d="M195.318 59.0923C195.318 59.0923 200.621 61.5174 203.803 71.6658C206.985 81.8141 211.228 99.0886 211.228 99.0886C211.228 99.0886 214.106 118.628 213.648 123.479C213.356 126.15 213.408 128.848 213.802 131.506L217.89 145.14L209.709 148.018L197.135 99.8454L195.318 59.0923Z" fill="#DCE6F2"/>
<path opacity="0.05" d="M195.318 59.0923C195.318 59.0923 200.621 61.5174 203.803 71.6658C206.985 81.8141 211.228 99.0886 211.228 99.0886C211.228 99.0886 214.106 118.628 213.648 123.479C213.356 126.15 213.408 128.848 213.802 131.506L217.89 145.14L209.709 148.018L197.135 99.8454L195.318 59.0923Z" fill="black"/>
<path opacity="0.1" d="M160.172 279.514L160.902 281.449L160.007 283.16C156.521 284.674 147.886 283.464 147.886 283.464C147.886 283.464 146.287 281.433 144.102 278.091C144.518 276.535 144.859 275.426 144.859 275.426L160.172 279.514Z" fill="black"/>
<path opacity="0.1" d="M210.924 268.908C206.505 278.917 191.485 275.202 187.312 273.95C186.625 273.742 186.246 273.603 186.246 273.603C186.246 273.603 186.273 272.788 186.283 271.503C186.774 269.419 187.307 267.698 187.307 267.698C187.307 267.698 204.725 261.787 207.454 265.422C208.274 266.49 209.254 267.425 210.359 268.193C210.526 268.448 210.715 268.687 210.924 268.908Z" fill="black"/>
<path d="M210.162 256.185C206.527 263.754 210.924 268.002 210.924 268.002C206.505 278.006 191.485 274.296 187.312 273.039C186.625 272.836 186.246 272.697 186.246 272.697C186.246 272.697 186.55 262.24 185.489 257.24C184.429 252.241 184.578 231.187 185.185 228.613C185.793 226.039 186.091 221.034 186.091 221.034C186.091 221.034 185.638 215.128 186.395 212.25C186.623 211.472 186.638 210.648 186.44 209.862C186.241 209.077 185.835 208.359 185.265 207.783L185.185 207.703C185.185 207.703 181.854 219.067 180.639 221.028C179.424 222.99 178.976 232.845 178.821 234.663C178.667 236.48 172.457 251.633 172.457 251.633C172.457 251.633 170.038 258.6 169.584 260.566C169.131 262.533 167.309 268.146 167.309 268.146L160.006 282.238C156.521 283.752 147.886 282.542 147.886 282.542C147.886 282.542 146.223 280.41 143.947 276.935C141.671 273.46 140.616 261.185 140.616 261.185C140.616 261.185 148.947 261.03 146.825 253.003C144.704 244.976 148.643 238.761 148.494 236.032C148.344 233.303 150.311 224.37 151.372 223.006C152.433 221.641 152.278 215.885 151.974 212.703C151.67 209.521 151.825 198.312 151.825 198.312C151.825 198.312 152.129 193.312 153.642 191.042C155.156 188.771 154.554 182.253 154.554 182.253C154.554 182.253 157.427 180.739 155.46 166.044C153.493 151.349 158.658 132.263 158.658 132.263L158.834 129.598L159.111 125.28C159.111 125.28 202.439 122.551 205.924 125.883C206.836 126.807 207.583 127.88 208.136 129.054C209.329 131.618 210.172 134.33 210.641 137.118L212.459 183.02L214.277 216.802L213.669 242.252C213.669 242.252 213.802 248.606 210.162 256.185Z" fill="#565988"/>
<path opacity="0.1" d="M197.316 165.591L192.77 264.057L187.312 273.033C186.624 272.831 186.246 272.692 186.246 272.692C186.246 272.692 186.55 262.235 185.489 257.235C184.429 252.235 184.578 231.182 185.185 228.608C185.793 226.033 186.091 221.028 186.091 221.028C186.091 221.028 185.638 215.123 186.395 212.245C186.623 211.467 186.638 210.643 186.44 209.857C186.241 209.072 185.835 208.354 185.265 207.778L185.34 207.245L197.316 165.591Z" fill="black"/>
<path opacity="0.1" d="M148.355 271.333C148.355 271.333 160.172 266.637 161.989 268.135C163.807 269.633 148.057 271.919 148.057 271.919L148.355 271.333Z" fill="black"/>
<path opacity="0.1" d="M206.681 258.909C206.228 259.063 194.715 263.173 195.776 267.543C196.837 271.914 206.681 258.909 206.681 258.909Z" fill="black"/>
<path d="M170.704 34.7822C170.704 34.7822 174.563 44.099 172.521 48.8747C170.48 53.6503 194.561 61.8266 194.561 61.8266C194.561 61.8266 187.52 43.6459 194.337 33.4177C201.154 23.1894 170.704 34.7822 170.704 34.7822Z" fill="#FFD6D6"/>
<path d="M311.703 304.507C307.045 305.53 300.91 310.189 300.91 310.189C300.91 310.189 289.094 312.688 281.024 311.553C272.954 310.418 274.324 301.666 280.571 299.507C284.904 298.015 289.344 294.332 291.663 292.221C292.686 291.278 293.294 290.622 293.294 290.622L315.909 286.076C315.909 286.076 316.277 287.339 316.788 289.082C317.694 292.157 319.032 296.72 319.544 298.457C320.338 301.213 316.362 303.483 311.703 304.507Z" fill="#505484"/>
<path d="M305.91 287.008C305.91 287.008 296.364 288.032 292.388 285.761C288.412 283.491 282.73 287.126 282.73 287.126C282.73 287.126 266.367 286.784 260.914 285.079C255.461 283.373 261.708 274.952 270.572 275.762C273.802 276.055 275.987 275.346 277.464 274.334C279.006 273.276 280.081 271.665 280.464 269.835L299.652 270.97L302.317 277.771L305.91 287.008Z" fill="#505484"/>
<path opacity="0.1" d="M302.611 280.874C302.611 280.874 280.31 277.228 277.464 274.334C279.006 273.276 280.081 271.665 280.464 269.835L299.652 270.97L302.317 277.771L302.611 280.874Z" fill="black"/>
<path d="M269.549 153.284L269.778 186.57C269.778 186.57 270.572 211.568 270.572 214.979C270.572 218.39 270.684 225.996 270.684 225.996C270.684 225.996 272.39 235.313 273.413 238.383C274.436 241.453 275.23 255.439 275.23 255.439C275.23 255.439 277.618 259.303 276.595 260.769C275.572 262.235 280.571 265.427 280.571 265.427C280.571 265.427 277.373 269.862 277.165 272.815C276.957 275.767 302.611 279.962 302.611 279.962L292.617 177.482L284.659 151.808L269.549 153.284Z" fill="#575988"/>
<path opacity="0.1" d="M269.549 153.284L269.778 186.57C269.778 186.57 270.572 211.568 270.572 214.979C270.572 218.39 270.684 225.996 270.684 225.996C270.684 225.996 272.39 235.313 273.413 238.383C274.436 241.453 275.23 255.439 275.23 255.439C275.23 255.439 277.618 259.303 276.595 260.769C275.572 262.235 280.571 265.427 280.571 265.427C280.571 265.427 277.373 269.862 277.165 272.815C276.957 275.767 302.611 279.962 302.611 279.962L292.617 177.482L284.659 151.808L269.549 153.284Z" fill="black"/>
<path opacity="0.1" d="M316.788 289.108C309.364 306.809 291.705 293.149 291.705 293.149C291.705 293.149 291.705 292.807 291.663 292.221C292.686 291.278 293.294 290.622 293.294 290.622L315.909 286.076C315.909 286.076 316.277 287.366 316.788 289.108Z" fill="black"/>
<path d="M317.044 287.579C309.769 306.234 291.705 292.237 291.705 292.237C291.705 292.237 291.135 282.579 292.276 278.15C293.416 273.721 291.023 260.422 291.023 260.422C291.023 260.422 289.659 248.606 288.411 245.882C287.164 243.158 287.276 237.701 287.276 237.247C287.276 236.794 287.729 233.154 286.706 230.654C285.682 228.155 285.107 222.02 285.107 222.02C285.107 222.02 285.107 213.385 284.083 208.274L280.56 190.685L274.196 154.665L276.184 154.323L311.805 148.077C311.805 148.077 318.51 182.189 316.234 185.685C315.744 186.453 315.312 188.132 314.955 190.296C313.654 198.035 313.169 211.93 313.169 211.93C313.169 211.93 317.598 218.859 315.898 223.747C314.198 228.634 317.497 236.699 317.497 236.699C317.497 236.699 318.521 268.513 316.586 271.695C314.651 274.877 317.044 287.579 317.044 287.579Z" fill="#575988"/>
<path d="M313.633 55.0042C313.633 55.0042 281.365 77.726 288.635 66.3624C292.553 60.2436 291.833 52.4511 290.298 46.5668C289.522 43.5739 288.451 40.6655 287.1 37.8842C287.1 37.8842 314.518 26.2222 310.883 36.6743C310.031 39.1094 309.669 41.6888 309.817 44.2642C310.035 48.1357 311.359 51.8633 313.633 55.0042Z" fill="#FFD6D6"/>
<path d="M255.536 107.041C255.536 107.041 241.902 103.102 239.631 106.966C237.361 110.831 240.313 119.311 244.428 120.675C248.543 122.04 257.988 116.054 257.988 116.054L255.536 107.041Z" fill="#FFD6D6"/>
<path d="M271.142 100.341L265.46 105.57C265.46 105.57 255.573 106.476 252.732 105.794C252.732 105.794 255.349 123.292 251.597 125.451L274.548 120.792L271.142 100.341Z" fill="#3F3D56"/>
<path opacity="0.1" d="M271.142 100.341L265.46 105.57C265.46 105.57 255.573 106.476 252.732 105.794C252.732 105.794 255.349 123.292 251.597 125.451L274.548 120.792L271.142 100.341Z" fill="black"/>
<path opacity="0.1" d="M198.196 25.2362C198.196 29.7597 196.399 34.0979 193.2 37.2966C190.002 40.4952 185.664 42.2921 181.14 42.2921C172.388 38.0868 164.084 34.6649 164.084 25.2362C163.993 22.9414 164.367 20.6519 165.182 18.505C165.998 16.3582 167.239 14.3981 168.83 12.7424C170.422 11.0867 172.331 9.76947 174.444 8.86969C176.557 7.9699 178.83 7.5061 181.127 7.5061C183.423 7.5061 185.696 7.9699 187.809 8.86969C189.922 9.76947 191.832 11.0867 193.423 12.7424C195.015 14.3981 196.255 16.3582 197.071 18.505C197.886 20.6519 198.26 22.9414 198.169 25.2362H198.196Z" fill="black"/>
<path d="M198.196 24.7778C198.199 28.789 196.785 32.6722 194.204 35.7427C191.623 38.8132 188.04 40.8738 184.088 41.5609C180.136 42.2481 176.069 41.5177 172.603 39.4987C169.137 37.4796 166.495 34.3015 165.144 30.5249C163.792 26.7483 163.817 22.6157 165.215 18.856C166.613 15.0962 169.293 11.9508 172.784 9.97441C176.275 7.99805 180.351 7.31767 184.294 8.05328C188.237 8.78888 191.794 10.8932 194.337 13.9952C196.828 17.0372 198.191 20.8462 198.196 24.7778Z" fill="#FFD6D6"/>
<path opacity="0.1" d="M208.136 129.07C206.449 130.118 204.683 131.034 202.854 131.809C202.854 131.809 194.22 130.557 192.973 132.033C191.725 133.51 180.714 134.08 180.714 134.08C180.714 134.08 163.897 133.286 161.398 131.127C160.625 130.501 159.765 129.991 158.845 129.614L159.122 125.296C159.122 125.296 202.449 122.567 205.935 125.899C206.842 126.824 207.587 127.896 208.136 129.07Z" fill="black"/>
<path d="M210.242 126.016C209.901 127.945 202.854 130.898 202.854 130.898C202.854 130.898 194.22 129.651 192.973 131.127C191.725 132.604 180.714 133.174 180.714 133.174C180.714 133.174 163.897 132.375 161.398 130.216C158.898 128.057 153.328 127.018 153.328 127.018C153.328 127.018 150.487 106.796 151.628 102.367C152.768 97.9375 149.922 85.7744 149.24 81.4571C148.558 77.1398 151.169 65.2113 154.351 63.2819C157.533 61.3524 162.08 54.8711 164.804 52.9417C167.101 51.316 169.638 49.2107 170.379 48.5764L170.597 48.3952C170.597 48.3952 171.056 44.8721 172.873 43.0652C174.691 41.2583 191.39 54.5407 191.39 54.5407C191.39 54.5407 191.507 55.564 192.642 53.6346C192.898 53.2028 195.099 56.3795 195.483 57.7227C195.483 57.7227 204.571 73.6327 205.141 76.9107C205.711 80.1886 208.094 90.8859 208.547 93.4976C208.664 94.1692 208.856 96.525 209.08 99.6804C209.122 100.299 209.16 100.954 209.208 101.637C209.544 106.871 209.906 113.554 210.125 118.607C210.125 119.183 210.172 119.737 210.188 120.27C210.304 122.183 210.321 124.101 210.242 126.016Z" fill="#DCE6F2"/>
<path opacity="0.1" d="M152.545 84.9961C152.545 84.9961 158.791 92.6073 160.838 92.6073C162.885 92.6073 152.545 84.9961 152.545 84.9961Z" fill="black"/>
<path opacity="0.1" d="M165.704 101.359C165.704 101.359 155.476 112.494 156.84 114.54C158.205 116.587 165.704 101.359 165.704 101.359Z" fill="black"/>
<path opacity="0.1" d="M158.205 123.516C158.205 123.516 169.931 110.676 170.464 106.247L158.205 123.516Z" fill="black"/>
<path opacity="0.1" d="M172.974 124.422C172.974 124.422 186.497 117.264 187.632 111.582C188.767 105.901 172.974 124.422 172.974 124.422Z" fill="black"/>
<path opacity="0.1" d="M190.132 55.3454L188.256 59.8866L191.379 61.363L194.449 69.9443C194.449 69.9443 202.913 86.8723 202.572 95.6775C202.231 104.483 204.107 117.717 204.107 117.717L208.989 116.811L206.687 90.9125C206.328 86.9026 205.324 82.9771 203.713 79.2877C199.811 70.3547 192.552 53.8636 192.093 53.8636C191.47 53.8636 191.907 54.0928 191.907 54.0928L190.132 55.3454Z" fill="black"/>
<path d="M190.585 54.8869L188.708 59.4334L191.837 60.9098L194.902 69.4911C194.902 69.4911 203.366 86.4192 203.025 95.2243C202.684 104.029 204.56 117.264 204.56 117.264L209.448 116.358L207.14 90.4593C206.785 86.4493 205.783 82.5234 204.171 78.8346C200.269 69.8962 193.01 53.4105 192.557 53.4105C191.928 53.4105 192.365 53.6397 192.365 53.6397L190.585 54.8869Z" fill="#575989"/>
<path d="M245.915 121.661C243.538 121.48 237.835 118.596 235.57 117.397L234.61 116.864L234.728 108.064C235.288 107.735 235.868 107.441 236.465 107.185C239.493 105.863 245.702 104.067 248.815 109.85C253.015 117.605 248.927 121.864 245.915 121.661Z" fill="#FFD6D6"/>
<path opacity="0.1" d="M194.337 13.9952C194.093 14.1482 193.824 14.2582 193.543 14.3204C191.565 14.7521 189.316 13.0518 187.621 14.1445C186.587 14.816 186.347 16.2072 186.209 17.4331C185.967 19.5651 185.726 21.6829 185.484 23.7864C185.433 24.5353 185.275 25.2731 185.015 25.9771C184.178 27.8905 181.881 28.7913 179.786 28.7593C178.966 28.8177 178.155 28.5495 177.532 28.0131C177.164 27.64 176.967 27.1177 176.561 26.7766C173.896 24.5433 173.086 30.0172 173.79 31.5736C174.92 34.116 178.933 36.5678 177.249 39.7977C176.966 40.3227 176.536 40.7541 176.012 41.0396C173.474 40.2447 171.157 38.8673 169.246 37.0173C167.335 35.1673 165.884 32.8961 165.007 30.385C164.13 27.8739 163.853 25.1926 164.197 22.5553C164.542 19.918 165.498 17.3977 166.99 15.1958C168.482 12.994 170.468 11.1715 172.79 9.87412C175.112 8.57669 177.705 7.84023 180.362 7.72357C183.019 7.60691 185.666 8.11329 188.093 9.20226C190.52 10.2912 192.658 11.9326 194.337 13.9952Z" fill="black"/>
<path d="M176.108 26.7552C176.508 27.091 176.711 27.6134 177.078 27.9865C177.702 28.5224 178.513 28.7905 179.333 28.7327C181.428 28.7646 183.725 27.8692 184.556 25.9451C184.822 25.2441 184.981 24.5076 185.031 23.7598L185.756 17.4064C185.894 16.1805 186.129 14.7894 187.168 14.1178C188.863 13.0518 191.112 14.7254 193.09 14.2937C193.803 14.1125 194.42 13.6668 194.816 13.0471C195.212 12.4273 195.357 11.6801 195.222 10.9571C194.993 9.9391 194.214 9.13427 193.815 8.16421C193.572 7.41884 193.378 6.65863 193.234 5.8883C192.13 1.75222 187.275 -0.571649 183.053 0.12125C180.708 0.51034 178.528 1.62964 176.178 1.97076C174.493 2.21594 172.772 2.05604 171.072 2.23726C169.492 2.40026 167.956 2.85382 166.541 3.57509C166.17 3.73948 165.841 3.98757 165.582 4.29997C165.34 4.72189 165.178 5.18426 165.102 5.66444C164.532 7.79644 162.698 9.36879 161.371 11.165C159.853 13.2317 158.975 15.6983 158.845 18.2592C158.792 18.9133 158.854 19.5715 159.026 20.2047C159.138 20.5778 159.314 20.9402 159.399 21.324C159.66 22.4912 159.063 23.6585 158.77 24.8205C158.406 26.3032 158.537 27.8644 159.143 29.2657C161.19 33.9721 167.932 35.5444 169.334 40.4853C170.579 41.0822 171.923 41.4436 173.299 41.5513C174.675 41.578 176.156 40.9863 176.796 39.7658C178.475 36.5678 174.467 34.084 173.337 31.5469C172.628 29.9852 173.422 24.5166 176.108 26.7552Z" fill="#353045"/>
<path opacity="0.1" d="M310.909 36.6743C310.058 39.1094 309.695 41.6888 309.843 44.2642C309.023 44.9625 308.127 42.8731 307.178 43.4114C304.577 44.9145 301.571 48.4909 298.352 48.4909C295.56 48.4927 292.808 47.8334 290.32 46.5668C289.544 43.5739 288.472 40.6655 287.122 37.8842C287.122 37.8842 314.544 26.2222 310.909 36.6743Z" fill="black"/>
<path d="M316.058 29.8575C316.058 33.3636 315.018 36.7911 313.071 39.7064C311.123 42.6216 308.354 44.8938 305.115 46.2356C301.875 47.5773 298.311 47.9284 294.872 47.2444C291.433 46.5604 288.275 44.872 285.795 42.3927C283.316 39.9135 281.628 36.7547 280.944 33.3159C280.26 29.8771 280.611 26.3127 281.952 23.0734C283.294 19.8341 285.566 17.0654 288.482 15.1175C291.397 13.1696 294.824 12.1299 298.331 12.1299C300.659 12.1292 302.964 12.5872 305.115 13.4779C307.267 14.3685 309.221 15.6743 310.867 17.3206C312.514 18.9669 313.82 20.9215 314.71 23.0726C315.601 25.2237 316.059 27.5292 316.058 29.8575Z" fill="#FFD6D6"/>
<path d="M315.301 58.9432C315.301 58.9432 311.965 62.5782 311.512 62.8767C311.059 63.1752 301.385 103.918 301.214 104.392C301.044 104.866 289.696 141.654 289.696 141.654L271.515 150.592L273.034 105.597L286.359 68.4892C286.359 68.4892 290.757 63.4897 292.116 61.6721C293.475 59.8546 310.446 48.9441 310.446 48.9441L313.345 54.919L315.301 58.9432Z" fill="#F0F3F7"/>
<path opacity="0.1" d="M312.897 55.8304L291.993 70.797L291.657 62.5782C293.022 60.7606 309.987 49.8555 309.987 49.8555L312.897 55.8304Z" fill="black"/>
<path d="M313.351 54.919L292.446 69.8856L292.121 61.6721C293.486 59.8493 310.451 48.9441 310.451 48.9441L313.351 54.919Z" fill="#F0F3F7"/>
<path d="M291.423 58.0156L292.121 61.672L287.447 66.421L291.178 58.0689C291.178 58.0689 283.183 63.6388 280.784 65.1152C278.386 66.5916 275.987 71.5911 275.897 72.9556C275.806 74.3201 272.032 94.8832 272.032 94.8832C272.032 94.8832 269.191 102.494 269.991 104.653C270.79 106.812 265.674 174.87 265.674 174.87C266.358 173.549 267.325 172.394 268.506 171.488C269.687 170.583 271.053 169.949 272.507 169.631L270.684 129.411C270.684 129.411 272.901 102.654 273.013 102.313C273.125 101.972 278.183 86.4618 278.183 86.4618L291.423 58.0156Z" fill="#3F3D56"/>
<path opacity="0.1" d="M292.58 62.1251L292.217 69.5871C292.217 69.5871 287.159 85.5505 285.459 88.1622C283.758 90.7739 278.583 106.343 278.583 106.343L275.668 133.387L270.668 135.663L268.206 131.127L272.299 105.01C272.299 105.01 280.022 82.9708 281.163 80.6948L286.861 68.6917L292.58 62.1251Z" fill="black"/>
<path d="M292.121 61.6721L291.764 69.1341C291.764 69.1341 286.706 85.0974 285 87.7091C283.295 90.3208 278.13 105.89 278.13 105.89L275.23 132.929L270.231 135.199L267.731 130.658L271.825 104.541C271.825 104.541 279.548 82.4964 280.683 80.2258L286.423 68.2387L292.121 61.6721Z" fill="#663D5C"/>
<path d="M233.193 118.628L242.963 125.392C242.963 125.392 249.854 121.528 245.841 119.028C241.827 116.528 238.267 116.15 236.977 116.15C235.687 116.15 233.193 118.628 233.193 118.628Z" fill="#FFD6D6"/>
<path d="M240.49 106.124C240.271 106.26 240.092 106.449 239.968 106.674C239.844 106.899 239.779 107.152 239.781 107.409C239.781 109.482 240.015 114.972 241.753 112.494C243.885 109.461 243.496 106.737 246.752 108.704C248.776 109.965 250.548 111.591 251.976 113.501L251.07 106.988C251.07 106.988 244.375 103.683 240.49 106.124Z" fill="#FFD6D6"/>
<path opacity="0.1" d="M316.245 185.664C315.754 186.431 315.323 188.11 314.966 190.274C295.042 196.249 280.464 183.617 280.464 183.617C278.701 177.64 277.26 171.573 276.147 165.442C275.79 163.342 275.87 159.27 276.2 154.302L311.821 148.055C311.821 148.055 318.521 182.141 316.245 185.664Z" fill="black"/>
<path d="M336.696 83.9728C335.79 86.9309 336.131 92.9485 336.131 92.9485L327.949 131.58C327.949 131.58 323.973 161.348 323.291 165.324C322.609 169.301 321.473 186.799 321.473 186.799C298.293 198.163 280.432 182.711 280.432 182.711C278.669 176.732 277.228 170.663 276.115 164.53C274.975 157.783 278.332 130.749 279.921 118.74C280.395 115.185 280.715 112.947 280.715 112.947L286.679 90.7898C286.679 90.7898 294.008 72.0975 296.737 66.645C299.466 61.1924 310.424 48.944 310.424 48.944C311.784 48.0806 313.958 51.1293 315.573 53.9063C316.794 56.0063 317.705 57.9571 317.705 57.9571C317.705 57.9571 331.339 63.8627 333.381 67.0181C335.422 70.1734 335.086 76.676 335.315 77.0171C335.545 77.3582 337.607 81.02 336.696 83.9728Z" fill="#3F3D56"/>
<path opacity="0.1" d="M304.545 70.2268C304.545 70.2268 305.569 76.2497 302.946 78.0672C300.415 79.8261 281.568 116.886 280.395 119.199C280.87 115.638 281.189 113.4 281.189 113.4L287.154 91.2483C287.154 91.2483 294.488 72.556 297.211 67.0981C299.935 61.6402 310.904 49.3972 310.904 49.3972C312.263 48.5337 314.433 51.5825 316.047 54.3594C313.612 59.4176 308.532 68.9796 304.545 70.2268Z" fill="black"/>
<path d="M304.092 69.7737C304.092 69.7737 305.11 75.7965 302.493 77.6141C299.876 79.4316 281.12 116.427 279.932 118.74C280.406 115.185 280.726 112.947 280.726 112.947L286.69 90.7898C286.69 90.7898 294.019 72.0975 296.748 66.645C299.477 61.1924 310.435 48.944 310.435 48.944C311.794 48.0806 313.969 51.1293 315.584 53.9063C313.159 58.9591 308.074 68.5264 304.092 69.7737Z" fill="#3F3D56"/>
<path d="M331.131 124.198L324.719 157.559V157.564L324.106 160.757V160.762L322.726 167.942L316.836 166.694L314.091 166.113L276.104 158.065L273.312 157.473L266.937 156.125L268.184 147.842L268.701 144.399L273.301 113.858L331.131 124.198Z" fill="#03A803"/>
<path d="M295.682 151.467C295.682 151.467 280.571 156.919 283.865 163.395C287.159 169.871 308.292 158.396 308.292 158.396L295.682 151.467Z" fill="#FFD6D6"/>
<path opacity="0.1" d="M306.475 197.933C306.475 198.387 307.045 204.186 309.316 206.227C311.586 208.268 306.475 197.933 306.475 197.933Z" fill="black"/>
<path opacity="0.1" d="M291.252 218.496C291.252 218.496 293.976 225.996 304.769 229.066C315.562 232.136 291.252 218.496 291.252 218.496Z" fill="black"/>
<path opacity="0.1" d="M316.058 29.8573C316.059 32.9737 315.238 36.0352 313.678 38.733C312.118 41.4309 309.874 43.6697 307.173 45.2237C306.155 44.654 305.251 43.9003 304.508 43.0011C303.735 42.063 303.133 40.7838 303.597 39.6645C303.97 38.7637 304.956 38.1934 305.196 37.2607C305.309 36.6902 305.279 36.1008 305.11 35.5444C304.913 34.6649 304.727 33.7855 304.535 32.9114C304.369 32.1652 304.076 31.2857 303.335 31.1045C302.595 30.9233 301.976 31.5416 301.395 31.9999C299.972 33.1246 297.243 33.8868 295.532 32.9647C293.821 32.0426 294.301 28.9565 294.024 27.2882C294.02 27.1433 293.985 27.0009 293.921 26.871C293.856 26.7412 293.764 26.6271 293.651 26.5367C293.402 26.4541 293.136 26.4357 292.878 26.4834C291.956 26.4834 291.215 25.6573 290.949 24.7725C290.76 23.8692 290.656 22.9502 290.639 22.0275C290.538 21.1054 290.202 20.13 289.413 19.6557C288.783 19.3623 288.084 19.248 287.393 19.3252L284.052 19.3625C286.268 16.3653 289.374 14.1432 292.926 13.0123C296.479 11.8814 300.297 11.8992 303.839 13.0633C307.381 14.2273 310.465 16.4783 312.654 19.4962C314.843 22.5141 316.025 26.1452 316.031 29.8733L316.058 29.8573Z" fill="black"/>
<path d="M301.87 31.9999C302.451 31.5416 303.09 30.9339 303.81 31.1098C304.529 31.2857 304.838 32.1758 305.004 32.9114L305.579 35.5391C305.75 36.0969 305.781 36.688 305.67 37.2606C305.398 38.1987 304.417 38.7637 304.039 39.6645C303.575 40.7838 304.183 42.063 304.95 42.9957C306.35 44.6829 308.286 45.8398 310.435 46.2737C310.996 46.4085 311.58 46.4212 312.146 46.311C313.414 46.0178 314.278 44.8506 314.96 43.7579C318.483 38.268 321.516 32.2504 322.134 25.7585C322.304 24.4344 322.243 23.0908 321.953 21.7877C321.664 20.7747 321.256 19.7997 320.738 18.8828C319.831 17.0097 318.678 15.2657 317.311 13.6967C314.886 11.085 311.538 9.4807 308.1 8.53196C304.234 7.459 300.196 7.14229 296.209 7.59921C295.143 7.7218 294.12 7.89769 293.07 7.96698C291.752 8.02828 290.431 8.00692 289.115 7.90302L281.269 7.43398C280.822 8.34541 281.269 9.4274 281.802 10.2802C282.335 11.133 282.996 12.0178 282.954 13.0305C282.911 14.0432 282.191 14.8427 281.637 15.6955C281.083 16.5483 280.662 17.6516 281.216 18.4831C281.77 19.3145 282.9 19.3678 283.881 19.3572L287.836 19.3145C288.525 19.2437 289.22 19.3636 289.845 19.661C290.634 20.1354 290.97 21.1161 291.071 22.0328C291.093 22.9551 291.197 23.8737 291.38 24.7778C291.652 25.6626 292.388 26.4994 293.31 26.4887C293.568 26.4372 293.835 26.4575 294.083 26.5473C294.196 26.6366 294.288 26.7498 294.352 26.8788C294.417 27.0078 294.452 27.1494 294.456 27.2936C294.733 28.9618 294.221 32.0426 295.964 32.97C297.707 33.8974 300.447 33.1246 301.87 31.9999Z" fill="#663D5C"/>
<path opacity="0.1" d="M324.4 67.0128C322.44 66.8047 320.468 67.269 318.807 68.3295C317.146 69.3901 315.895 70.9838 315.259 72.8492C313.127 78.9201 309.572 89.8732 310.462 94.2012C311.714 100.336 313.191 110.564 313.191 110.564C313.191 110.564 319.667 114.295 316.389 118.058C313.111 121.821 312.183 127.151 312.183 127.151C312.183 127.151 307.978 128.969 307.072 132.833C306.166 136.697 300.026 142.033 300.026 142.033L290.826 151.237C290.826 151.237 306.049 166.694 309.119 167.483L318.547 156.461L329.682 141.691L339.34 131.564C339.34 131.564 341.61 126.234 340.475 116.107C339.34 105.98 334.905 96.3385 334.905 96.3385L335.246 92.9273C335.246 92.9273 336.291 68.4893 324.4 67.0128Z" fill="black"/>
<path d="M325.306 67.0127C323.348 66.8071 321.378 67.2726 319.719 68.333C318.06 69.3934 316.811 70.9857 316.175 72.8491C314.043 78.9199 310.488 89.8731 311.378 94.201C312.626 100.336 314.102 110.564 314.102 110.564C314.102 110.564 320.578 114.295 317.3 118.058C314.022 121.821 313.1 127.151 313.1 127.151C313.1 127.151 308.895 128.969 307.983 132.833C307.072 136.697 300.942 142.032 300.942 142.032L291.737 151.237C291.737 151.237 306.96 166.694 310.03 167.483L319.459 156.461L330.566 141.691L340.224 131.564C340.224 131.564 342.5 126.234 341.36 116.107C340.219 105.98 335.795 96.3384 335.795 96.3384L336.136 92.9272C336.136 92.9272 337.197 68.4891 325.306 67.0127Z" fill="#3F3D56"/>
<path opacity="0.1" d="M315.792 101.589C315.792 101.589 325.45 113.4 329.543 110.788C333.636 108.176 315.792 101.589 315.792 101.589Z" fill="black"/>
<path opacity="0.1" d="M319.427 92.4956C320.45 92.8367 328.861 104.541 333.178 103.156C337.495 101.77 319.427 92.4956 319.427 92.4956Z" fill="black"/>
<path opacity="0.1" d="M321.814 112.6C321.814 112.6 322.385 119.305 329.314 118.394C336.243 117.482 321.814 112.6 321.814 112.6Z" fill="black"/>
<path opacity="0.1" d="M291.194 58.5221L287.447 66.8742L292.126 62.1252L291.194 58.5221Z" fill="black"/>
<path d="M291.194 58.069L287.447 66.4211L292.126 61.672L291.194 58.069Z" fill="#F0F3F7"/>
<path opacity="0.3" d="M276.105 158.065L273.312 157.473L268.184 147.842L268.701 144.399L276.105 158.065Z" fill="black"/>
<path opacity="0.3" d="M324.719 157.564L324.106 160.757V160.762L316.836 166.694L314.091 166.113L324.719 157.564Z" fill="black"/>
<path opacity="0.1" d="M210.172 120.291C208.765 120.526 207.401 120.739 206.154 120.899C199.225 121.81 182.744 113.629 182.744 113.629C182.744 113.629 162.634 96.8127 156.841 80.908C151.047 65.0033 163.77 62.6155 163.77 62.6155C168.566 59.8865 178.997 67.4978 180.474 68.7503C181.95 70.0029 183.203 73.1795 183.085 75.2263C182.968 77.273 186.497 79.8847 186.497 79.8847C186.497 79.8847 192.52 90.3368 193.996 91.4721C195.472 92.6074 195.813 93.6307 196.266 95.5655C196.72 97.5003 200.696 99.0886 202.401 98.9714C204.107 98.8541 206.132 99.5417 206.132 100.448C206.132 101.178 207.801 101.54 209.17 101.658C209.575 107.483 209.975 115.116 210.172 120.291Z" fill="black"/>
<path opacity="0.1" d="M210.108 118.628C209.042 118.799 208.019 118.954 207.06 119.081C200.131 119.993 183.656 111.811 183.656 111.811C183.656 111.811 163.546 94.9952 157.752 79.0905C151.958 63.1858 164.681 60.798 164.681 60.798C169.478 58.069 179.903 65.6803 181.38 66.9328C182.856 68.1854 184.109 71.362 183.997 73.4087C183.885 75.4555 187.403 78.0672 187.403 78.0672C187.403 78.0672 193.426 88.5193 194.902 89.6546C196.378 90.7899 196.719 91.8132 197.178 93.748C197.636 95.6828 201.607 97.2658 203.313 97.1539C205.018 97.0419 207.044 97.7242 207.044 98.6303C207.044 99.1633 207.992 99.5204 209.048 99.6963C209.09 100.315 209.128 100.97 209.176 101.652C209.527 106.892 209.89 113.576 210.108 118.628Z" fill="black"/>
<path opacity="0.1" d="M236.465 107.185L236.033 117.397H235.57L234.61 116.864L234.728 108.064C235.288 107.735 235.868 107.441 236.465 107.185Z" fill="black"/>
<path d="M163.77 61.7042C163.77 61.7042 151.047 64.092 156.841 79.9967C162.634 95.9014 182.744 112.723 182.744 112.723C182.744 112.723 199.219 120.899 206.154 119.993C213.088 119.087 223.647 116.699 225.011 117.04C226.376 117.381 235.581 117.381 235.581 117.381L236.034 106.721L225.374 106.151L219.921 105.016C219.921 105.016 217.986 103.417 216.851 103.651C215.716 103.886 213.333 102.287 213.333 102.287C213.333 102.287 211.51 100.81 210.135 100.81C208.76 100.81 206.159 100.469 206.159 99.5632C206.159 98.6571 204.112 97.9642 202.428 98.0867C200.744 98.2093 196.72 96.6103 196.251 94.6542C195.781 92.6981 195.456 91.7014 193.98 90.5661C192.504 89.4308 186.481 78.9734 186.481 78.9734C186.481 78.9734 182.957 76.3617 183.069 74.3203C183.181 72.2789 181.934 69.0916 180.458 67.839C178.981 66.5865 168.535 58.9806 163.77 61.7042Z" fill="#DCE6F2"/>
<path opacity="0.1" d="M196.496 98.2892C196.496 98.2892 191.608 103.177 192.855 104.083L196.496 98.2892Z" fill="black"/>
<path opacity="0.1" d="M201.719 102.153C201.719 102.153 195.355 107.041 197.061 107.382C198.766 107.723 201.719 102.153 201.719 102.153Z" fill="black"/>
<path opacity="0.1" d="M190.921 109.402C191.832 109.861 205.349 117.93 210.466 117.813L190.921 109.402Z" fill="black"/>
<path opacity="0.1" d="M191.837 55.4575C191.837 55.4575 189.449 63.2979 188.538 63.2979C187.824 63.2979 175.831 53.5867 170.826 49.5039L171.045 49.3227C171.045 49.3227 171.498 45.7995 173.316 43.9927C175.133 42.1858 191.837 55.4575 191.837 55.4575Z" fill="black"/>
<path d="M191.379 54.5459C191.379 54.5459 188.996 62.3863 188.085 62.3863C187.365 62.3863 175.373 52.675 170.368 48.5923L170.587 48.4111C170.587 48.4111 171.045 44.8879 172.862 43.0811C174.68 41.2742 191.379 54.5459 191.379 54.5459Z" fill="#DCE6F2"/>
<g opacity="0.15">
<path opacity="0.15" d="M159.202 29.2074C160.801 32.8584 165.203 34.628 167.756 37.5382C166.237 33.9618 161.797 32.2082 159.202 29.2074Z" fill="black"/>
<path opacity="0.15" d="M175.495 37.6182C174.861 38.8388 173.363 39.4304 171.999 39.4038C170.786 39.3167 169.598 39.0135 168.492 38.5083C168.893 39.1 169.199 39.7511 169.398 40.4378C170.642 41.0358 171.987 41.3972 173.363 41.5038C174.744 41.5357 176.226 40.9441 176.86 39.7182C177.878 37.7728 176.817 36.1098 175.575 34.5375C175.807 35.0207 175.92 35.5519 175.906 36.0875C175.892 36.623 175.752 37.1477 175.495 37.6182Z" fill="black"/>
<path opacity="0.15" d="M195.275 10.9041C195.046 9.88077 194.268 9.07595 193.868 8.11122C193.623 7.36476 193.429 6.6026 193.287 5.82997C192.984 4.73746 192.423 3.73384 191.651 2.90381C191.758 3.16616 191.849 3.43496 191.922 3.70864C192.072 4.48467 192.271 5.25024 192.519 6.00054C192.919 6.96526 193.697 7.7701 193.927 8.79346C194.062 9.5164 193.916 10.2636 193.52 10.8834C193.124 11.5031 192.507 11.9489 191.795 12.13C189.822 12.5618 187.573 10.8562 185.878 11.9541C184.839 12.6204 184.599 14.0115 184.46 15.2374C184.222 17.3694 183.981 19.489 183.736 21.5961C183.687 22.3436 183.529 23.08 183.267 23.7814C182.43 25.7002 180.132 26.601 178.038 26.569C177.219 26.6237 176.412 26.3558 175.789 25.8228C175.485 25.3936 175.16 24.9809 174.813 24.5862C172.148 22.3476 171.338 27.8215 172.042 29.3832C172.394 30.0857 172.831 30.7426 173.342 31.3393C172.756 29.5804 173.577 24.5169 176.178 26.6862C176.524 27.0796 176.848 27.4925 177.148 27.9228C177.774 28.4552 178.582 28.7228 179.402 28.669C181.497 28.701 183.794 27.8002 184.631 25.8814C184.894 25.1783 185.052 24.4401 185.1 23.6908C185.342 21.5588 185.583 19.441 185.825 17.3374C185.964 16.1115 186.203 14.7204 187.237 14.0542C188.938 12.9562 191.187 14.6618 193.159 14.2247C193.866 14.0414 194.478 13.5969 194.87 12.9808C195.263 12.3646 195.408 11.6226 195.275 10.9041Z" fill="black"/>
</g>
<path opacity="0.1" d="M313.281 44.952C312.714 45.0577 312.131 45.0432 311.57 44.9094C309.424 44.4757 307.49 43.3209 306.091 41.6367C305.318 40.6987 304.71 39.4195 305.18 38.3002C305.553 37.3994 306.533 36.8344 306.779 35.8963C306.889 35.3237 306.858 34.7326 306.688 34.1747L306.112 31.5471C305.947 30.8009 305.659 29.9214 304.918 29.7455C304.177 29.5696 303.559 30.1772 302.978 30.6356C301.555 31.7603 298.821 32.5278 297.115 31.6004C295.41 30.6729 295.884 27.5922 295.607 25.9239C295.602 25.78 295.567 25.6387 295.502 25.5099C295.438 25.3811 295.346 25.2678 295.234 25.1777C294.984 25.0907 294.716 25.0705 294.456 25.1191C293.533 25.1191 292.798 24.2929 292.526 23.4082C292.341 22.5043 292.24 21.5855 292.222 20.6632C292.116 19.7465 291.785 18.7657 290.991 18.2914C290.365 17.9965 289.67 17.8768 288.982 17.9449L285.027 17.9875C284.051 17.9875 282.895 17.9236 282.362 17.1134C281.829 16.3033 282.223 15.152 282.783 14.3258C283.343 13.4997 284.051 12.6789 284.099 11.6608C284.147 10.6428 283.486 9.76337 282.948 8.91057C282.639 8.44421 282.412 7.92873 282.277 7.38619L281.141 7.31689C280.699 8.22299 281.141 9.30498 281.674 10.1631C282.207 11.0212 282.873 11.9007 282.826 12.9081C282.778 13.9154 282.069 14.7256 281.509 15.5731C280.949 16.4205 280.539 17.5292 281.093 18.3606C281.648 19.1921 282.772 19.2508 283.758 19.2401L287.713 19.1921C288.402 19.1254 289.097 19.247 289.723 19.5439C290.517 20.0183 290.852 20.999 290.954 21.9157C290.971 22.8384 291.074 23.7574 291.263 24.6607C291.529 25.5402 292.27 26.3823 293.192 26.3663C293.451 26.3206 293.717 26.3408 293.965 26.4249C294.078 26.5158 294.17 26.63 294.234 26.7598C294.299 26.8895 294.334 27.0317 294.338 27.1765C294.615 28.8394 294.104 31.9255 295.847 32.8529C297.59 33.7803 300.308 33.0128 301.71 31.8882C302.291 31.4298 302.936 30.8222 303.655 30.9927C304.375 31.1633 304.684 32.0587 304.844 32.7943L305.425 35.4273C305.594 35.9855 305.623 36.5767 305.51 37.1489C305.243 38.0816 304.257 38.6519 303.884 39.5474C303.421 40.6667 304.023 41.9512 304.796 42.884C306.205 44.5754 308.152 45.7309 310.312 46.1566C310.873 46.2904 311.456 46.3049 312.023 46.1992C312.939 45.92 313.726 45.3227 314.241 44.5149C313.949 44.7168 313.624 44.8648 313.281 44.952Z" fill="black"/>
<path d="M69.3433 215.389C69.3433 215.389 70.8038 217.297 68.6718 220.186C66.5398 223.075 64.7809 225.516 65.4738 227.296C65.4738 227.296 68.6718 221.966 71.3368 221.87C74.0018 221.775 72.2269 218.608 69.3433 215.389Z" fill="#03A803"/>
<path opacity="0.1" d="M69.3432 215.389C69.4735 215.571 69.5742 215.773 69.6417 215.986C72.2001 218.992 73.5593 221.79 71.1022 221.849C68.8156 221.913 66.0706 226.007 65.415 227.041C65.435 227.12 65.46 227.199 65.4897 227.275C65.4897 227.275 68.6877 221.945 71.3527 221.849C74.0177 221.753 72.2268 218.608 69.3432 215.389Z" fill="black"/>
<path d="M72.0616 217.82C72.0616 218.491 71.9816 219.035 71.891 219.035C71.8004 219.035 71.7205 218.502 71.7205 217.82C71.7205 217.137 71.8164 217.468 71.907 217.468C71.9976 217.468 72.0616 217.148 72.0616 217.82Z" fill="#FFD037"/>
<path d="M72.989 218.624C72.4027 218.944 71.8857 219.157 71.8431 219.056C71.8004 218.955 72.2375 218.651 72.8291 218.326C73.4208 218.001 73.1862 218.241 73.2289 218.326C73.2715 218.411 73.5807 218.299 72.989 218.624Z" fill="#FFD037"/>
<path d="M61.6361 215.389C61.6361 215.389 60.1757 217.297 62.3077 220.186C64.4397 223.075 66.2039 225.516 65.5057 227.296C65.5057 227.296 62.3077 221.966 59.6693 221.87C57.031 221.775 58.7366 218.608 61.6361 215.389Z" fill="#03A803"/>
<path opacity="0.1" d="M61.6361 215.389C61.5087 215.573 61.4082 215.774 61.3376 215.986C58.7792 218.992 57.42 221.79 59.8772 221.849C62.1637 221.913 64.9087 226.007 65.5696 227.041C65.5477 227.12 65.521 227.199 65.4896 227.275C65.4896 227.275 62.2917 221.945 59.6533 221.849C57.015 221.753 58.7365 218.608 61.6361 215.389Z" fill="black"/>
<path d="M58.9231 217.82C58.9231 218.491 58.9977 219.035 59.0883 219.035C59.1789 219.035 59.2589 218.502 59.2589 217.82C59.2589 217.137 59.1629 217.468 59.0723 217.468C58.9817 217.468 58.9231 217.148 58.9231 217.82Z" fill="#FFD037"/>
<path d="M57.9904 218.624C58.5821 218.944 59.0937 219.157 59.1417 219.056C59.1897 218.955 58.7419 218.651 58.1503 218.326C57.5587 218.001 57.7932 218.241 57.7506 218.326C57.7079 218.411 57.3988 218.299 57.9904 218.624Z" fill="#FFD037"/>
<path d="M73.3462 224.717L73.2715 225.314L73.1703 226.156L73.1276 226.508L73.0264 227.35L72.9784 227.701L72.8771 228.544L71.7098 238.138C71.6086 238.99 70.2121 239.657 68.5118 239.657H62.4676C60.7833 239.657 59.3869 238.99 59.2696 238.138L58.1024 228.544L58.0011 227.701L57.9584 227.35L57.8518 226.508L57.8092 226.156L57.7079 225.314L57.6333 224.717C57.5747 224.232 58.3316 223.827 59.2856 223.827H71.6992C72.6479 223.827 73.4048 224.232 73.3462 224.717Z" fill="#65617D"/>
<path d="M73.2715 225.313L73.1702 226.156H57.8091L57.7079 225.313H73.2715Z" fill="#9D9CB5"/>
<path d="M73.1276 226.508L73.0263 227.35H57.9584L57.8518 226.508H73.1276Z" fill="#9D9CB5"/>
<path d="M72.9837 227.701L72.8771 228.544H58.1024L58.0011 227.701H72.9837Z" fill="#9D9CB5"/>
<path d="M508.412 208.007C508.412 208.007 506.59 216.492 514.696 217.494L515.198 216.551C515.198 216.551 508.913 210.64 508.412 208.007Z" fill="#03A803"/>
<path d="M517.777 216.482L515.89 216.882L515.704 216.924C515.704 216.924 510.672 212.841 510.736 203.727C511.409 205.071 512.214 206.344 513.14 207.527C515.134 210.166 517.399 213.684 517.777 216.482Z" fill="#03A803"/>
<path d="M518.412 217.356C518.263 217.452 518.096 217.514 517.92 217.537C517.745 217.561 517.567 217.544 517.399 217.489C512.559 216.359 514.201 200.588 514.201 200.588C514.467 200.71 514.734 202.72 515.874 205.31C517.82 209.857 519.968 216.215 518.412 217.356Z" fill="#03A803"/>
<path d="M529.146 208.007C529.146 208.007 529.461 216.492 521.354 217.494L520.847 216.535C520.847 216.535 528.645 210.64 529.146 208.007Z" fill="#03A803"/>
<path d="M526.822 203.743C526.886 212.857 520.352 216.94 520.352 216.94L520.16 216.898L518.278 216.498C518.651 213.7 520.943 210.182 522.91 207.543C524.039 206.108 525.355 204.83 526.822 203.743Z" fill="#03A803"/>
<path d="M520.133 216.535C519.847 216.889 519.482 217.172 519.067 217.361C518.939 217.419 518.805 217.464 518.667 217.494C517.479 217.771 517.068 216.913 517.132 215.453C517.244 212.857 518.875 208.353 520.33 204.979C521.031 203.324 522.065 201.831 523.368 200.593C523.368 200.593 523.294 212.868 520.133 216.535Z" fill="#03A803"/>
<path d="M518.779 195.055C518.779 195.055 513.375 214.243 518.028 217.111C522.681 219.978 519.973 196.75 518.779 195.055Z" fill="#03A803"/>
<path opacity="0.1" d="M508.412 208.007C508.412 208.007 506.59 216.492 514.696 217.494L515.198 216.551C515.198 216.551 508.913 210.64 508.412 208.007Z" fill="black"/>
<path opacity="0.1" d="M517.777 216.482L515.89 216.882L515.704 216.924C515.704 216.924 510.672 212.841 510.736 203.727C511.409 205.071 512.214 206.344 513.14 207.527C515.134 210.166 517.399 213.684 517.777 216.482Z" fill="black"/>
<path opacity="0.1" d="M518.412 217.356C518.263 217.452 518.096 217.514 517.92 217.537C517.745 217.561 517.567 217.544 517.399 217.489C512.559 216.359 514.201 200.588 514.201 200.588C514.467 200.71 514.734 202.72 515.874 205.31C517.82 209.857 519.968 216.215 518.412 217.356Z" fill="black"/>
<path opacity="0.1" d="M529.146 208.007C529.146 208.007 529.461 216.492 521.354 217.494L520.847 216.535C520.847 216.535 528.645 210.64 529.146 208.007Z" fill="black"/>
<path opacity="0.1" d="M526.822 203.743C526.886 212.857 520.352 216.94 520.352 216.94L520.16 216.898L518.278 216.498C518.651 213.7 520.943 210.182 522.91 207.543C524.039 206.108 525.355 204.83 526.822 203.743Z" fill="black"/>
<path opacity="0.1" d="M520.133 216.535C519.847 216.889 519.482 217.172 519.067 217.361C518.939 217.419 518.805 217.464 518.667 217.494C517.479 217.771 517.068 216.913 517.132 215.453C517.244 212.857 518.875 208.353 520.33 204.979C521.031 203.324 522.065 201.831 523.368 200.593C523.368 200.593 523.294 212.868 520.133 216.535Z" fill="black"/>
<path opacity="0.1" d="M518.779 195.055C518.779 195.055 513.375 214.243 518.028 217.111C522.681 219.978 519.973 196.75 518.779 195.055Z" fill="black"/>
<path d="M508.412 208.007C508.412 208.007 507.346 216.492 515.448 217.494L515.949 216.551C515.949 216.551 508.913 210.64 508.412 208.007Z" fill="#03A803"/>
<path d="M518.529 216.482L516.642 216.882L516.455 216.924C516.455 216.924 510.672 212.841 510.72 203.743C510.72 203.743 512.202 205.342 513.876 207.543C515.885 210.166 518.15 213.684 518.529 216.482Z" fill="#03A803"/>
<path opacity="0.1" d="M518.529 216.482L516.642 216.882C514.856 215.314 514.147 211.221 513.892 207.527C515.885 210.166 518.15 213.684 518.529 216.482Z" fill="black"/>
<path d="M519.168 217.356C519.019 217.452 518.851 217.515 518.674 217.538C518.498 217.561 518.319 217.544 518.15 217.489C513.311 216.359 514.196 200.588 514.196 200.588C514.462 200.71 515.507 202.72 516.621 205.31C518.577 209.857 520.719 216.215 519.168 217.356Z" fill="#03A803"/>
<path d="M529.146 208.007C529.146 208.007 530.212 216.492 522.11 217.494L521.609 216.551C521.609 216.551 528.645 210.64 529.146 208.007Z" fill="#03A803"/>
<path d="M526.822 203.743C526.886 212.857 521.103 216.94 521.103 216.94L520.917 216.898L519.03 216.498C519.403 213.7 521.695 210.182 523.667 207.543C525.341 205.342 526.822 203.743 526.822 203.743Z" fill="#03A803"/>
<path opacity="0.1" d="M523.667 207.527C523.422 210.971 522.793 214.76 521.263 216.53C521.159 216.657 521.043 216.775 520.917 216.882L519.03 216.482C519.403 213.684 521.674 210.166 523.667 207.527Z" fill="black"/>
<path d="M520.885 216.535C520.6 216.891 520.234 217.174 519.819 217.361C519.692 217.418 519.56 217.463 519.424 217.494C518.23 217.771 517.825 216.913 517.884 215.453C518.001 212.857 519.632 208.353 521.082 204.979C522.148 202.554 523.113 200.715 523.368 200.593C523.368 200.588 524.045 212.868 520.885 216.535Z" fill="#03A803"/>
<path opacity="0.1" d="M519.168 217.356C518.893 217.359 518.624 217.273 518.401 217.111C516.125 215.693 516.077 210.374 516.621 205.31C518.577 209.857 520.719 216.215 519.168 217.356Z" fill="black"/>
<path opacity="0.1" d="M520.885 216.535C520.623 217.105 520.272 217.404 519.819 217.361C519.587 217.333 519.365 217.249 519.174 217.116C518.581 216.71 518.13 216.128 517.884 215.453C518.001 212.857 519.632 208.354 521.082 204.98C521.604 209.654 521.78 214.611 520.885 216.535Z" fill="black"/>
<path d="M518.779 195.055C518.779 195.055 514.131 214.243 518.779 217.111C523.427 219.978 519.973 196.75 518.779 195.055Z" fill="#03A803"/>
<path d="M527.702 216.173H508.348V219.376H511.301L511.376 219.754L512.559 225.974H523.811L524.994 219.754L525.063 219.376H527.702V216.173Z" fill="#4B4770"/>
<path opacity="0.1" d="M527.702 216.173H508.348V219.376H511.301L511.376 219.754L512.559 225.974H523.811L524.994 219.754L525.063 219.376H527.702V216.173Z" fill="black"/>
<path d="M526.071 218.054L525.745 219.754L524.562 225.975H513.311L512.127 219.754L511.802 218.054H526.071Z" fill="#4B4770"/>
<path opacity="0.1" d="M526.071 218.054L525.745 219.754H512.127L511.802 218.054H526.071Z" fill="black"/>
<path d="M528.453 216.173H509.1V219.376H528.453V216.173Z" fill="#4B4770"/>
<path d="M34.4851 270.986C33.9749 271.69 33.5659 272.461 33.2699 273.278C33.1953 273.475 33.1207 273.705 33.046 273.923C32.9108 273.86 32.7698 273.81 32.625 273.774C32.0037 273.617 31.3609 273.563 30.7222 273.614C30.7222 273.363 30.7541 273.081 30.7595 272.83C30.8394 270.022 30.509 266.109 27.828 267.767C25.2589 269.366 27.0924 272.031 28.7501 273.737C28.894 273.886 29.0379 274.024 29.1765 274.158C27.6627 275.224 27.3749 277.745 27.1244 280.362C26.8739 282.979 24.6513 285.841 23.1749 287.467C23.0256 287.632 22.8924 287.781 22.7591 287.92C22.1623 287.443 21.4714 287.099 20.7319 286.909C19.9924 286.719 19.221 286.687 18.4685 286.816C18.4099 286.587 18.3406 286.347 18.2713 286.097C17.0774 281.785 14.5989 274.318 11.4382 272.681L11.854 272.148C13.1971 270.395 14.7109 267.783 12.4776 267.117C10.2443 266.45 10.0418 269.377 10.1644 271.573C10.1857 271.85 10.207 272.111 10.2283 272.356C9.78187 272.376 9.34434 272.488 8.94279 272.684C8.54125 272.881 8.18422 273.157 7.89378 273.497L7.54734 273.086C5.73514 270.954 2.41455 267.559 1.40718 270.123C0.469101 272.511 3.39527 275.613 5.45265 277.409L5.58057 277.521C4.2001 283.123 10.2283 287.69 13.4743 289.689L13.8954 289.945C9.41816 295.222 6.65189 305.114 6.65189 305.114L19.188 307.353C19.188 307.353 27.5028 300.179 26.4368 293.442H26.5221C34.8316 291.779 36.7184 282.92 35.4232 277.659L35.5724 277.601C37.0864 276.982 38.4128 275.979 39.4207 274.691C41.7446 271.466 36.8836 267.82 34.4851 270.986Z" fill="#03A803"/>
<path opacity="0.1" d="M34.4851 270.986C33.9749 271.69 33.5659 272.461 33.2699 273.278C33.1953 273.475 33.1207 273.705 33.046 273.923C32.9108 273.86 32.7698 273.81 32.625 273.774C32.0037 273.617 31.3609 273.563 30.7222 273.614C30.7222 273.363 30.7541 273.081 30.7595 272.83C30.8394 270.022 30.509 266.109 27.828 267.767C25.2589 269.366 27.0924 272.031 28.7501 273.737C28.894 273.886 29.0379 274.024 29.1765 274.158C27.6627 275.224 27.3749 277.745 27.1244 280.362C26.8739 282.979 24.6513 285.841 23.1749 287.467C23.0256 287.632 22.8924 287.781 22.7591 287.92C22.1623 287.443 21.4714 287.099 20.7319 286.909C19.9924 286.719 19.221 286.687 18.4685 286.816C18.4099 286.587 18.3406 286.347 18.2713 286.097C17.0774 281.785 14.5989 274.318 11.4382 272.681L11.854 272.148C13.1971 270.395 14.7109 267.783 12.4776 267.117C10.2443 266.45 10.0418 269.377 10.1644 271.573C10.1857 271.85 10.207 272.111 10.2283 272.356C9.78187 272.376 9.34434 272.488 8.94279 272.684C8.54125 272.881 8.18422 273.157 7.89378 273.497L7.54734 273.086C5.73514 270.954 2.41455 267.559 1.40718 270.123C0.469101 272.511 3.39527 275.613 5.45265 277.409L5.58057 277.521C4.2001 283.123 10.2283 287.69 13.4743 289.689L13.8954 289.945C9.41816 295.222 6.65189 305.114 6.65189 305.114L19.188 307.353C19.188 307.353 27.5028 300.179 26.4368 293.442H26.5221C34.8316 291.779 36.7184 282.92 35.4232 277.659L35.5724 277.601C37.0864 276.982 38.4128 275.979 39.4207 274.691C41.7446 271.466 36.8836 267.82 34.4851 270.986Z" fill="black"/>
<path d="M9.53015 274.632L8.0644 278.896C8.0644 278.896 7.24891 278.32 6.22022 277.414C4.16284 275.618 1.23668 272.516 2.17476 270.128C3.18213 267.565 6.50271 270.949 8.31491 273.092C9.04512 273.945 9.53015 274.632 9.53015 274.632Z" fill="#03A803"/>
<path d="M12.6214 272.154C12.1762 272.741 11.6993 273.303 11.193 273.838C11.0679 273.09 10.9807 272.335 10.9318 271.578C10.8092 269.382 11.0437 266.467 13.245 267.122C15.4463 267.778 13.9646 270.4 12.6214 272.154Z" fill="#03A803"/>
<path d="M31.5536 272.83C31.5109 274.243 31.3724 275.373 31.3724 275.373C30.7276 274.868 30.1169 274.322 29.5442 273.737C27.8865 272.015 26.053 269.361 28.6221 267.767C31.2764 266.104 31.6069 270.022 31.5536 272.83Z" fill="#03A803"/>
<path d="M40.1881 274.68C39.1802 275.968 37.8538 276.971 36.3399 277.59C35.9196 277.772 35.4889 277.929 35.05 278.059L33.3231 275.634C33.5044 274.833 33.7431 274.045 34.0373 273.278C34.3333 272.461 34.7424 271.69 35.2526 270.986C37.6404 267.82 42.512 271.466 40.1881 274.68Z" fill="#03A803"/>
<path opacity="0.1" d="M8.3149 273.092C9.04511 273.944 9.53014 274.605 9.53014 274.605L8.06439 278.869C8.06439 278.869 7.2489 278.294 6.22021 277.388C6.44877 276.014 7.01671 274.718 7.87252 273.619C8.01643 273.443 8.17099 273.262 8.3149 273.092Z" fill="black"/>
<path opacity="0.1" d="M12.6215 272.154C12.1762 272.741 11.6994 273.303 11.1931 273.838C11.0679 273.089 10.9808 272.335 10.9319 271.578C11.541 271.591 12.1313 271.792 12.6215 272.154Z" fill="black"/>
<path d="M19.8276 289.188L16.1819 290.787C16.1819 290.787 15.3878 290.404 14.2418 289.689C10.4095 287.333 2.7077 281.401 7.84581 274.408C12.9839 267.415 17.3172 279.957 19.0388 286.092C19.5558 287.957 19.8276 289.188 19.8276 289.188Z" fill="#03A803"/>
<path opacity="0.1" d="M29.5176 273.737C30.0479 273.19 30.7664 272.866 31.527 272.83C31.4843 274.243 31.3458 275.373 31.3458 275.373C30.701 274.868 30.0903 274.322 29.5176 273.737Z" fill="black"/>
<path opacity="0.1" d="M36.3505 277.59C35.9303 277.772 35.4996 277.929 35.0607 278.059L33.3337 275.634C33.5151 274.833 33.7537 274.045 34.048 273.278C35.1513 273.929 35.9721 275.549 36.3505 277.59Z" fill="black"/>
<path d="M27.2895 293.431C27.0923 293.474 26.8844 293.511 26.6766 293.543C14.4549 295.398 22.6471 288.804 22.6471 288.804C22.6471 288.804 23.1801 288.271 23.9423 287.467C25.4187 285.841 27.636 282.995 27.8918 280.362C28.2756 276.402 28.7179 272.687 33.3923 273.774C37.9815 274.851 38.8609 291.112 27.2895 293.431Z" fill="#03A803"/>
<path d="M27.0604 323.86H3.70972V330H27.0604V323.86Z" fill="#D4DFEC"/>
<path d="M30.5089 303.904H0V325.331H30.5089V303.904Z" fill="#D4DFEC"/>
<path opacity="0.1" d="M27.0604 323.86H3.70972V330H27.0604V323.86Z" fill="black"/>
<path opacity="0.1" d="M30.5089 303.904H0V325.331H30.5089V303.904Z" fill="black"/>
<path d="M28.5955 323.86H5.24475V330H28.5955V323.86Z" fill="#D4DFEC"/>
<path opacity="0.1" d="M19.0387 286.097C19.5717 287.93 19.8275 289.188 19.8275 289.188L16.1818 290.787C16.1818 290.787 15.3876 290.404 14.2417 289.689C15.6701 287.882 17.2798 286.518 19.0387 286.097Z" fill="black"/>
<path opacity="0.1" d="M27.2895 293.431C27.0923 293.474 26.8844 293.511 26.6766 293.543C14.4549 295.398 22.6471 288.805 22.6471 288.805C22.6471 288.805 23.1801 288.272 23.9423 287.467C26.2235 289.295 27.1669 291.352 27.2895 293.431Z" fill="black"/>
<path d="M7.41943 305.12C7.41943 305.12 14.2632 280.602 23.8625 288.165C33.4618 295.728 19.9556 307.353 19.9556 307.353L7.41943 305.12Z" fill="#03A803"/>
<path opacity="0.1" d="M10.8732 279.019C11.2971 279.019 11.6408 278.675 11.6408 278.251C11.6408 277.827 11.2971 277.484 10.8732 277.484C10.4493 277.484 10.1057 277.827 10.1057 278.251C10.1057 278.675 10.4493 279.019 10.8732 279.019Z" fill="black"/>
<path opacity="0.1" d="M10.8093 282.6C11.2332 282.6 11.5768 282.257 11.5768 281.833C11.5768 281.409 11.2332 281.065 10.8093 281.065C10.3854 281.065 10.0417 281.409 10.0417 281.833C10.0417 282.257 10.3854 282.6 10.8093 282.6Z" fill="black"/>
<path opacity="0.1" d="M33.0727 279.722C33.4966 279.722 33.8402 279.379 33.8402 278.955C33.8402 278.531 33.4966 278.187 33.0727 278.187C32.6488 278.187 32.3052 278.531 32.3052 278.955C32.3052 279.379 32.6488 279.722 33.0727 279.722Z" fill="black"/>
<path opacity="0.1" d="M15.1639 298.084C15.5878 298.084 15.9314 297.74 15.9314 297.316C15.9314 296.892 15.5878 296.549 15.1639 296.549C14.74 296.549 14.3964 296.892 14.3964 297.316C14.3964 297.74 14.74 298.084 15.1639 298.084Z" fill="black"/>
<path opacity="0.1" d="M31.4737 285.671C31.8976 285.671 32.2412 285.327 32.2412 284.903C32.2412 284.479 31.8976 284.136 31.4737 284.136C31.0498 284.136 30.7062 284.479 30.7062 284.903C30.7062 285.327 31.0498 285.671 31.4737 285.671Z" fill="black"/>
<path opacity="0.1" d="M23.5425 293.607C23.9664 293.607 24.3101 293.263 24.3101 292.839C24.3101 292.415 23.9664 292.072 23.5425 292.072C23.1187 292.072 22.775 292.415 22.775 292.839C22.775 293.263 23.1187 293.607 23.5425 293.607Z" fill="black"/>
<path opacity="0.1" d="M13.4957 280.554C13.9196 280.554 14.2632 280.21 14.2632 279.786C14.2632 279.362 13.9196 279.019 13.4957 279.019C13.0718 279.019 12.7281 279.362 12.7281 279.786C12.7281 280.21 13.0718 280.554 13.4957 280.554Z" fill="black"/>
<path opacity="0.1" d="M30.962 282.025C31.3859 282.025 31.7295 281.681 31.7295 281.257C31.7295 280.833 31.3859 280.49 30.962 280.49C30.5381 280.49 30.1945 280.833 30.1945 281.257C30.1945 281.681 30.5381 282.025 30.962 282.025Z" fill="black"/>
<path opacity="0.1" d="M28.3395 287.973C28.7634 287.973 29.1071 287.629 29.1071 287.206C29.1071 286.782 28.7634 286.438 28.3395 286.438C27.9157 286.438 27.572 286.782 27.572 287.206C27.572 287.629 27.9157 287.973 28.3395 287.973Z" fill="black"/>
<path opacity="0.1" d="M20.2807 297.508C20.7046 297.508 21.0482 297.165 21.0482 296.741C21.0482 296.317 20.7046 295.973 20.2807 295.973C19.8568 295.973 19.5132 296.317 19.5132 296.741C19.5132 297.165 19.8568 297.508 20.2807 297.508Z" fill="black"/>
<path opacity="0.1" d="M18.6176 293.735C19.0415 293.735 19.3851 293.391 19.3851 292.967C19.3851 292.543 19.0415 292.2 18.6176 292.2C18.1937 292.2 17.8501 292.543 17.8501 292.967C17.8501 293.391 18.1937 293.735 18.6176 293.735Z" fill="black"/>
<path opacity="0.1" d="M14.6469 285.223C15.0708 285.223 15.4144 284.879 15.4144 284.455C15.4144 284.031 15.0708 283.688 14.6469 283.688C14.223 283.688 13.8794 284.031 13.8794 284.455C13.8794 284.879 14.223 285.223 14.6469 285.223Z" fill="black"/>
<path opacity="0.1" d="M28.5955 323.86H5.24475V326.104H28.5955V323.86Z" fill="black"/>
<path d="M32.0441 303.904H1.53516V325.331H32.0441V303.904Z" fill="#D4DFEC"/>
<path opacity="0.1" d="M21.304 300.962C21.7279 300.962 22.0715 300.619 22.0715 300.195C22.0715 299.771 21.7279 299.427 21.304 299.427C20.8801 299.427 20.5365 299.771 20.5365 300.195C20.5365 300.619 20.8801 300.962 21.304 300.962Z" fill="black"/>
<path opacity="0.1" d="M16.6989 301.922C17.1228 301.922 17.4664 301.578 17.4664 301.154C17.4664 300.73 17.1228 300.386 16.6989 300.386C16.275 300.386 15.9314 300.73 15.9314 301.154C15.9314 301.578 16.275 301.922 16.6989 301.922Z" fill="black"/>
</svg>
