<svg width="140" height="143" viewBox="0 0 140 143" fill="none" xmlns="http://www.w3.org/2000/svg">
<path d="M114.403 39.3555C114.403 39.3555 111.797 40.8588 112.599 42.9634C112.599 42.9634 115.305 43.7651 116.407 45.7695C117.51 47.7739 126.028 54.9897 126.028 54.9897L132.242 51.8829C132.242 51.8829 130.08 48.9973 123.244 46.9825C123.244 46.9825 119.213 42.6627 117.81 41.8609C116.407 41.0592 114.403 39.3555 114.403 39.3555Z" fill="#CBCDDA"/>
<path opacity="0.05" d="M114.403 39.3555C114.403 39.3555 111.797 40.8588 112.599 42.9634C112.599 42.9634 115.305 43.7651 116.407 45.7695C117.51 47.7739 126.028 54.9897 126.028 54.9897L132.242 51.8829C132.242 51.8829 130.08 48.9973 123.244 46.9825C123.244 46.9825 119.213 42.6627 117.81 41.8609C116.407 41.0592 114.403 39.3555 114.403 39.3555Z" fill="black"/>
<path opacity="0.1" d="M24.315 135.292C22.9771 135.622 21.5776 135.236 20.1995 135.22C18.8214 135.203 17.2137 135.783 16.876 137.119C16.4223 138.913 18.5202 140.266 20.3164 140.713C27.2881 142.449 34.6682 140.197 41.7936 141.115C44.7963 141.502 47.7163 142.449 50.7354 142.675C57.6457 143.192 64.3974 139.906 71.3172 140.276C74.7839 140.462 78.1534 141.563 81.6206 141.74C89.9162 142.162 98.1004 137.292 106.221 139.037C108.515 139.53 110.668 140.534 112.94 141.116C118.684 142.587 124.732 141.276 130.515 139.964C131.663 139.704 133.047 139.197 133.189 138.028C133.345 136.738 131.864 135.929 130.632 135.517C117.158 131.011 102.732 128.624 88.6783 130.707C85.4801 131.181 82.2911 131.885 79.0583 131.838C71.903 131.735 65.328 128.003 58.3034 126.638C44.9931 124.051 31.6849 130.086 19.4658 135.964" fill="#03A803"/>
<path d="M42.7631 97.0526H38.6884V131.503C38.6884 131.503 64.9889 140.023 90.5486 131.503V97.0526H42.7631Z" fill="#3F3D56"/>
<path d="M64.248 101.127C78.3643 101.127 89.8077 99.3861 89.8077 97.238C89.8077 95.0898 78.3643 93.3484 64.248 93.3484C50.1318 93.3484 38.6884 95.0898 38.6884 97.238C38.6884 99.3861 50.1318 101.127 64.248 101.127Z" fill="#3F3D56"/>
<path opacity="0.1" d="M64.248 101.127C78.3643 101.127 89.8077 99.3861 89.8077 97.238C89.8077 95.0898 78.3643 93.3484 64.248 93.3484C50.1318 93.3484 38.6884 95.0898 38.6884 97.238C38.6884 99.3861 50.1318 101.127 64.248 101.127Z" fill="black"/>
<path d="M93.9595 55.8929C87.5116 79.7281 65.4262 94.4898 65.4262 94.4898C65.4262 94.4898 53.7949 70.6071 60.2428 46.7719C66.6906 22.9367 88.776 8.17493 88.776 8.17493C88.776 8.17493 100.407 32.0577 93.9595 55.8929Z" fill="#595770"/>
<path d="M35.3018 55.8929C41.7497 79.7281 63.8351 94.4898 63.8351 94.4898C63.8351 94.4898 75.4665 70.6071 69.0186 46.7719C62.5707 22.9367 40.4853 8.17493 40.4853 8.17493C40.4853 8.17493 28.854 32.0577 35.3018 55.8929Z" fill="#03A803"/>
<path d="M44.7765 50.7706C62.4696 67.994 64.6307 94.4705 64.6307 94.4705C64.6307 94.4705 38.1057 93.0222 20.4126 75.7988C2.71955 58.5753 0.558472 32.0988 0.558472 32.0988C0.558472 32.0988 27.0835 33.5471 44.7765 50.7706Z" fill="#3F3D56"/>
<path d="M84.4848 50.7706C66.7918 67.994 64.6307 94.4705 64.6307 94.4705C64.6307 94.4705 91.1557 93.0222 108.849 75.7988C126.542 58.5753 128.703 32.0988 128.703 32.0988C128.703 32.0988 102.178 33.5471 84.4848 50.7706Z" fill="#3F3D56"/>
<path d="M64.6185 16.2989C69.1193 16.2989 72.7679 12.6503 72.7679 8.14947C72.7679 3.64864 69.1193 0 64.6185 0C60.1176 0 56.469 3.64864 56.469 8.14947C56.469 12.6503 60.1176 16.2989 64.6185 16.2989Z" fill="#03A803"/>
<path d="M15.8173 65.8624C16.3952 67.9592 18.4027 69.2348 18.4027 69.2348C18.4027 69.2348 19.4735 67.1109 18.8956 65.0141C18.3178 62.9173 16.3102 61.6417 16.3102 61.6417C16.3102 61.6417 15.2395 63.7657 15.8173 65.8624Z" fill="#03A803"/>
<path d="M26.633 77.5399C26.0111 79.624 27.0367 81.7701 27.0367 81.7701C27.0367 81.7701 29.0708 80.5371 29.6927 78.453C30.3147 76.3689 29.2891 74.2228 29.2891 74.2228C29.2891 74.2228 27.255 75.4558 26.633 77.5399Z" fill="#03A803"/>
<path d="M104.646 90.9467C103.12 92.4958 103.019 94.8723 103.019 94.8723C103.019 94.8723 105.394 94.737 106.921 93.1878C108.447 91.6387 108.548 89.2622 108.548 89.2622C108.548 89.2622 106.173 89.3975 104.646 90.9467Z" fill="#03A803"/>
<path d="M130.638 124.843C130.638 124.843 130.939 129.252 131.44 129.753C131.941 130.254 126.93 130.555 126.93 130.555L127.632 124.843H130.638Z" fill="#FFB9B9"/>
<path opacity="0.05" d="M130.638 124.843C130.638 124.843 130.939 129.252 131.44 129.753C131.941 130.254 126.93 130.555 126.93 130.555L127.632 124.843H130.638Z" fill="black"/>
<path d="M131.741 128.25C131.741 128.25 131.039 128.25 128.534 129.553C128.534 129.553 126.83 129.252 126.128 126.847C126.128 126.847 124.024 130.455 122.621 130.655C121.218 130.856 118.512 131.056 120.316 133.461C122.12 135.867 132.743 134.764 132.743 134.764C132.743 134.764 133.044 128.952 131.741 128.25Z" fill="#CBCDDA"/>
<path opacity="0.05" d="M131.741 128.25C131.741 128.25 131.039 128.25 128.534 129.553C128.534 129.553 126.83 129.252 126.128 126.847C126.128 126.847 124.024 130.455 122.621 130.655C121.218 130.856 118.512 131.056 120.316 133.461C122.12 135.867 132.743 134.764 132.743 134.764C132.743 134.764 133.044 128.952 131.741 128.25Z" fill="black"/>
<path d="M130.237 131.657L129.536 133.562L124.926 132.259L125.188 130.369L125.252 129.913L125.427 128.651C125.427 128.651 129.335 127.649 129.335 128.15C129.388 128.563 129.474 128.971 129.592 129.37C129.752 129.987 129.954 130.689 130.089 131.151C130.177 131.457 130.237 131.657 130.237 131.657Z" fill="#FFB9B9"/>
<path d="M127.722 105.52C127.406 106.054 127.048 107.057 127.713 108.309C127.91 108.672 128.152 109.007 128.434 109.309C130.638 111.714 131.24 117.126 131.24 117.126V125.845L129.736 125.96L127.331 126.145L123.723 111.313C123.723 111.313 121.619 100.489 122.621 98.5851C123.623 96.681 124.525 84.7549 124.525 84.7549L125.357 83.893L127.331 81.8485H133.044C133.501 82.1764 133.88 82.6006 134.155 83.0912C135.114 84.6787 135.975 87.9799 133.344 94.0753C129.235 103.596 128.033 105.099 128.033 105.099C127.913 105.227 127.809 105.369 127.722 105.52Z" fill="#4C4C78"/>
<path opacity="0.05" d="M127.722 105.52C127.406 106.054 127.048 107.057 127.713 108.309C127.91 108.672 128.152 109.007 128.434 109.309C130.638 111.714 131.24 117.126 131.24 117.126V125.845L129.736 125.96L127.331 126.145L123.723 111.313C123.723 111.313 121.619 100.489 122.621 98.5851C123.623 96.681 124.525 84.7549 124.525 84.7549L125.357 83.893L127.331 81.8485H133.044C133.501 82.1764 133.88 82.6006 134.155 83.0912C135.114 84.6787 135.975 87.9799 133.344 94.0753C129.235 103.596 128.033 105.099 128.033 105.099C127.913 105.227 127.809 105.369 127.722 105.52Z" fill="black"/>
<path opacity="0.1" d="M129.592 129.37L125.252 129.913L125.427 128.651C125.427 128.651 129.335 127.649 129.335 128.15C129.388 128.563 129.474 128.971 129.592 129.37Z" fill="black"/>
<path d="M127.431 92.6723C127.431 92.6723 127.681 100.562 127.722 105.52C127.731 106.642 127.73 107.614 127.713 108.31C127.719 108.678 127.692 109.046 127.632 109.409C127.331 110.311 127.932 112.315 127.932 112.315C130.438 118.93 129.736 124.743 129.736 124.743V129.152L124.926 129.753C124.926 129.753 125.728 129.152 123.523 123.339C122.256 120 121.981 116.728 121.977 114.547C121.966 113.354 121.727 112.173 121.274 111.069C121.135 110.696 121.049 110.306 121.017 109.91C120.817 107.906 119.915 105.4 119.915 105.4C119.915 105.4 117.51 98.2846 116.908 93.0732C116.63 90.5926 116.677 88.0863 117.048 85.6179C117.136 84.9904 117.257 84.3679 117.409 83.7528C117.409 83.7528 127.207 77.5873 130.906 81.8486C131.262 82.2655 131.544 82.74 131.741 83.2517C131.944 83.7572 132.102 84.2797 132.214 84.8131C133.365 90.4685 127.431 92.6723 127.431 92.6723Z" fill="#4C4C78"/>
<path d="M127.131 48.7763C129.953 48.7763 132.242 46.488 132.242 43.6651C132.242 40.8423 129.953 38.554 127.131 38.554C124.308 38.554 122.019 40.8423 122.019 43.6651C122.019 46.488 124.308 48.7763 127.131 48.7763Z" fill="#FFB9B9"/>
<path d="M124.325 46.8721C124.325 46.8721 126.429 52.785 124.325 55.8918C122.22 58.9986 131.039 57.9964 131.039 57.9964L134.447 53.8874C134.447 53.8874 130.438 53.8874 130.237 46.8721C130.037 39.8567 124.325 46.8721 124.325 46.8721Z" fill="#FFB9B9"/>
<path opacity="0.1" d="M134.447 84.2539C133.72 84.5052 132.973 84.6923 132.214 84.8131C130.966 85.0055 129.494 85.0126 128.634 84.2539C128.124 83.8039 126.867 83.7488 125.357 83.8931C122.176 84.1978 117.87 85.3844 117.048 85.6179C117.136 84.9904 117.257 84.3679 117.409 83.7528C117.409 83.7528 127.207 77.5873 130.906 81.8486H133.044C133.501 82.1765 133.88 82.6007 134.155 83.0913C134.339 83.8891 134.447 84.2539 134.447 84.2539Z" fill="black"/>
<path opacity="0.1" d="M130.237 131.658L129.536 133.562L124.926 132.259L125.188 130.369C125.98 132.121 127.331 132.359 127.331 132.359C128.788 131.601 129.635 131.285 130.089 131.151C130.177 131.457 130.237 131.658 130.237 131.658Z" fill="black"/>
<path d="M130.538 131.156C130.538 131.156 129.837 131.156 127.331 132.459C127.331 132.459 125.627 132.159 124.926 129.753C124.926 129.753 122.821 133.361 121.418 133.562C120.015 133.762 117.309 133.963 119.113 136.368C120.917 138.773 131.54 137.671 131.54 137.671C131.54 137.671 131.841 131.858 130.538 131.156Z" fill="#CBCDDA"/>
<path d="M106.761 44.6436C106.761 44.6436 106.957 40.7403 111.059 41.1223C111.174 41.1332 111.284 41.1722 111.381 41.236C111.477 41.2997 111.556 41.3862 111.61 41.4878C111.665 41.5893 111.694 41.7028 111.694 41.8181C111.695 41.9335 111.667 42.0471 111.613 42.149L110.772 43.7322L106.761 44.6436Z" fill="#FFB9B9"/>
<path d="M130.438 55.09C130.438 55.09 125.527 54.2882 124.224 53.2861C124.224 53.2861 123.222 55.1902 121.418 54.188C119.614 53.1858 115.405 53.2861 115.405 53.2861C115.405 53.2861 111.897 51.3819 111.196 47.0724C111.196 47.0724 110.494 44.4667 110.695 43.7652C110.695 43.7652 108.089 41.0593 106.786 44.6672C107.287 47.1727 107.688 46.9722 107.588 48.9766L109.191 53.3863C109.191 53.3863 109.292 54.8896 112.198 56.8939C115.104 58.8983 118.412 62.0051 118.412 62.0051C118.412 62.0051 116.658 62.9572 117.309 67.3168C118.105 72.6453 116.908 80.2451 116.908 80.2451V85.1558C116.908 85.1558 126.93 82.2494 128.634 83.7527C130.338 85.256 134.447 83.7527 134.447 83.7527C134.447 83.7527 133.946 82.049 133.244 77.94C132.542 73.831 133.344 69.8222 133.344 69.8222C133.344 69.8222 135.95 62.9071 137.153 60.101C138.355 57.2948 136.251 53.4865 134.146 52.0834C132.041 50.6803 131.258 51.5227 131.258 51.5227C131.258 51.5227 134.948 54.188 130.438 55.09Z" fill="#CBCDDA"/>
<path opacity="0.1" d="M121.603 42.4151C121.601 42.6237 121.636 42.831 121.707 43.0274C121.824 43.2509 121.983 43.4493 122.177 43.6114C122.927 44.3448 123.586 45.2164 123.85 46.232C124.029 46.9196 124.019 47.6402 124.008 48.3506C123.965 51.2281 123.844 54.3341 122.067 56.5976C121.413 57.4294 120.574 58.091 119.784 58.795C119.674 58.8759 119.591 58.9876 119.545 59.1161C119.523 59.2529 119.549 59.393 119.619 59.5127C119.985 60.2745 120.758 60.7417 121.489 61.1656C121.823 61.3594 122.175 61.5585 122.561 61.571C123.473 61.6006 124.075 60.638 124.904 60.2593C126.111 59.7081 127.466 60.4753 128.665 61.0458C129.533 61.4589 130.443 61.7764 131.379 61.9926C132.662 62.2885 134.113 62.3612 135.192 61.6084C135.817 61.1686 136.243 60.5011 136.38 59.7498C136.467 59.2601 136.453 58.6916 136.824 58.36C137.015 58.1892 137.276 58.1183 137.482 57.9669C137.803 57.732 137.955 57.3369 138.092 56.9637L139.326 53.5882C139.486 53.2316 139.568 52.8452 139.568 52.4546C139.508 51.6418 138.759 51.0518 138.006 50.7393C137.254 50.4268 136.421 50.2728 135.759 49.7973C134.64 48.9932 134.295 47.4916 134.194 46.1173C134.125 45.1734 134.132 44.2255 134.215 43.2827C134.337 41.8845 134.61 40.3958 133.988 39.1376C133.324 37.7939 131.834 37.1078 130.454 36.5224C129.924 36.2976 129.38 36.0694 128.805 36.044C128.196 36.0172 127.604 36.2194 127.028 36.4189C126.114 36.736 125.186 37.1466 124.242 37.3617C123.711 37.4825 123.13 37.3921 122.619 37.5839C120.74 38.2888 121.603 40.9021 121.603 42.4151Z" fill="black"/>
<path d="M121.603 42.2143C121.601 42.4229 121.636 42.6302 121.707 42.8266C121.824 43.0501 121.983 43.2485 122.177 43.4106C122.927 44.144 123.586 45.0156 123.85 46.0312C124.029 46.7188 124.019 47.4394 124.008 48.1498C123.965 51.0273 123.844 54.1332 122.067 56.3967C121.413 57.2286 120.574 57.8902 119.784 58.5941C119.674 58.675 119.591 58.7868 119.545 58.9153C119.523 59.0521 119.549 59.1922 119.619 59.3119C119.985 60.0737 120.758 60.5409 121.489 60.9648C121.823 61.1586 122.175 61.3577 122.561 61.3702C123.473 61.3997 124.075 60.4372 124.904 60.0585C126.111 59.5073 127.466 60.2745 128.665 60.845C129.533 61.2581 130.443 61.5756 131.379 61.7918C132.662 62.0877 134.113 62.1604 135.192 61.4076C135.817 60.9678 136.243 60.3003 136.38 59.549C136.467 59.0593 136.453 58.4908 136.824 58.1592C137.015 57.9884 137.276 57.9175 137.482 57.7661C137.803 57.5312 137.955 57.1361 138.092 56.7629L139.326 53.3874C139.486 53.0308 139.568 52.6444 139.568 52.2538C139.508 51.441 138.759 50.851 138.006 50.5385C137.254 50.226 136.421 50.072 135.759 49.5965C134.64 48.7924 134.295 47.2908 134.194 45.9165C134.125 44.9726 134.132 44.0247 134.215 43.0819C134.337 41.6837 134.61 40.1949 133.988 38.9368C133.324 37.5931 131.834 36.907 130.454 36.3216C129.924 36.0968 129.38 35.8686 128.805 35.8432C128.196 35.8164 127.604 36.0186 127.028 36.2181C126.114 36.5352 125.186 36.9458 124.242 37.1609C123.711 37.2817 123.13 37.1913 122.619 37.3831C120.74 38.088 121.603 40.7013 121.603 42.2143Z" fill="black"/>
<path opacity="0.05" d="M117.562 69.5649C117.562 69.5649 118.361 69.3712 122.37 68.7699C126.379 68.1685 133.394 69.5716 133.394 69.5716" fill="black"/>
<path d="M7.40814 86.0442C7.98598 88.141 9.99356 89.4166 9.99356 89.4166C9.99356 89.4166 11.0643 87.2927 10.4864 85.1959C9.90859 83.0991 7.90101 81.8235 7.90101 81.8235C7.90101 81.8235 6.83029 83.9474 7.40814 86.0442Z" fill="#03A803"/>
</svg>
