<svg width="156" height="172" viewBox="0 0 156 172" fill="none" xmlns="http://www.w3.org/2000/svg">
<path d="M21.2648 124.144L18.0388 118.971C19.0811 116.284 20.2753 113.658 21.6156 111.104L23.7336 112.873L22.0819 110.225C23.7709 107.084 25.0898 105.11 25.0898 105.11C25.0898 105.11 31.5556 115.685 33.5623 126.785L29.1568 133.253L33.9636 129.556C34.106 130.847 34.1663 132.146 34.1443 133.445C33.8788 146.539 29.3541 157.067 24.0381 156.961C18.7222 156.855 14.6281 146.154 14.8937 133.06C14.976 129.001 15.9876 124.773 17.3438 120.87L21.2648 124.144Z" fill="#03A803"/>
<path d="M6.66717 129.919L1.21112 127.145C0.70377 124.31 0.357951 121.45 0.175303 118.576L2.90967 119.004L0.116161 117.584C-0.0741417 114.028 0.0266906 111.662 0.0266906 111.662C0.0266906 111.662 11.0703 117.399 18.5703 125.872L18.1677 133.668L20.357 128.038C21.1515 129.07 21.8797 130.151 22.5374 131.274C29.1305 142.619 30.7414 153.953 26.1354 156.589C21.5294 159.225 12.4508 152.164 5.85767 140.819C3.81375 137.302 2.47718 133.164 1.60516 129.127L6.66717 129.919Z" fill="#29BB29"/>
<path d="M34.0627 171.792C27.7759 172.191 20.9258 171.768 13.6384 171.792V155.235C20.0598 156.227 26.9077 156.125 34.0627 155.235V171.792Z" fill="#3F3D56"/>
<path d="M156 96.062L89.281 106.723L88.9982 42.3573L155.717 0L156 96.062Z" fill="#E6E6E6"/>
<path d="M149.78 86.5235L92.1079 98.8672V45.0033L149.78 13.941V86.5235Z" fill="white"/>
<path d="M144.126 37.1484L95.5005 58.7569V51.1753L144.126 27.3375V37.1484Z" fill="#3F3D56"/>
<path d="M144.126 57.3474L95.5005 74.3666V66.8858L144.126 47.6669V57.3474Z" fill="#03A803"/>
<path d="M114.287 47.9744C114.297 47.9361 114.319 47.9019 114.35 47.8771C114.38 47.8523 114.419 47.8381 114.458 47.8368C114.498 47.8355 114.537 47.8472 114.569 47.8699C114.602 47.8927 114.626 47.9253 114.638 47.9629L115.425 50.4252L116.368 53.375C116.382 53.4181 116.379 53.4648 116.36 53.5058C116.341 53.5469 116.307 53.5792 116.265 53.5966L114.442 54.3503L112.84 55.0127C112.809 55.0256 112.775 55.0297 112.742 55.0244C112.708 55.0192 112.677 55.0049 112.652 54.9831C112.626 54.9613 112.607 54.9329 112.597 54.901C112.586 54.8692 112.585 54.8351 112.593 54.8026L113.469 51.2711L114.287 47.9744Z" fill="#E6E6E6"/>
<path d="M111.363 66.3341C111.378 66.271 111.414 66.2146 111.465 66.1736C111.516 66.1327 111.579 66.1094 111.645 66.1072C111.71 66.1051 111.775 66.1242 111.828 66.1618C111.882 66.1993 111.922 66.2532 111.941 66.3152L112.601 68.3792L113.512 71.2264C113.534 71.2975 113.53 71.3745 113.498 71.4422C113.466 71.5099 113.41 71.5634 113.341 71.5921L111.618 72.3044L110.233 72.8771C110.182 72.8984 110.125 72.905 110.07 72.8964C110.015 72.8878 109.964 72.8642 109.922 72.8282C109.879 72.7923 109.848 72.7454 109.831 72.6928C109.814 72.6402 109.812 72.5839 109.825 72.5303L110.645 69.2251L111.363 66.3341Z" fill="#E6E6E6"/>
<path d="M144.126 77.5463L95.5005 89.9761V82.0348L144.126 67.2704V77.5463Z" fill="#F2F2F2"/>
<path d="M142.995 42.6058C142.995 44.2953 142.233 45.9753 141.299 46.3549C140.374 46.7313 139.63 45.6859 139.63 44.0231C139.63 42.3602 140.374 40.6881 141.299 40.2852C142.233 39.8787 142.995 40.9162 142.995 42.6058Z" fill="#3F3D56"/>
<path d="M141.864 43.0821C141.864 43.6453 141.611 44.2074 141.299 44.3372C140.988 44.4667 140.737 44.1172 140.737 43.5571C140.737 42.9969 140.988 42.4357 141.299 42.3032C141.611 42.1704 141.864 42.5189 141.864 43.0821Z" fill="white"/>
<path d="M142.995 62.2436C142.995 63.9331 142.233 65.6131 141.299 65.9927C140.374 66.3691 139.63 65.3238 139.63 63.6609C139.63 61.998 140.374 60.326 141.299 59.923C142.233 59.5165 142.995 60.554 142.995 62.2436Z" fill="#03A803"/>
<path d="M141.864 62.7199C141.864 63.2831 141.611 63.8452 141.299 63.9751C140.988 64.1045 140.737 63.7551 140.737 63.1949C140.737 62.6347 140.988 62.0735 141.299 61.941C141.611 61.8082 141.864 62.1567 141.864 62.7199Z" fill="white"/>
<path d="M142.995 81.8816C142.995 83.5712 142.233 85.2512 141.299 85.6308C140.374 86.0072 139.63 84.9618 139.63 83.299C139.63 81.6361 140.374 79.964 141.299 79.5611C142.233 79.1546 142.995 80.1921 142.995 81.8816Z" fill="#F2F2F2"/>
<path d="M141.864 82.3578C141.864 82.921 141.611 83.4831 141.299 83.6129C140.988 83.7424 140.737 83.3929 140.737 82.8327C140.737 82.2725 140.988 81.7113 141.299 81.5788C141.611 81.446 141.864 81.7946 141.864 82.3578Z" fill="white"/>
<path d="M115.883 82.6061C115.898 82.5429 115.934 82.4866 115.985 82.4456C116.036 82.4047 116.099 82.3813 116.165 82.3792C116.23 82.377 116.295 82.3962 116.348 82.4338C116.402 82.4713 116.442 82.5252 116.461 82.5872L117.121 84.6512L118.032 87.4984C118.054 87.5695 118.049 87.6465 118.018 87.7142C117.986 87.7819 117.93 87.8354 117.861 87.8641L116.138 88.5763L114.753 89.1491C114.702 89.1703 114.645 89.177 114.59 89.1684C114.535 89.1597 114.484 89.1361 114.442 89.1002C114.399 89.0642 114.368 89.0174 114.351 88.9648C114.334 88.9122 114.332 88.8559 114.345 88.8023L115.165 85.4971L115.883 82.6061Z" fill="#E6E6E6"/>
<path d="M104.406 79.1544L107.036 76.7465C107.036 76.7465 112.99 72.6767 110.911 70.4393C108.831 68.2018 104.639 73.4193 104.639 73.4193L102.038 75.1103L104.406 79.1544Z" fill="#FFB9B9"/>
<path d="M69.6279 80.2745L68.0956 82.3673C68.0956 82.3673 65.9543 90.539 76.7905 90.973C76.7905 90.973 90.6298 97.6306 94.0556 93.4595C97.4814 89.2884 106.934 79.2553 106.934 79.2553L101.374 73.6473L90.0418 85.4003L79.0484 79.9337C79.0484 79.9337 73.3858 76.8348 69.6279 80.2745Z" fill="#2F2E41"/>
<path d="M62.4164 119.052L48.0688 171.508L49.8763 171.867L64.9468 119.052H62.4164Z" fill="#603C28"/>
<path d="M79.8102 119.052L94.1575 171.508L92.3501 171.867L77.2795 119.052H79.8102Z" fill="#E6E6E6"/>
<path d="M70.0077 117.976L72.4137 171.596L74.5031 171.688L71.8154 117.258L70.0077 117.976Z" fill="#603C28"/>
<path d="M76.6957 117.128C76.6957 118.488 72.944 119.948 68.0197 120.417C62.7346 120.921 58.1572 120.103 58.1572 118.557C58.1572 117.011 62.7346 115.488 68.0197 115.177C72.944 114.887 76.6957 115.768 76.6957 117.128Z" fill="#603C28"/>
<path d="M81.9374 107.932L85.5524 110.443C85.5524 110.443 101.097 121.564 99.6509 125.868C98.2049 130.173 90.2519 147.392 90.2519 147.392L80.1299 144.164L91.6979 125.868L85.5524 120.129L82.2989 112.237L81.9374 107.932Z" fill="#2F2E41"/>
<path d="M67.839 101.475C67.839 101.475 60.609 112.595 64.947 115.824C69.285 119.052 81.5761 131.608 81.5761 131.608L84.1066 137.348L93.1441 166.405L104.351 160.665L94.2286 138.065C94.2286 138.065 93.1441 129.814 89.5291 125.151C85.9141 120.487 84.4681 113.671 84.4681 113.671L85.5526 110.443L79.0798 100.165L67.839 101.475Z" fill="#2F2E41"/>
<path d="M87.4982 145.337L81.0007 143.374C81.0007 143.374 73.9844 143.088 74.3459 145.599C74.7074 148.11 80.4914 164.611 82.2989 163.535C84.1064 162.459 82.6604 157.437 82.6604 157.437L87.4982 145.337Z" fill="#2F2E41"/>
<path d="M73.0804 66.4985L69.4656 70.4445L75.2495 79.7715L77.7801 72.5969L73.0804 66.4985Z" fill="#FFB9B9"/>
<path d="M76.5149 80.3094L70.0941 69.7582L67.8389 70.265V73.8523L67.1158 103.986L79.0454 102.192C79.0454 102.192 79.7684 82.8206 76.5149 80.3094Z" fill="#03A803"/>
<path d="M73.2615 79.9507L67.839 70.265L63.1395 72.4173L54.8249 106.138L49.7639 115.824C49.7639 115.824 66.393 124.075 70.3695 115.824C74.346 107.573 74.7075 89.2777 74.7075 89.2777L73.2615 79.9507Z" fill="#2F2E41"/>
<path d="M65.3083 73.8521L63.1393 72.4172C63.1393 72.4172 54.8248 70.6236 54.8248 81.3855C54.8248 81.3855 48.6793 95.376 53.0173 98.6046C57.3553 101.833 67.8388 110.801 67.8388 110.801L73.2613 105.062L60.9703 94.2998L66.0313 83.1792C66.0313 83.1792 68.9233 77.4395 65.3083 73.8521Z" fill="#2F2E41"/>
<path d="M67.8389 108.29L70.3694 110.801C70.3694 110.801 74.7074 116.541 76.8764 114.389C79.0454 112.236 73.6229 108.29 73.6229 108.29L71.8154 105.779L67.8389 108.29Z" fill="#FFB9B9"/>
<path d="M76.0958 77.054L82.299 92.1476C82.299 92.1476 84.8295 99.681 84.8295 102.551V110.443L77.961 101.475C77.961 101.475 74.2307 78.1033 76.0958 77.054Z" fill="#2F2E41"/>
<path d="M95.846 163.544C95.846 163.544 94.0551 170.541 96.4055 171.133C98.7559 171.726 118.477 172.227 118.489 168.919C118.502 165.612 105.69 162.88 105.69 162.88L100.957 159.866L95.846 163.544Z" fill="#2F2E41"/>
<path d="M77.5993 73.1349C81.193 73.1349 84.1063 70.2439 84.1063 66.6777C84.1063 63.1115 81.193 60.2205 77.5993 60.2205C74.0056 60.2205 71.0923 63.1115 71.0923 66.6777C71.0923 70.2439 74.0056 73.1349 77.5993 73.1349Z" fill="#FFB9B9"/>
<path d="M84.5381 65.5183C84.5381 65.5183 85.8091 60.0527 84.5381 58.7915V59.6323C84.5381 59.6323 83.6907 56.6893 81.996 57.5302C81.996 57.5302 79.8777 55.8485 79.454 56.6893C76.9611 54.4528 65.9074 56.5496 71.2732 68.292C71.2732 68.292 72.2515 64.6775 72.2515 65.9387C72.2515 65.9387 74.7936 63.4162 75.2173 62.5753C75.6409 61.7345 82.8434 67.2 84.5381 65.5183Z" fill="#2F2E41"/>
</svg>
