<svg width="154" height="159" viewBox="0 0 154 159" fill="none" xmlns="http://www.w3.org/2000/svg">
<path d="M152.973 93.1573C152.496 92.7921 151.939 92.5477 151.347 92.4451C150.724 92.302 150.088 92.2122 149.455 92.1123L141.255 90.9309C140.428 90.7774 139.583 90.7326 138.744 90.7978C138.323 90.8323 137.913 90.9501 137.538 91.1443C137.163 91.3386 136.83 91.6054 136.559 91.9293C136.315 92.2306 136.181 92.6064 136.179 92.9943C136.225 93.3846 136.352 93.761 136.552 94.0992C136.632 94.2572 136.7 94.4207 136.756 94.5884C136.834 94.9648 136.932 95.3369 137.049 95.7033C137.085 95.7826 137.132 95.8565 137.189 95.9229C137.19 95.9417 137.19 95.9607 137.189 95.9795C137.099 96.4388 137.388 96.918 137.258 97.3606C137.145 97.74 136.776 97.9697 136.542 98.2858C136.387 98.5101 136.301 98.7751 136.295 99.0479C136.289 99.3207 136.363 99.5892 136.509 99.82C136.759 100.206 137.212 100.469 137.342 100.912C137.512 101.494 137.052 102.056 136.642 102.506C135.889 103.333 135.192 104.21 134.557 105.132C134.379 105.358 134.264 105.628 134.224 105.914C134.188 106.493 134.744 107.002 134.647 107.578C134.571 108.03 134.128 108.306 133.745 108.576C132.329 109.508 131.193 111.005 131.08 112.699C130.717 110.004 129.599 107.466 127.856 105.378C127.38 104.805 126.857 104.23 126.66 103.504C126.587 103.215 126.574 102.905 126.474 102.626C126.141 101.744 125.082 101.364 124.619 100.552C124.286 99.9798 124.286 99.2443 123.873 98.7417C123.46 98.2392 122.81 98.1261 122.454 97.6402C122.276 97.3111 122.124 96.9683 122.001 96.6151C121.851 96.3272 121.641 96.0751 121.385 95.8763C121.335 95.8371 121.284 95.8004 121.231 95.7665C121.287 95.7171 121.331 95.6565 121.361 95.5889C121.392 95.5212 121.408 95.448 121.408 95.3738C121.408 94.9844 121.021 94.7282 120.685 94.5351C120.252 94.2889 119.829 94.0226 119.416 93.7464C119.866 93.5368 120.257 93.2175 120.552 92.8179C120.921 92.2218 121.074 91.5166 120.985 90.8211C120.962 90.2597 120.752 89.722 120.389 89.2935C120.179 89.0705 119.916 88.9108 119.696 88.7011C119.126 88.1453 118.933 87.3233 118.697 86.5645C118.384 85.5661 117.894 84.5178 116.981 83.9887C116.542 83.7324 116.029 83.6126 115.599 83.343C115.169 83.0734 114.81 82.5643 114.96 82.075C115.06 81.7422 115.369 81.5126 115.579 81.2297C115.83 80.8639 115.926 80.4142 115.847 79.9781C115.767 79.542 115.519 79.1547 115.156 78.9001C114.91 78.7437 114.607 78.6072 114.557 78.321C114.364 78.271 114.189 78.1676 114.052 78.0228C113.916 77.878 113.823 77.6976 113.784 77.5023C113.709 77.111 113.709 76.709 113.784 76.3176C113.871 75.6986 113.956 75.0818 114.04 74.4672C114.187 74.5282 114.344 74.5595 114.503 74.5595C114.662 74.5595 114.82 74.5282 114.966 74.4672C115.255 74.9346 115.589 75.3717 115.965 75.7718C116.98 76.9685 117.77 78.3383 118.297 79.8153C118.487 80.3478 118.68 80.9435 119.173 81.2264C119.343 81.3229 119.536 81.3728 119.703 81.476C119.908 81.619 120.084 81.7997 120.222 82.0085C120.622 82.5376 121.021 83.0635 121.418 83.5926L121.438 83.6725C121.449 83.7193 121.467 83.7642 121.491 83.8056C121.565 83.8886 121.667 83.9408 121.778 83.952C123.003 84.2349 124.379 84.4945 125.441 83.8256C126.4 83.2265 126.82 82.0418 127.633 81.2497C128.209 80.6873 129.025 80.2513 129.188 79.4592C128.994 79.3993 128.803 79.3293 128.615 79.2496C128.782 79.0832 128.948 78.8901 129.175 78.6705C129.504 78.3486 129.801 77.9952 130.061 77.6155C130.342 77.1471 130.566 76.6465 130.727 76.1245C131.369 74.2964 132.013 72.4671 132.659 70.6366C132.965 69.7714 133.272 68.8994 133.658 68.0574C134.058 67.1456 134.531 66.2703 134.967 65.3751C136.093 63.0468 136.962 60.603 137.558 58.0867C137.664 57.7434 137.699 57.3823 137.661 57.0251C137.568 56.4493 137.132 55.9967 136.716 55.5874C136.297 55.1345 135.82 54.7394 135.297 54.4126C135.034 54.2494 134.742 54.14 134.436 54.0909C134.131 54.0418 133.819 54.0538 133.518 54.1264C132.665 54.376 132.129 55.2479 131.933 56.1232C131.736 56.9984 131.81 57.9003 131.726 58.7856C131.606 60.0669 131.167 61.3049 131.06 62.5895C131.003 63.3317 131.06 64.0838 130.97 64.8259C130.806 65.7972 130.468 66.7308 129.971 67.5815C128.891 69.6105 127.429 71.4118 125.664 72.8864C125.461 73.0561 125.251 73.2192 125.052 73.4022C125.052 73.2591 125.075 73.1127 125.095 72.9696C124.95 73.0073 124.808 73.0574 124.672 73.1194C124.689 72.9513 124.672 72.7816 124.622 72.6202C124.355 71.8248 123.17 71.6217 122.957 70.813C122.921 70.613 122.902 70.4104 122.9 70.2073C122.83 69.4985 122.347 68.8994 122.181 68.2105C122.027 67.5749 122.144 66.8793 121.847 66.2903C121.595 65.9219 121.297 65.5865 120.962 65.2919C120.561 64.8351 120.273 64.2916 120.119 63.7044C120.076 63.5413 120.036 63.3716 119.989 63.2085C120.04 62.8392 119.998 62.4632 119.869 62.1136C119.566 61.3615 118.783 60.8789 118.5 60.1168C118.28 59.5244 118.377 58.7856 117.961 58.3263C117.739 58.1069 117.469 57.9437 117.171 57.8504C115.647 57.2572 114.047 56.8797 112.418 56.7289C111.506 56.6457 110.5 56.5991 109.847 55.9568C109.084 55.2113 109.048 53.8701 108.155 53.2944C107.369 52.7852 106.257 53.1612 105.647 53.8768C105.555 53.982 105.471 54.0932 105.394 54.2096C105.283 53.7635 105.259 53.3002 105.324 52.8451C105.324 52.7319 105.347 52.6154 105.357 52.5123C106.861 52.0212 108.141 51.0114 108.968 49.6635C108.968 49.6635 108.968 49.6635 108.968 49.6835L109.008 49.7866C109.104 50.0296 109.258 50.2625 109.484 50.2892C109.635 50.2873 109.78 50.2346 109.897 50.1394C110.098 49.9999 110.283 49.8392 110.45 49.6602C110.534 49.567 110.614 49.4705 110.69 49.3706C110.843 49.1628 110.975 48.9398 111.083 48.705C111.248 48.3518 111.36 47.9761 111.416 47.5901C111.476 47.2041 111.482 46.8081 111.549 46.422C111.611 46.1232 111.692 45.8286 111.792 45.5401C111.825 45.4436 111.859 45.3471 111.889 45.2505C111.919 45.154 111.962 45.0242 111.995 44.9177C112.204 44.2333 112.316 43.5231 112.328 42.8078C112.328 42.688 112.328 42.5682 112.328 42.4484C112.316 41.9815 112.211 41.5217 112.019 41.096C111.827 40.6703 111.551 40.2871 111.209 39.969C110.636 39.4997 109.877 39.3034 109.457 38.6677C109.184 38.2417 109.124 37.6926 108.964 37.1934C108.792 36.596 108.455 36.0589 107.992 35.643C107.529 35.2272 106.959 34.9491 106.347 34.8405C105.609 34.7597 104.868 34.9632 104.275 35.4096L104.228 35.4462C103.898 35.6982 103.618 36.0098 103.402 36.3647C102.962 36.2436 102.559 36.0149 102.23 35.6991C101.897 35.3896 101.64 35.0003 101.304 34.7007C100.99 34.4131 100.604 34.215 100.186 34.1272C99.7693 34.0394 99.3363 34.065 98.9325 34.2015C98.5165 34.368 98.146 34.6307 97.8513 34.9679C97.5566 35.3052 97.3461 35.7075 97.2371 36.1418C97.0539 36.8273 97.0873 37.6161 96.7042 38.1885C96.4078 38.6344 95.9215 38.8541 95.5818 39.2601C95.3707 39.5172 95.2266 39.8225 95.1621 40.1487C95.1217 40.3311 95.1027 40.5176 95.1055 40.7045C95.1055 40.7877 95.1055 40.8709 95.1255 40.9508C95.1255 40.9508 95.1255 40.9774 95.1255 40.9907C95.1373 41.0819 95.1562 41.172 95.1821 41.2603C95.2768 41.5976 95.4464 41.9093 95.6784 42.1721C95.8982 42.4238 96.1728 42.6219 96.4811 42.7512C96.6072 42.8002 96.7362 42.8414 96.8674 42.8743L97.2638 42.9642L97.4037 42.9975C96.9254 43.8948 96.6598 44.8899 96.6275 45.9061C96.5951 46.9223 96.7969 47.9322 97.2172 48.8581C97.2172 48.9513 97.1938 49.0445 97.1839 49.1377C97.1296 50.4481 97.1875 51.7608 97.357 53.0614C97.4037 53.5772 97.4303 54.1463 97.1139 54.5557C96.9698 54.7167 96.8078 54.8607 96.631 54.985C96.8108 54.752 96.994 54.5224 97.1805 54.2928C96.7109 53.8202 95.9682 53.7603 95.302 53.8069C94.0128 53.9031 92.7612 54.2851 91.6383 54.9251C90.8922 55.3544 90.1262 55.9235 89.2735 55.8237C88.7706 55.7671 88.2743 55.4909 87.7847 55.624C87.5095 55.7365 87.2525 55.889 87.022 56.0766C86.8398 56.2071 86.62 56.2749 86.3958 56.2696C85.8729 55.6273 85.0635 55.1913 84.4374 54.6688C83.7247 54.035 83.0724 53.3364 82.4889 52.5822C81.4098 51.2809 80.334 49.9763 79.2748 48.6618C78.3822 47.5569 77.4663 46.3621 77.3097 44.9477C77.2937 44.8074 77.286 44.6663 77.2864 44.525C77.3081 43.853 77.3928 43.1845 77.5395 42.5282C77.579 42.3698 77.579 42.2041 77.5395 42.0457C77.4396 41.7129 77.0566 41.5897 76.7269 41.5165C76.7702 41.2603 76.8001 40.9973 76.8168 40.7477C77.0033 37.8856 76.8001 34.977 77.4063 32.1748C77.6361 31.0965 78.0125 30.0049 78.7885 29.2228C80.0042 27.9948 82.0393 27.6986 82.9719 26.2442C83.7512 25.0328 83.4415 23.3189 82.4623 22.2506C81.4831 21.1823 79.9743 20.7464 78.5387 20.7996C78.1359 20.7858 77.7381 20.8924 77.3963 21.1058C77.0768 21.3893 76.8378 21.7521 76.7035 22.1574L75.2747 25.6286C74.8604 26.5323 74.5109 27.4642 74.2288 28.4174C73.8292 29.8751 73.7392 31.4126 73.4228 32.8836C73.4228 34.0152 72.6934 35.4262 72.2937 36.4679C71.8474 37.6394 71.3645 38.7975 70.9615 39.9923C70.8615 40.2918 70.5118 41.1804 70.2953 41.9891C70.2135 42.0367 70.1375 42.0936 70.0688 42.1588C69.8949 42.3815 69.7369 42.6162 69.5959 42.861C69.2928 43.2604 68.7999 43.4734 68.4668 43.8594C68.1337 44.2455 68.0638 44.9543 68.5267 45.1474C68.6207 45.179 68.7179 45.2002 68.8165 45.2106C68.8772 45.2157 68.9373 45.2257 68.9964 45.2406C69.496 45.3803 69.6925 46.0093 69.6192 46.5285C69.5459 47.0477 69.2861 47.5269 69.2428 48.0461C69.1529 48.9646 69.6925 49.8199 70.2121 50.592C70.75 51.429 71.3442 52.2284 71.9906 52.9849C72.4603 53.5107 72.9898 53.9833 73.4628 54.4891C75.2647 56.3395 76.6969 58.5027 78.3156 60.5128C78.8979 61.2715 79.5601 61.9655 80.2907 62.5829C80.7677 62.9557 81.2672 63.2992 81.7861 63.6112L84.5706 65.3751C84.8863 65.6063 85.2437 65.7746 85.6231 65.8709C85.7469 65.8876 85.8723 65.8876 85.9961 65.8709C86.0128 65.9541 86.0261 66.034 86.0461 66.1172C86.2626 66.9891 86.7389 67.7812 86.7922 68.6698C86.8454 69.5584 86.7655 70.4669 86.8288 71.3655C86.8887 72.1942 87.0719 73.0295 87.1186 73.8449C87.2118 75.4157 86.8255 76.9665 86.4524 78.5041C85.8895 80.7538 85.5498 83.0502 84.454 85.0902C84.1476 85.6527 83.7879 86.2251 83.7879 86.8674C83.7879 86.9439 83.7879 87.0238 83.8079 87.1003L83.3083 87.3832C83.1617 87.4664 83.0152 87.5496 82.8819 87.6362C82.2491 88.0488 81.573 88.5048 81.3132 89.217C81.1034 89.7927 81.2 90.4517 80.9468 91.0108C80.9348 91.0359 80.9214 91.0603 80.9068 91.084C80.6404 91.6031 80.1108 91.9892 79.9909 92.5583C79.901 92.9943 80.0742 93.4569 79.9909 93.8895C79.9909 93.8895 79.9909 93.8895 79.9909 93.9061C79.9151 94.1234 79.855 94.3459 79.8111 94.5717C79.8075 94.6455 79.8142 94.7195 79.831 94.7914C79.8945 95.0435 80.0341 95.2701 80.2307 95.4403C80.3507 95.5554 80.4811 95.6591 80.6204 95.7499C80.7625 95.843 80.9091 95.9296 81.0601 96.0094L81.1467 96.056C81.2732 96.1226 81.3998 96.1858 81.5297 96.2457L81.6163 96.2823C81.7662 96.3489 81.9194 96.4088 82.0726 96.4621L82.1792 96.4953C82.2991 96.5353 82.4223 96.5719 82.5455 96.6018L82.6288 96.6285L82.7054 96.6451L83.0385 96.715L83.1617 96.7383C83.3083 96.7627 83.4582 96.7827 83.6114 96.7982H83.7446C83.8578 96.7982 83.9677 96.8148 84.0776 96.8182H84.2342C84.3508 96.8182 84.464 96.8182 84.5673 96.8182H84.6872C84.8437 96.8182 85.0002 96.7949 85.1568 96.7749H85.2068C85.3466 96.7549 85.4865 96.7316 85.6264 96.7017L85.733 96.6784C85.8629 96.6484 85.9928 96.6185 86.1227 96.5785L86.1926 96.5586C86.3492 96.512 86.5057 96.4621 86.6589 96.4022C87.1891 96.1844 87.7033 95.9298 88.1977 95.64C88.5308 95.457 88.8638 95.2706 89.1969 95.1009C89.4439 94.9765 89.6974 94.8654 89.9563 94.7681C90.5862 94.4992 91.2715 94.3851 91.9547 94.4353C92.2918 94.4812 92.6256 94.549 92.9539 94.6383C92.9539 94.6749 92.9539 94.7115 92.9539 94.7481C93.2248 96.3456 93.4923 97.943 93.7566 99.5405C94.1926 99.2268 94.6538 98.9496 95.1355 98.7118C95.0454 98.953 94.9861 99.2046 94.9589 99.4606C94.939 99.6587 94.939 99.8582 94.9589 100.056C94.9889 100.372 95.0555 100.722 94.8657 100.972C94.7491 101.125 94.5326 101.211 94.4693 101.384C94.4231 101.561 94.4118 101.745 94.436 101.927C94.4224 102.134 94.3348 102.329 94.1894 102.476C94.0439 102.624 93.8501 102.715 93.6433 102.732C93.7387 103 93.7409 103.292 93.6497 103.561C93.5584 103.831 93.379 104.061 93.1404 104.216C93.0011 104.283 92.8711 104.368 92.754 104.469C92.6401 104.616 92.5636 104.789 92.5309 104.972C92.0907 106.62 91.1854 108.107 89.923 109.255C89.4493 109.627 89.0172 110.049 88.634 110.513C88.3971 110.873 88.2016 111.258 88.0511 111.661C87.163 113.831 86.2615 116.002 85.3466 118.174C84.8404 119.389 84.3474 120.623 84.1876 121.931C83.7879 125.519 80.5904 128.561 81.19 132.122C81.3111 133.011 81.6701 133.852 82.2291 134.555C82.8953 135.357 83.8945 135.816 84.8937 136.189C87.4616 137.187 90.1695 137.733 92.8673 138.282L97.1039 139.151C97.9352 139.342 98.7788 139.475 99.6286 139.55C100.651 139.62 101.7 139.523 102.696 139.783C103.312 139.943 103.902 140.239 104.538 140.272C105.084 140.302 105.757 140.186 106.08 140.631C106.403 141.077 106.153 141.667 106.46 142.063C106.953 142.692 108.155 142.063 108.691 142.655C108.838 142.882 108.95 143.13 109.024 143.39C109.106 143.551 109.219 143.694 109.357 143.81C109.39 143.998 109.403 144.188 109.397 144.379C109.328 145.152 109.167 145.914 108.918 146.649C108.518 148 108.12 149.352 107.722 150.705C107.57 151.183 107.459 151.673 107.389 152.17C107.364 152.411 107.364 152.654 107.389 152.895C107.459 153.631 107.882 154.39 108.585 154.629C109.13 154.773 109.71 154.702 110.203 154.429C110.68 154.181 111.127 153.879 111.536 153.531C112.273 152.973 112.921 152.307 113.458 151.554C115.123 149.065 114.583 145.697 115.752 142.944C116.528 141.107 118.041 139.616 118.543 137.68C118.661 137.311 118.675 136.917 118.583 136.541C118.374 135.876 117.664 135.496 117.001 135.257H116.971C116.427 135.063 115.871 134.904 115.306 134.781C115.166 134.751 115.023 134.728 114.88 134.704C114.563 134.447 114.311 134.118 114.144 133.746C114.117 133.548 114.065 133.354 113.987 133.17C113.934 133.091 113.863 133.025 113.78 132.979C113.696 132.933 113.603 132.907 113.507 132.904C113.174 132.871 112.728 132.99 112.365 132.964C111.622 132.91 111.129 132.182 110.463 131.846C109.797 131.509 109.074 131.593 108.365 131.643C108.111 131.677 107.853 131.661 107.606 131.596C107.31 131.46 107.039 131.274 106.806 131.047C106.396 130.728 105.918 130.509 105.408 130.407C104.899 130.304 104.373 130.322 103.872 130.458C103.553 130.586 103.216 130.663 102.873 130.684C102.223 130.647 101.764 130.068 101.284 129.629C99.9716 128.428 98.1031 128.111 96.5111 127.323C96.2674 127.232 96.0642 127.057 95.9382 126.83C95.755 126.378 96.168 125.925 96.541 125.615L99.2788 123.342C102.276 120.853 106.023 118.979 107.416 115.329C107.561 114.839 107.786 114.377 108.082 113.961C108.19 113.834 108.314 113.722 108.451 113.628C109.057 113.236 109.791 113.093 110.5 113.229C111.364 113.422 112.182 113.779 112.911 114.28C114.104 115.001 115.264 115.778 116.392 116.61C117.509 117.408 118.572 118.279 119.573 119.219C121.321 120.883 122.777 122.857 124.405 124.65C126.034 126.444 127.896 128.118 130.158 128.977C132.419 129.835 135.153 129.799 137.095 128.358C139.337 126.694 140.056 123.719 140.622 120.99C141.871 119.785 142.248 117.951 142.857 116.33C143.24 115.302 143.73 114.333 144.143 113.308C144.636 112.104 145.022 110.859 145.409 109.618C145.846 108.371 146.144 107.08 146.295 105.767C146.454 103.694 145.898 101.487 146.481 99.5405C147.25 99.3707 147.95 98.9381 148.706 98.6852C149.832 98.3158 151.037 98.3757 152.23 98.3823H152.306C152.717 98.426 153.131 98.3286 153.479 98.1061C153.879 97.7733 153.942 97.2042 153.962 96.6884C154.008 95.4137 153.929 93.9827 152.973 93.1573ZM104.714 36.388C104.439 36.4561 104.154 36.4764 103.872 36.4479L104.714 36.388Z" fill="url(#paint0_linear)"/>
<path d="M106.028 57.441C105.624 57.7833 105.152 58.0342 104.642 58.1765L102.281 59.0218C100.998 59.4811 99.6594 59.9437 98.3071 59.7773C97.5511 59.6841 94.3103 59.2082 93.8207 58.6192C93.0746 57.7073 95.6892 56.3661 96.5818 55.5973C96.7841 55.452 96.9716 55.287 97.1414 55.1048C97.4745 54.6987 97.4312 54.1297 97.3845 53.6171C97.2151 52.3188 97.1572 51.0083 97.2113 49.7001C97.2373 49.3882 97.2818 49.0781 97.3446 48.7716C97.6776 47.2407 99.1031 47.7998 100.229 48.2058C101.584 48.6456 102.894 49.2128 104.142 49.8997C104.523 50.0956 104.853 50.3756 105.108 50.7184C105.601 51.4639 105.405 52.4424 105.325 53.3809C105.255 54.1097 105.258 54.8086 105.715 55.3377C105.944 55.54 106.155 55.7628 106.344 56.0033C106.451 56.2455 106.477 56.5153 106.421 56.7738C106.364 57.0322 106.226 57.2659 106.028 57.441Z" fill="#FFB9B9"/>
<path d="M73.407 33.4561C73.7401 31.9818 73.8133 30.4609 74.213 28.9999C74.4951 28.05 74.8446 27.1213 75.2589 26.221L76.7277 22.7965C76.862 22.3921 77.1011 22.0305 77.4205 21.7482C77.7629 21.5363 78.1602 21.4298 78.5629 21.442C79.9984 21.3887 81.5072 21.8347 82.4864 22.8897C83.4656 23.9447 83.7754 25.6519 82.996 26.86C82.0634 28.3143 80.0284 28.6072 78.8127 29.8319C78.0366 30.614 77.6603 31.7023 77.4304 32.7772C76.8243 35.5727 77.0274 38.4714 76.8409 41.3269C76.781 42.2155 76.6078 43.2305 75.8417 43.6898C75.3787 43.9165 74.8638 44.0164 74.3496 43.9793L72.1646 44.0159C71.7983 44.0159 70.4694 44.2456 70.2262 43.9693C69.7999 43.4868 70.7724 41.0839 70.949 40.5481C71.342 39.36 71.8249 38.2019 72.2812 37.0337C72.6776 35.9921 73.407 34.5843 73.407 33.4561Z" fill="#FFB9B9"/>
<path d="M118.521 138.009C118.018 139.933 116.506 141.43 115.73 143.264C114.561 146.01 115.087 149.368 113.435 151.85C112.899 152.604 112.251 153.272 111.513 153.83C111.104 154.178 110.657 154.478 110.181 154.726C109.687 154.998 109.107 155.069 108.562 154.925C107.859 154.686 107.436 153.927 107.367 153.195C107.342 152.955 107.342 152.713 107.367 152.473C107.436 151.977 107.548 151.489 107.7 151.012C108.099 149.665 108.498 148.316 108.895 146.965C109.144 146.232 109.305 145.472 109.375 144.702C109.418 143.863 108.885 142.771 109.112 141.989C109.215 141.637 109.601 141.324 109.778 141.028C110.029 140.601 110.221 140.144 110.351 139.666C110.624 138.738 110.81 137.746 111.383 136.964C111.757 136.5 112.194 136.091 112.682 135.749C113.042 135.434 113.464 135.197 113.921 135.054C114.365 134.976 114.82 134.998 115.254 135.117C115.819 135.238 116.375 135.396 116.919 135.59H116.949C117.615 135.829 118.321 136.199 118.531 136.871C118.633 137.244 118.629 137.638 118.521 138.009Z" fill="#3F3D56"/>
<path d="M153.959 97.0942C153.939 97.6101 153.876 98.1858 153.476 98.5087C153.128 98.7311 152.715 98.8286 152.304 98.7849H152.214C151.025 98.7849 149.816 98.7183 148.69 99.0877C147.834 99.3706 147.048 99.8898 146.156 99.993C144.927 100.133 143.771 99.4605 142.682 98.8747C141.656 98.3227 140.603 97.8229 139.528 97.3771C138.821 97.0876 137.379 96.9012 137.04 96.1291C136.923 95.7638 136.825 95.3928 136.746 95.0176C136.691 94.8498 136.623 94.6863 136.543 94.5283C136.343 94.1911 136.216 93.8159 136.17 93.4268C136.172 93.0389 136.306 92.6631 136.55 92.3618C136.822 92.0404 137.154 91.7759 137.529 91.5834C137.903 91.3909 138.312 91.2743 138.732 91.2403C139.571 91.1751 140.415 91.2198 141.243 91.3734L149.443 92.5515C150.076 92.6414 150.712 92.7312 151.335 92.8843C151.926 92.9868 152.484 93.2312 152.96 93.5965C153.929 94.4085 154.009 95.8362 153.959 97.0942Z" fill="#3F3D56"/>
<path d="M146.752 99.2242C145.753 101.331 146.472 103.824 146.292 106.153C146.141 107.462 145.844 108.751 145.406 109.994C145.02 111.232 144.633 112.473 144.141 113.674C143.728 114.673 143.238 115.671 142.855 116.69C142.245 118.314 141.856 120.141 140.62 121.349C140.054 124.071 139.334 127.046 137.093 128.697C135.144 130.135 132.43 130.185 130.155 129.316C127.88 128.448 126.032 126.784 124.403 124.99C122.774 123.196 121.319 121.242 119.57 119.572C118.568 118.632 117.503 117.761 116.383 116.966C115.255 116.147 114.095 115.377 112.902 114.656C112.172 114.157 111.354 113.801 110.491 113.608C109.782 113.472 109.048 113.615 108.442 114.007C108.305 114.101 108.18 114.213 108.073 114.34C107.776 114.755 107.551 115.216 107.407 115.705C106.008 119.345 102.254 121.216 99.2564 123.698L96.5186 125.965C96.1455 126.274 95.7325 126.727 95.9157 127.176C96.0417 127.403 96.2449 127.578 96.4886 127.669C98.0806 128.454 99.9491 128.77 101.261 129.968C101.741 130.408 102.201 130.987 102.85 131.02C103.193 131 103.53 130.925 103.849 130.797C104.351 130.662 104.876 130.644 105.385 130.746C105.894 130.847 106.373 131.065 106.784 131.383C107.017 131.61 107.287 131.796 107.583 131.932C107.831 131.997 108.089 132.013 108.342 131.979C109.052 131.929 109.805 131.865 110.441 132.182C111.077 132.498 111.6 133.243 112.343 133.296C112.706 133.323 113.139 133.203 113.485 133.237C113.58 133.24 113.674 133.265 113.757 133.312C113.84 133.358 113.912 133.423 113.965 133.503C114.042 133.686 114.095 133.878 114.121 134.075C114.258 134.544 114.717 134.831 115.017 135.217C115.477 135.809 115.543 136.614 115.497 137.363C115.346 139.705 114.302 141.899 112.579 143.493C112.09 143.993 111.466 144.34 110.784 144.492C110.442 144.563 110.086 144.526 109.767 144.384C109.448 144.243 109.182 144.004 109.005 143.703C108.931 143.444 108.819 143.197 108.672 142.971C108.136 142.382 106.934 143.008 106.441 142.379C106.134 141.986 106.354 141.357 106.061 140.951C105.768 140.545 105.062 140.618 104.519 140.595C103.883 140.562 103.293 140.262 102.677 140.106C101.678 139.846 100.632 139.942 99.6094 139.873C98.7597 139.798 97.9161 139.664 97.0848 139.473L92.8481 138.608C90.1503 138.059 87.4425 137.503 84.8745 136.521C83.892 136.149 82.9028 135.689 82.21 134.891C81.6515 134.189 81.2925 133.349 81.1708 132.461C80.568 128.91 83.7654 125.875 84.1684 122.297C84.3116 120.993 84.8345 119.761 85.3275 118.55C86.2312 116.385 87.1327 114.218 88.032 112.05C88.1775 111.647 88.3674 111.261 88.5982 110.899C88.9815 110.436 89.4136 110.015 89.8872 109.644C91.1493 108.5 92.0547 107.016 92.4951 105.371C92.5278 105.188 92.6043 105.016 92.7182 104.869C92.8363 104.77 92.966 104.686 93.1046 104.619C93.3425 104.464 93.5214 104.234 93.6127 103.965C93.7039 103.697 93.7021 103.405 93.6075 103.138C93.8143 103.121 94.0081 103.03 94.1536 102.882C94.299 102.735 94.3866 102.539 94.4002 102.333C94.376 102.152 94.3873 101.969 94.4336 101.793C94.5135 101.62 94.7133 101.534 94.8299 101.381C95.0198 101.131 94.9531 100.782 94.9232 100.469C94.9032 100.271 94.9032 100.071 94.9232 99.8732C94.9961 99.1685 95.3116 98.5109 95.8158 98.0128C96.6118 97.2307 97.7442 97.4337 98.8434 97.2474C99.9397 97.0109 101.011 96.6688 102.041 96.2257C104.931 95.0878 107.974 94.3846 111.07 94.139C114.182 93.8945 117.308 94.3918 120.19 95.59C120.609 95.7597 121.004 95.9835 121.365 96.2556C121.622 96.4531 121.832 96.7041 121.982 96.9911C122.104 97.3434 122.256 97.6851 122.435 98.0128C122.791 98.4987 123.464 98.6551 123.853 99.1144C124.243 99.5737 124.276 100.349 124.599 100.918C125.062 101.73 126.135 102.106 126.455 102.988C126.555 103.268 126.568 103.574 126.641 103.863C126.821 104.589 127.361 105.161 127.837 105.734C129.583 107.821 130.701 110.359 131.061 113.055C131.168 111.368 132.303 109.874 133.725 108.942C134.109 108.692 134.552 108.416 134.628 107.964C134.725 107.391 134.168 106.882 134.205 106.3C134.246 106.015 134.36 105.747 134.538 105.521C135.173 104.602 135.87 103.726 136.623 102.902C137.033 102.452 137.492 101.903 137.323 101.311C137.193 100.868 136.74 100.609 136.49 100.223C136.344 99.9925 136.27 99.7245 136.276 99.4522C136.281 99.1799 136.368 98.9153 136.523 98.6917C136.756 98.3756 137.126 98.1459 137.239 97.7699C137.369 97.3272 137.079 96.848 137.169 96.3921C137.291 96.027 137.533 95.7138 137.856 95.5035C138.297 95.1014 138.8 94.7713 139.344 94.5251C140.224 94.1923 141.203 94.3154 142.135 94.4452C143.694 94.6615 145.443 94.9943 146.322 96.2989C146.885 97.1143 147.171 98.3523 146.752 99.2242Z" fill="#3F3D56"/>
<path opacity="0.1" d="M153.959 97.0942C153.939 97.6101 153.876 98.1858 153.476 98.5086C153.128 98.7311 152.715 98.8285 152.304 98.7848H152.214C152.351 98.0926 153.193 97.6966 153.34 96.9944C153.365 96.7787 153.345 96.5601 153.282 96.3523C153.219 96.1445 153.114 95.9518 152.973 95.7863C152.261 94.8245 151.115 94.292 149.976 93.9027C146.758 92.8003 143.31 92.5424 139.964 93.1539C139.054 93.3019 138.169 93.574 137.333 93.9626C137.056 94.1358 136.789 94.3247 136.533 94.5283C136.333 94.1911 136.206 93.8159 136.16 93.4268C136.162 93.0389 136.296 92.6631 136.54 92.3618C136.812 92.0404 137.144 91.7759 137.519 91.5834C137.893 91.3909 138.302 91.2743 138.722 91.2403C139.561 91.1751 140.405 91.2198 141.233 91.3734L149.433 92.5515C150.066 92.6413 150.702 92.7312 151.325 92.8843C151.916 92.9868 152.474 93.2312 152.95 93.5965C153.929 94.4085 154.009 95.8362 153.959 97.0942Z" fill="black"/>
<path opacity="0.1" d="M118.521 138.009C118.018 139.932 116.506 141.43 115.73 143.264C114.561 146.009 115.087 149.367 113.435 151.85C112.899 152.604 112.251 153.272 111.513 153.83C111.104 154.178 110.657 154.478 110.181 154.726C109.687 154.998 109.107 155.069 108.562 154.925C107.859 154.686 107.436 153.927 107.367 153.195C107.342 152.955 107.342 152.713 107.367 152.472L107.387 152.526C107.676 153.225 108.149 153.957 108.895 154.08C109.175 154.1 109.457 154.062 109.721 153.969C109.986 153.876 110.229 153.729 110.434 153.537C111.533 152.655 112.173 151.341 112.782 150.073C113.259 149.159 113.637 148.196 113.908 147.201C114.041 146.635 114.104 146.056 114.241 145.49C114.874 142.741 117.029 140.498 117.505 137.713C117.544 137.521 117.553 137.325 117.532 137.13C117.469 136.877 117.373 136.633 117.245 136.405C117.13 136.147 117.045 135.877 116.992 135.599C117.658 135.839 118.364 136.208 118.574 136.881C118.66 137.255 118.642 137.645 118.521 138.009Z" fill="black"/>
<path opacity="0.1" d="M113.492 133.236C113.183 134.042 112.665 134.75 111.99 135.287C111.041 136.008 109.931 136.488 108.755 136.684C108.208 136.824 107.634 136.817 107.09 136.664C106.351 136.408 105.818 135.716 105.062 135.516C104.522 135.37 103.943 135.5 103.396 135.42C102.414 135.283 101.651 134.534 100.858 133.935C98.4304 132.112 95.2429 131.523 92.8149 129.699C92.7067 129.632 92.6173 129.54 92.5551 129.429C92.5086 129.31 92.4914 129.181 92.5051 129.053C92.5141 127.947 92.763 126.856 93.2345 125.855C93.6207 125.157 94.0808 124.502 94.6068 123.901C96.7817 121.239 98.9666 118.557 101.571 116.31C102.664 115.368 103.856 114.49 105.235 114.064C106.001 113.827 107.513 113.604 108.446 114.004C108.308 114.098 108.184 114.21 108.076 114.337C107.78 114.751 107.554 115.212 107.41 115.701C106.008 119.345 102.254 121.216 99.2564 123.698L96.5186 125.965C96.1456 126.274 95.7325 126.727 95.9157 127.176C96.0417 127.403 96.2449 127.578 96.4886 127.669C98.0807 128.454 99.9492 128.77 101.261 129.968C101.741 130.408 102.201 130.987 102.85 131.02C103.193 131 103.53 130.925 103.849 130.797C104.351 130.662 104.876 130.644 105.385 130.746C105.894 130.847 106.373 131.065 106.784 131.383C107.017 131.61 107.287 131.796 107.583 131.932C107.831 131.997 108.089 132.013 108.342 131.979C109.052 131.929 109.805 131.865 110.441 132.182C111.077 132.498 111.6 133.243 112.343 133.296C112.712 133.323 113.145 133.197 113.492 133.236Z" fill="black"/>
<path d="M82.8595 88.0688C82.2266 88.4748 81.5538 88.9341 81.294 89.6396C81.0809 90.2153 81.1808 90.8743 80.9243 91.4334C80.6679 91.9925 80.0917 92.3819 79.9651 92.9809C79.8752 93.4169 80.0517 93.8762 79.9651 94.3121C79.8897 94.5388 79.8285 94.77 79.7819 95.0044C79.7486 95.5002 80.1749 95.9029 80.5913 96.1791C81.4777 96.7552 82.4869 97.1155 83.5379 97.2311C84.589 97.3467 85.6525 97.2144 86.6431 96.8447C87.5324 96.5119 88.3351 95.9695 89.1877 95.5435C90.0192 95.0651 90.9703 94.8341 91.9289 94.8779C92.4784 94.9378 93.0047 95.1375 93.5542 95.2107C93.8256 95.2643 94.106 95.2511 94.3712 95.1722C94.6364 95.0934 94.8784 94.9512 95.0763 94.7581C95.2461 94.524 95.36 94.2542 95.4094 93.9693C95.8724 92.1423 95.6625 90.2054 95.2229 88.3683C94.7832 86.5312 94.1171 84.7641 93.6475 82.937C93.3144 81.5825 93.0579 80.1947 92.5017 78.9134C91.9455 77.6321 91.0096 76.4407 89.7006 75.9515C89.5974 75.9009 89.4803 75.8856 89.3676 75.9082C89.2836 75.9433 89.2093 75.9981 89.1511 76.068C88.1157 77.1644 87.3355 78.4758 86.8662 79.9085C86.3433 81.5026 86.2001 83.1932 85.7205 84.794C85.514 85.4596 85.2475 86.3515 84.7213 86.8607C84.195 87.3699 83.4556 87.6861 82.8595 88.0688Z" fill="#3F3D56"/>
<path opacity="0.1" d="M95.4194 93.9594C95.3635 94.2452 95.244 94.5148 95.0697 94.7481C94.8722 94.9419 94.6301 95.0842 94.3647 95.1626C94.0993 95.2409 93.8187 95.2529 93.5475 95.1974C93.0013 95.1308 92.4751 94.9278 91.9255 94.8646C90.9669 94.8203 90.0157 95.0512 89.1844 95.5302C88.3317 95.9562 87.5191 96.4853 86.6364 96.8281C85.3453 97.3173 83.9347 97.3975 82.5963 97.0578C81.8855 96.8792 81.2099 96.5822 80.5979 96.1792C80.1783 95.9063 79.7553 95.5136 79.7886 95.0044C79.8352 94.7711 79.8964 94.5411 79.9718 94.3155C80.0584 93.8795 79.8852 93.4202 79.9718 92.9843C80.0983 92.3852 80.6779 91.9859 80.931 91.4334C81.1841 90.881 81.0876 90.2187 81.2974 89.6429C81.5572 88.9341 82.2333 88.4781 82.8661 88.0688C83.4989 87.6594 84.2517 87.3466 84.7579 86.8507C84.8233 86.7735 84.8824 86.6912 84.9345 86.6044C85.2995 86.0418 85.5675 85.422 85.7272 84.7707C86.2168 83.1666 86.35 81.4793 86.8696 79.8818C87.3408 78.4503 88.1221 77.1402 89.1577 76.0446C89.2131 75.9732 89.2868 75.918 89.3709 75.8849C89.4833 75.862 89.6001 75.876 89.704 75.9248C91.0096 76.4174 91.9455 77.6088 92.5051 78.8901C93.0646 80.1714 93.3011 81.5525 93.6508 82.9103C94.1171 84.7374 94.7866 86.5113 95.2262 88.345C95.6659 90.1787 95.8823 92.129 95.4194 93.9594Z" fill="black"/>
<path opacity="0.1" d="M105.325 53.3709C103.759 53.8681 102.064 53.7694 100.566 53.0936C99.0684 52.4179 97.8736 51.2128 97.2112 49.7101C97.2372 49.3982 97.2817 49.0882 97.3445 48.7816C97.6775 47.2507 99.1031 47.8098 100.229 48.2158C101.584 48.6557 102.894 49.2228 104.142 49.9098C104.523 50.1056 104.853 50.3856 105.108 50.7285C105.601 51.4639 105.405 52.4424 105.325 53.3709Z" fill="black"/>
<path d="M103.313 53.3508C106.992 53.3508 109.974 50.3708 109.974 46.6947C109.974 43.0187 106.992 40.0387 103.313 40.0387C99.6341 40.0387 96.6517 43.0187 96.6517 46.6947C96.6517 50.3708 99.6341 53.3508 103.313 53.3508Z" fill="#FFB9B9"/>
<path opacity="0.1" d="M121.389 96.4352C121.389 96.9877 120.639 97.1641 120.083 97.1341C118.085 97.0177 116.13 96.4685 114.151 96.6349C111.65 96.8612 109.352 98.2424 106.844 98.3688C105.878 98.4187 104.895 98.2756 103.943 98.452C102.71 98.6817 101.611 99.4305 100.355 99.537C99.2664 99.6301 98.1906 99.2208 97.1014 99.2641C96.34 99.3094 95.5976 99.5207 94.9265 99.8831C94.9994 99.1784 95.3149 98.5208 95.8191 98.0227C96.6152 97.2406 97.7476 97.4436 98.8467 97.2573C99.9431 97.0208 101.014 96.6786 102.044 96.2356C104.934 95.0977 107.977 94.3945 111.074 94.1489C114.184 93.9017 117.308 94.3956 120.19 95.5899C120.609 95.7596 121.004 95.9834 121.365 96.2555C121.384 96.3136 121.391 96.3744 121.389 96.4352Z" fill="black"/>
<path d="M100.232 58.8487L97.5344 57.8503L96.3953 57.4309C95.9311 57.2366 95.4426 57.1067 94.9431 57.0449C93.6375 56.9451 92.4085 57.8137 91.7124 58.9219C91.0163 60.0301 90.7531 61.3513 90.53 62.6393C90.2236 64.4009 89.9638 66.1692 89.7506 67.9441C89.5211 69.547 89.4042 71.1639 89.4009 72.7831C89.4775 76.9032 90.3501 80.9667 91.3094 84.9769C91.7792 86.755 92.1341 88.5614 92.3719 90.3849C92.4518 91.1371 92.4884 91.8925 92.5683 92.648C92.6549 93.4966 92.7948 94.3353 92.9347 95.1773L93.7374 99.9596C94.7366 99.2508 95.8724 98.6284 97.1014 98.5918C98.1905 98.5519 99.2697 98.9579 100.355 98.8647C101.604 98.7616 102.71 98.0128 103.943 97.7831C104.895 97.6067 105.878 97.7465 106.847 97.6999C109.352 97.5735 111.653 96.189 114.151 95.966C116.133 95.7863 118.101 96.3454 120.086 96.4619C120.639 96.4952 121.389 96.3188 121.389 95.763C121.389 95.377 121.002 95.1207 120.666 94.9277C119.08 93.9737 117.571 92.8977 116.153 91.7095C114.841 90.6712 113.508 89.6062 112.606 88.2018C110.431 84.8238 111.177 80.2545 109.322 76.6902C107.813 73.7948 109.322 70.0009 109.322 66.7361C109.322 65.1087 109.322 63.4613 108.939 61.8805C108.699 60.9963 108.401 60.1291 108.046 59.2846L106.75 56.0066C106.723 55.9108 106.67 55.8243 106.597 55.757C106.51 55.697 106.406 55.6656 106.301 55.6671C105.523 55.6205 104.755 55.8662 104.149 56.356C103.54 56.8519 103.15 57.5641 102.55 58.0799C101.894 58.649 101.048 59.1482 100.232 58.8487Z" fill="#E3E8F4"/>
<path d="M104.585 56.9582C104.799 56.0463 105.028 55.0978 105.638 54.3856C106.247 53.6734 107.36 53.2973 108.146 53.8065C109.038 54.3856 109.075 55.7235 109.838 56.4689C110.504 57.1079 111.503 57.1578 112.409 57.241C114.038 57.3892 115.638 57.7656 117.162 58.3592C117.459 58.4513 117.73 58.6134 117.951 58.8318C118.368 59.3044 118.284 60.0299 118.491 60.619C118.774 61.3778 119.557 61.8603 119.86 62.6158C120.193 63.4544 119.86 64.3929 119.58 65.2549C119.077 66.8024 118.761 68.4099 118.271 69.964C117.782 71.5182 117.085 73.0491 115.94 74.2206C115.433 74.7397 114.681 75.219 114.015 74.9095L113.758 76.7565C113.683 77.1468 113.683 77.5477 113.758 77.938C113.797 78.1332 113.89 78.3136 114.026 78.4584C114.163 78.6033 114.338 78.7066 114.531 78.7567C114.581 79.0429 114.884 79.1793 115.13 79.3357C115.312 79.46 115.468 79.6192 115.588 79.804C115.707 79.9888 115.789 80.1955 115.829 80.4122C115.868 80.6289 115.864 80.8513 115.817 81.0664C115.769 81.2815 115.68 81.4851 115.553 81.6653C115.343 81.9482 115.034 82.1712 114.934 82.5073C114.784 82.9932 115.14 83.5057 115.573 83.772C116.006 84.0382 116.516 84.1614 116.955 84.4176C117.868 84.9434 118.358 85.9785 118.671 86.9835C118.904 87.7423 119.097 88.5643 119.67 89.1168C119.89 89.3264 120.153 89.4862 120.363 89.7058C120.726 90.1346 120.936 90.6721 120.959 91.2334C121.05 91.929 120.897 92.6347 120.526 93.2302C119.86 94.182 118.617 94.4649 117.528 94.8942C115.76 95.6197 114.304 96.9176 112.746 98.0225C112.111 98.5334 111.363 98.8849 110.564 99.0476C109.485 99.1907 108.422 98.7148 107.337 98.6715C106.687 98.6775 106.04 98.7625 105.411 98.9244L103.413 99.3571C103.52 97.8096 102.667 96.2587 102.191 94.7844C101.291 92.0088 101.125 89.0402 101.338 86.1315C101.551 83.2228 102.144 80.3541 102.73 77.4987C103.14 75.5019 103.1 73.4152 103.729 71.475C104.319 69.6079 105.162 67.8141 105.471 65.8706C105.978 62.7256 103.873 60.0599 104.585 56.9582Z" fill="#3F3D56"/>
<path d="M119.737 63.112C119.92 63.4502 120.05 63.8152 120.12 64.1936C120.274 64.7799 120.562 65.3222 120.962 65.7777C121.297 66.0731 121.595 66.4084 121.848 66.7762C122.155 67.3552 122.038 68.0608 122.181 68.6931C122.348 69.382 122.831 69.981 122.901 70.6899C122.903 70.893 122.922 71.0956 122.957 71.2956C123.174 72.101 124.36 72.294 124.623 73.0994C124.799 73.6219 124.496 74.191 124.553 74.7401C124.594 74.9099 124.604 75.0858 124.583 75.2593C124.507 75.4554 124.375 75.6246 124.203 75.7452C123.101 76.7974 122.338 78.1543 122.012 79.6423C121.691 81.1221 121.522 82.6309 121.509 84.1451L120.206 82.4245C120.068 82.2157 119.892 82.0351 119.687 81.892C119.52 81.7922 119.327 81.7422 119.157 81.6424C118.664 81.3628 118.471 80.7705 118.281 80.238C117.754 78.764 116.964 77.3975 115.95 76.2044C115.42 75.5821 114.804 74.9564 114.687 74.1477C114.652 73.7763 114.673 73.4017 114.747 73.0362C115.08 70.8563 115.437 68.6232 116.499 66.6896C116.996 65.7844 117.638 64.9657 118.115 64.0472C118.434 63.4381 118.884 61.854 119.737 63.112Z" fill="#3F3D56"/>
<path d="M86.8796 65.2051C86.8858 65.4852 86.8143 65.7617 86.6731 66.0038C86.5457 66.1512 86.3799 66.2604 86.194 66.3191C86.0082 66.3779 85.8097 66.384 85.6206 66.3366C85.2414 66.2415 84.8841 66.0743 84.5681 65.8441C83.64 65.2583 82.7118 64.6715 81.7837 64.0835C81.2655 63.7715 80.7661 63.4292 80.2882 63.0585C79.5577 62.4423 78.8955 61.7494 78.3131 60.9918C76.6944 58.995 75.2622 56.8285 73.4603 55.0014C72.9707 54.5022 72.4611 54.0229 71.9882 53.5004C71.3417 52.7452 70.7475 51.9468 70.2096 51.1109C69.69 50.3422 69.1504 49.4902 69.2403 48.5717C69.2936 48.0525 69.5434 47.5733 69.6167 47.0574C69.69 46.5416 69.4935 45.9126 68.9939 45.7728C68.9348 45.758 68.8747 45.7479 68.814 45.7428C68.7154 45.7324 68.6182 45.7112 68.5242 45.6796C68.0613 45.4866 68.1312 44.7711 68.4643 44.395C68.7974 44.0189 69.2903 43.8093 69.5934 43.3966C69.7344 43.1517 69.8924 42.9171 70.0663 42.6944C70.2894 42.5033 70.5558 42.3696 70.8424 42.305C72.7636 41.7393 74.7959 41.6626 76.7544 42.082C77.0874 42.1552 77.4671 42.2884 77.567 42.6112C77.6069 42.7684 77.6069 42.9332 77.567 43.0904C77.4202 43.7466 77.3354 44.4152 77.3139 45.0872C77.3134 45.2273 77.3212 45.3674 77.3372 45.5066C77.4938 46.9176 78.4097 48.1124 79.3023 49.214C80.3615 50.5252 81.4373 51.8264 82.5164 53.1244C83.1 53.8765 83.7523 54.5728 84.4649 55.2044C85.131 55.7568 85.9937 56.2028 86.5133 56.9117C86.9363 57.4841 86.7997 58.2662 86.8463 58.9551C87.0012 61.0352 87.0124 63.1235 86.8796 65.2051Z" fill="#3F3D56"/>
<path d="M129.179 79.0897C129.508 78.7701 129.805 78.419 130.065 78.0414C130.345 77.5734 130.569 77.0741 130.731 76.5537L132.663 71.0792C132.969 70.2139 133.276 69.3453 133.662 68.5033C134.062 67.5947 134.535 66.7195 134.971 65.8409C136.093 63.5287 136.961 61.1017 137.559 58.6024C137.664 58.259 137.699 57.898 137.662 57.5408C137.569 56.9651 137.133 56.5158 136.716 56.1064C136.298 55.6546 135.821 55.2606 135.298 54.935C135.035 54.7718 134.742 54.6624 134.437 54.6133C134.132 54.5641 133.82 54.5762 133.519 54.6488C132.666 54.8984 132.13 55.7703 131.934 56.6456C131.737 57.5208 131.81 58.4161 131.727 59.308C131.607 60.5859 131.168 61.8206 131.061 63.1019C131.004 63.8441 131.061 64.5929 130.971 65.3317C130.807 66.3019 130.469 67.2344 129.972 68.0839C128.89 70.1077 127.428 71.9043 125.665 73.3755C125.183 73.7316 124.748 74.1489 124.373 74.6168C124.06 75.0849 123.848 75.6131 123.75 76.1677C123.529 77.0122 123.625 77.9084 124.02 78.687C124.563 79.6122 125.605 80.0182 126.601 80.2245C127.947 80.5041 128.257 80.0448 129.179 79.0897Z" fill="#FFB9B9"/>
<path d="M103.353 37.0501C103.64 36.5117 104.079 36.0697 104.616 35.7791C105.152 35.4885 105.763 35.3622 106.371 35.4161C106.983 35.5244 107.553 35.802 108.015 36.2172C108.478 36.6325 108.815 37.1689 108.988 37.7657C109.145 38.2615 109.208 38.8107 109.481 39.2366C109.894 39.8789 110.661 40.0653 111.233 40.5312C111.575 40.8487 111.851 41.2313 112.043 41.6565C112.235 42.0817 112.34 42.5409 112.352 43.0073C112.384 43.9599 112.234 44.9098 111.909 45.8061C111.772 46.1886 111.661 46.58 111.576 46.9776C111.51 47.3636 111.503 47.7563 111.443 48.1424C111.369 48.643 111.196 49.1237 110.934 49.5564C110.671 49.989 110.325 50.3649 109.914 50.6617C109.798 50.7569 109.652 50.8097 109.501 50.8115C109.242 50.7815 109.082 50.4787 108.985 50.2058C108.456 48.6782 108.582 46.8112 107.606 45.5931C107.162 45.1018 106.626 44.7026 106.028 44.4184C105.784 44.2611 105.509 44.1578 105.222 44.1155C104.799 44.1382 104.393 44.2865 104.056 44.5415C103.353 45.0126 102.573 45.3573 101.751 45.5599C101.341 45.6569 100.914 45.6613 100.502 45.5726C100.09 45.484 99.7033 45.3045 99.3695 45.0473C98.9099 44.668 98.5735 44.0989 98.0639 43.8027C97.5543 43.5065 97.0214 43.5231 96.5185 43.3201C96.198 43.1839 95.9128 42.9764 95.6847 42.7134C95.4566 42.4503 95.2916 42.1388 95.2023 41.8024C95.113 41.466 95.1018 41.1137 95.1694 40.7723C95.237 40.4309 95.3818 40.1094 95.5926 39.8323C95.9256 39.433 96.4186 39.2067 96.715 38.7641C97.098 38.1916 97.0647 37.4062 97.2479 36.7207C97.3563 36.2869 97.5667 35.8853 97.8615 35.549C98.1563 35.2127 98.5272 34.9515 98.9432 34.7871C99.3467 34.6502 99.7796 34.6239 100.197 34.7112C100.614 34.7984 101 34.9959 101.315 35.283C101.648 35.5825 101.914 35.9685 102.241 36.2814C102.563 36.5896 102.957 36.812 103.388 36.9283C103.819 37.0446 104.272 37.051 104.705 36.947" fill="#3F3D56"/>
<path opacity="0.1" d="M108.829 86.0353C108.635 86.2078 108.497 86.4347 108.434 86.6864C108.371 86.9381 108.386 87.2029 108.476 87.4464C108.549 87.6028 111.986 86.9405 112.349 86.8906C113.255 86.7608 114.844 86.824 115.453 85.9954C116.539 84.5277 113.175 84.8539 112.559 84.9071C111.387 85.0069 109.721 85.1667 108.829 86.0353Z" fill="black"/>
<path d="M77.5604 43.1037C77.4135 43.7599 77.3287 44.4285 77.3072 45.1005C76.308 45.3035 75.2689 44.9707 74.3096 44.6379L71.5552 43.6994C71.3876 43.5924 71.1856 43.5532 70.9901 43.5897C70.7946 43.6261 70.6203 43.7356 70.5027 43.8958C70.0597 44.355 69.4502 45.227 68.8373 45.7428C68.7387 45.7324 68.6415 45.7112 68.5476 45.6796C68.0846 45.4866 68.1545 44.771 68.4876 44.395C68.8207 44.0189 69.3136 43.8093 69.6167 43.3966C69.7577 43.1517 69.9157 42.9171 70.0897 42.6944C70.3127 42.5033 70.5791 42.3696 70.8657 42.305C72.7869 41.7393 74.8192 41.6626 76.7777 42.082C77.1107 42.1552 77.4904 42.2884 77.5904 42.6112C77.6228 42.7752 77.6125 42.9448 77.5604 43.1037Z" fill="#3F3D56"/>
<path opacity="0.1" d="M77.5604 43.1037C77.4135 43.7599 77.3287 44.4285 77.3072 45.1005C76.308 45.3035 75.2689 44.9707 74.3096 44.6379L71.5552 43.6994C71.3876 43.5924 71.1856 43.5532 70.9901 43.5897C70.7946 43.6261 70.6203 43.7356 70.5027 43.8958C70.0597 44.355 69.4502 45.227 68.8373 45.7428C68.7387 45.7324 68.6415 45.7112 68.5476 45.6796C68.0846 45.4866 68.1545 44.771 68.4876 44.395C68.8207 44.0189 69.3136 43.8093 69.6167 43.3966C69.7577 43.1517 69.9157 42.9171 70.0897 42.6944C70.3127 42.5033 70.5791 42.3696 70.8657 42.305C72.7869 41.7393 74.8192 41.6626 76.7777 42.082C77.1107 42.1552 77.4904 42.2884 77.5904 42.6112C77.6228 42.7752 77.6125 42.9448 77.5604 43.1037Z" fill="black"/>
<path opacity="0.1" d="M102.757 106.286C103.237 106.446 103.756 106.679 103.919 107.158L100.062 106.18L98.064 105.67C97.7109 105.581 96.4453 105.477 96.2121 105.201C95.8791 104.795 97.0614 105.075 97.2746 105.105C97.9208 105.201 98.5669 105.301 99.2097 105.418C100.422 105.634 101.588 105.99 102.757 106.286Z" fill="black"/>
<path opacity="0.1" d="M104.252 109.698C103.919 109.475 102.963 109.501 102.554 109.405C101.954 109.262 101.365 109.072 100.775 108.889C99.5794 108.499 98.3937 108.057 97.1647 107.771C96.9382 107.721 96.1655 107.707 96.2021 107.421C96.2388 107.135 96.9748 107.035 97.158 107.022C98.2472 106.942 99.6061 107.451 100.619 107.814C101.909 108.276 103.131 108.909 104.252 109.698Z" fill="black"/>
<path opacity="0.1" d="M101.808 103.245C100.585 102.912 99.4762 102.153 98.2172 102.007C97.8891 102.019 97.5664 101.921 97.3013 101.727C97.1533 101.582 97.0503 101.397 97.0048 101.195C97.8475 101.151 98.8267 101.507 99.5928 101.844C100.014 102.024 100.42 102.24 100.805 102.489C101.085 102.659 101.505 103.148 101.808 103.245Z" fill="black"/>
<path d="M125.109 73.4455C124.902 74.8291 125.201 76.2408 125.951 77.4222C126.701 78.6035 127.852 79.4755 129.192 79.8785C129.029 80.6673 128.213 81.1032 127.637 81.6657C126.824 82.4544 126.405 83.6359 125.445 84.2349C124.376 84.9005 123.001 84.6409 121.782 84.3614C121.671 84.349 121.569 84.2955 121.495 84.2116C121.47 84.1717 121.452 84.1278 121.442 84.0818C121.039 82.6075 120.776 81.0334 121.189 79.5557C121.522 78.2977 122.321 77.2261 122.961 76.1145C123.6 75.003 123.66 73.8115 125.109 73.4455Z" fill="#3F3D56"/>
<path d="M95.3295 54.3627C94.0403 54.4564 92.7884 54.8374 91.6658 55.4776C90.9197 55.9035 90.1536 56.476 89.301 56.3728C88.7981 56.3162 88.3018 56.04 87.8122 56.1731C87.5364 56.2843 87.2792 56.4369 87.0495 56.6257C86.933 56.7184 86.7944 56.7794 86.6473 56.8027C86.5003 56.826 86.3496 56.8109 86.2101 56.7588L85.8771 61.3648C85.7505 63.1153 85.6273 64.9025 86.0469 66.6098C86.2634 67.4817 86.7397 68.2738 86.793 69.159C86.8463 70.0443 86.7664 70.9528 86.8296 71.8481C86.8896 72.6767 87.0728 73.4921 87.1194 74.3208C87.2127 75.8849 86.8263 77.4358 86.4533 78.9567C85.8904 81.1998 85.5507 83.4928 84.4549 85.5229C84.1484 86.0853 83.7887 86.6577 83.7887 87.2967C83.7887 87.3766 83.7887 87.4531 83.8087 87.5297C83.4757 87.7127 83.1659 87.8858 82.8828 88.0655C82.25 88.4748 81.5738 88.9307 81.3141 89.6396C81.1042 90.2154 81.2008 90.8743 80.9477 91.4301C80.6946 91.9859 80.115 92.3819 79.9885 92.9809C79.8985 93.4169 80.0717 93.8762 79.9885 94.3121C79.913 94.5377 79.8518 94.7678 79.8053 95.001C79.7719 95.5003 80.195 95.9029 80.6146 96.1758C81.2266 96.5789 81.9022 96.8759 82.613 97.0544L84.6014 89.167C86.4143 85.8178 87.9225 82.3126 89.1078 78.6938C89.4469 77.5109 89.8825 76.3577 90.4101 75.246C90.7871 74.617 91.1209 73.9632 91.4093 73.2891C91.7124 72.4504 91.7424 71.5419 91.8889 70.6566C92.0629 69.6234 92.3247 68.6069 92.6716 67.6182C93.0313 66.5499 93.4477 65.4849 93.521 64.3634C93.6309 62.7593 93.048 61.0653 93.6675 59.581C93.9305 59.0254 94.2727 58.5109 94.6834 58.0534C95.5427 57.0018 96.3254 55.9002 97.1847 54.8486C96.7384 54.3727 95.9956 54.3227 95.3295 54.3627Z" fill="#3F3D56"/>
<g opacity="0.1">
<path opacity="0.1" d="M104.715 35.9553L104.299 35.9853L104.252 36.0186C104.408 36.0122 104.563 35.991 104.715 35.9553Z" fill="black"/>
<path opacity="0.1" d="M112.336 42.8642C112.266 43.5258 112.123 44.1777 111.91 44.8077C111.772 45.1902 111.661 45.5816 111.576 45.9792C111.51 46.3652 111.503 46.7579 111.443 47.144C111.369 47.6446 111.196 48.1253 110.934 48.558C110.671 48.9906 110.325 49.3664 109.914 49.6633C109.798 49.7584 109.652 49.8112 109.501 49.8131C109.242 49.7831 109.082 49.4803 108.985 49.2074C108.456 47.6798 108.582 45.8128 107.606 44.5947C107.162 44.1034 106.626 43.7042 106.028 43.4199C105.784 43.2627 105.509 43.1594 105.222 43.1171C104.799 43.1398 104.393 43.2881 104.056 43.5431C103.353 44.0142 102.573 44.3589 101.751 44.5615C101.341 44.6585 100.914 44.6629 100.502 44.5742C100.09 44.4856 99.7033 44.3061 99.3696 44.0489C98.91 43.6695 98.5735 43.1005 98.064 42.8043C97.5544 42.5081 97.0215 42.5247 96.5185 42.3217C96.2044 42.1876 95.9245 41.9846 95.6996 41.7276C95.4747 41.4707 95.3106 41.1664 95.2196 40.8374C95.2078 40.7959 95.1989 40.7536 95.1929 40.7109C95.1097 41.0824 95.1188 41.4687 95.2196 41.8358C95.3106 42.1648 95.4747 42.4691 95.6996 42.726C95.9245 42.983 96.2044 43.186 96.5185 43.3201C97.0215 43.5231 97.5877 43.5264 98.064 43.8027C98.5402 44.0789 98.91 44.6679 99.3696 45.0473C99.7033 45.3045 100.09 45.484 100.502 45.5726C100.914 45.6613 101.341 45.6569 101.751 45.5599C102.573 45.3573 103.353 45.0126 104.056 44.5415C104.393 44.2865 104.799 44.1382 105.222 44.1155C105.509 44.1578 105.784 44.2611 106.028 44.4183C106.618 44.7081 107.147 45.1106 107.583 45.6031C108.559 46.8212 108.432 48.6882 108.962 50.2157C109.059 50.492 109.218 50.7915 109.478 50.8214C109.638 50.8223 109.793 50.7656 109.914 50.6617C110.326 50.364 110.674 49.9868 110.937 49.5523C111.2 49.1178 111.374 48.635 111.447 48.1324C111.507 47.7464 111.513 47.3537 111.58 46.9676C111.664 46.57 111.775 46.1786 111.913 45.7961C112.237 44.8998 112.388 43.9499 112.356 42.9973C112.349 42.9573 112.343 42.9108 112.336 42.8642Z" fill="black"/>
</g>
<path d="M70.7093 0.0364859C70.7093 0.0364859 42.6683 -1.65414 45.9657 17.9812C45.9657 17.9812 45.2995 21.4523 48.457 23.0264C48.457 23.0264 48.507 21.5721 51.3347 22.068C52.3415 22.2347 53.3642 22.2838 54.3823 22.2144C55.7577 22.1195 57.0648 21.5798 58.106 20.6768C58.106 20.6768 65.9897 17.422 69.0539 4.54928C69.0539 4.54928 71.3221 1.74043 71.2322 1.01825L66.4993 3.03836C66.4993 3.03836 68.118 6.44957 66.8324 9.28504C66.8324 9.28504 66.6792 3.16149 65.7699 3.29461C65.5867 3.32457 63.3118 4.47606 63.3118 4.47606C63.3118 4.47606 66.093 10.4166 63.9946 14.7363C63.9946 14.7363 64.7907 7.4147 62.4425 4.90537L59.1118 6.84894C59.1118 6.84894 62.3626 12.9858 60.1577 17.9945C60.1577 17.9945 60.7239 10.3134 58.4091 7.32152L55.3915 9.67442C55.3915 9.67442 58.4457 15.7248 56.5839 19.8781C56.5839 19.8781 56.3407 10.9357 54.7387 10.2602C54.7387 10.2602 52.0975 12.5898 51.6944 13.5416C51.6944 13.5416 53.7861 17.9346 52.4872 20.2509C52.4872 20.2509 51.6911 14.2937 51.0383 14.2604C51.0383 14.2604 48.4071 18.2075 48.134 20.9165C48.134 20.9165 48.2472 16.8929 50.4021 13.8877C50.4021 13.8877 47.8575 14.3237 46.372 15.971C46.372 15.971 46.7817 13.1821 51.0516 12.9392C51.0516 12.9392 53.2265 9.94399 53.8061 9.76095C53.8061 9.76095 49.5628 9.40818 46.9882 10.5464C46.9882 10.5464 49.2531 7.9139 54.5855 9.11198L57.5664 6.67921C57.5664 6.67921 51.9775 5.91709 49.6061 6.75908C49.6061 6.75908 52.3339 4.42947 58.3691 6.12675L61.6132 4.18985C61.6132 4.18985 56.847 3.16482 54.0093 3.52425C54.0093 3.52425 57.0069 1.91016 62.5658 3.6607L64.8973 2.61903C64.8973 2.61903 61.4067 1.93346 60.3842 1.82363C59.3617 1.71381 59.3084 1.43425 59.3084 1.43425C61.5198 1.06579 63.7901 1.31811 65.8665 2.16309C65.8665 2.16309 70.7959 0.345991 70.7093 0.0364859Z" fill="#03A803"/>
<path d="M36.1236 5.03202C36.1236 5.03202 23.467 4.26657 24.9491 13.1391C24.9491 13.1391 24.6527 14.7099 26.0716 15.4221C26.0716 15.4221 26.0949 14.7565 27.3739 14.9861C27.8282 15.0625 28.2899 15.0848 28.7494 15.0527C29.3711 15.0105 29.9618 14.7662 30.4314 14.3571C30.4314 14.3571 33.9953 12.8895 35.3808 7.07209C35.3808 7.07209 36.4034 5.80079 36.3634 5.47464L34.2251 6.38652C34.2251 6.38652 34.9578 7.93072 34.3816 9.212C34.3816 9.212 34.3117 6.4431 33.902 6.50966C33.8188 6.50966 32.7896 7.04214 32.7896 7.04214C32.7896 7.04214 34.0486 9.72785 33.0993 11.6814C33.0993 11.6814 33.459 8.37335 32.3966 7.23849L30.8911 8.11709C30.8911 8.11709 32.3632 10.8893 31.364 13.1524C31.364 13.1524 31.6205 9.68126 30.5747 8.33008L29.2124 9.40503C29.2124 9.40503 30.5913 12.1407 29.752 14.0143C29.752 14.0143 29.6421 9.97412 28.916 9.67127C28.916 9.67127 27.7236 10.7229 27.5404 11.1556C27.5404 11.1556 28.4863 13.1524 27.9001 14.1841C27.9001 14.1841 27.5404 11.4917 27.234 11.4817C27.234 11.4817 26.0483 13.2655 25.9217 14.4769C25.9811 13.3464 26.3347 12.2509 26.9476 11.2987C26.2614 11.4285 25.6281 11.7559 25.1257 12.2405C25.1257 12.2405 25.3122 10.9825 27.2407 10.8694C27.2407 10.8694 28.2399 9.51818 28.4863 9.43498C28.4863 9.43498 26.5679 9.27524 25.4054 9.79108C25.4054 9.79108 26.428 8.59965 28.8394 9.12548L30.1717 8.02723C30.1717 8.02723 27.647 7.69443 26.5745 8.06384C26.5745 8.06384 27.8069 7.01219 30.5347 7.77763L32.0002 6.90236C32.0002 6.90236 29.8486 6.43644 28.5629 6.60617C28.5629 6.60617 29.9185 5.87401 32.4299 6.66607L33.479 6.19682C33.479 6.19682 31.9003 5.88399 31.4373 5.8374C30.9743 5.7908 30.951 5.66101 30.951 5.66101C31.9509 5.49481 32.9773 5.61005 33.9153 5.99381C33.9153 5.99381 36.1636 5.17179 36.1236 5.03202Z" fill="#03A803"/>
<path d="M67.0121 136.638C74.4087 136.638 80.4048 135.625 80.4048 134.375C80.4048 133.125 74.4087 132.112 67.0121 132.112C59.6156 132.112 53.6195 133.125 53.6195 134.375C53.6195 135.625 59.6156 136.638 67.0121 136.638Z" fill="#03A803"/>
<path d="M72.5511 130.674C73.1625 130.176 73.6076 129.504 73.8267 128.747C73.9933 127.985 73.6668 127.083 72.9341 126.787C72.1147 126.474 71.2388 127.043 70.576 127.616C69.9132 128.188 69.1505 128.844 68.2845 128.72C68.7307 128.315 69.0646 127.802 69.2537 127.23C69.4428 126.658 69.4806 126.047 69.3636 125.456C69.3257 125.211 69.2221 124.981 69.0638 124.79C68.6075 124.304 67.7849 124.511 67.2386 124.893C65.5067 126.111 65.0237 128.464 65.0138 130.577C64.8406 129.815 64.9871 129.02 64.9838 128.248C64.9804 127.476 64.764 126.584 64.1011 126.175C63.6924 125.955 63.2328 125.847 62.7689 125.862C61.9928 125.832 61.1235 125.912 60.5939 126.481C59.9278 127.186 60.1043 128.371 60.6772 129.143C61.2501 129.915 62.1261 130.411 62.9321 130.947C63.5769 131.331 64.1267 131.855 64.5408 132.481C64.5907 132.569 64.6309 132.661 64.6607 132.757H69.5435C70.6355 132.202 71.6472 131.501 72.5511 130.674Z" fill="#03A803"/>
<path d="M67.1445 87.2935L67.023 88.9237C67.0051 89.1451 66.5816 94.4161 63.4579 100.576C60.7774 105.86 55.5612 112.741 45.7131 116.609C44.9447 116.913 44.1471 117.196 43.3203 117.459L42.3982 114.566C44.7131 113.838 46.943 112.864 49.0494 111.659C54.069 108.763 57.9718 104.63 60.6934 99.3104C62.1374 96.4783 63.1665 93.4536 63.7492 90.329H52.5447V87.2935H67.1445Z" fill="#03A803"/>
<path opacity="0.1" d="M44.5068 116.611C54.3532 112.743 59.5712 105.863 62.2499 100.58C65.3735 94.4196 65.7989 89.1521 65.8149 88.9272L65.9364 87.2969H67.1873L67.0658 88.9272C67.0497 89.1486 66.6244 94.4196 63.5008 100.58C60.8203 105.863 55.6041 112.743 45.7577 116.611C44.9893 116.914 44.1911 117.198 43.3632 117.462L43.2416 117.082C43.6729 116.928 44.0946 116.771 44.5068 116.611Z" fill="white"/>
<path d="M24.7927 114.566L23.8706 117.459C23.0427 117.195 22.2445 116.911 21.4761 116.607C11.6297 112.74 6.41172 105.86 3.73301 100.576C0.609351 94.4161 0.18405 89.1487 0.167967 88.9237L0.0464478 87.2935H14.639V90.329H3.4328C4.01857 93.454 5.05068 96.4787 6.49749 99.3104C9.21908 104.63 13.1201 108.763 18.1397 111.658C20.2463 112.863 22.4769 113.838 24.7927 114.566Z" fill="#03A803"/>
<path opacity="0.1" d="M22.6805 116.611C12.8342 112.743 7.61617 105.863 4.93747 100.58C1.8138 94.4196 1.38849 89.1521 1.37241 88.9272L1.2509 87.2969H0L0.121514 88.9272C0.137597 89.1486 0.562904 94.4196 3.68657 100.58C6.36706 105.863 11.5833 112.743 21.4296 116.611C22.198 116.914 22.9962 117.198 23.8242 117.462L23.9457 117.082C23.5157 116.928 23.0939 116.771 22.6805 116.611Z" fill="white"/>
<path d="M50.4522 142.528V158.896H16.737V142.528L17.8092 141.1C28.7349 137.225 30.9489 127.12 31.3903 123.122C31.456 122.57 31.4936 122.015 31.5029 121.458H35.672C35.6813 122.015 35.7189 122.57 35.7846 123.122C36.2331 127.12 38.4472 137.228 49.3657 141.1L50.4522 142.528Z" fill="#03A803"/>
<path opacity="0.1" d="M50.4522 142.528H16.737V144.582H50.4522V142.528Z" fill="black"/>
<path opacity="0.1" d="M19.5962 141.1C30.5219 137.225 32.7359 127.12 33.1773 123.122C33.243 122.57 33.2806 122.015 33.2899 121.458H31.5029C31.4936 122.015 31.456 122.57 31.3903 123.122C30.9418 127.12 28.7277 137.228 17.8092 141.1L16.737 142.528V158.896H18.524V142.528L19.5962 141.1Z" fill="white"/>
<path opacity="0.1" d="M11.6155 87.2935H14.6391V90.329H11.8835C11.7751 89.329 11.6858 88.3172 11.6155 87.2935Z" fill="black"/>
<path opacity="0.1" d="M24.7927 114.566L23.8707 117.459C23.0427 117.195 22.2445 116.911 21.4761 116.607C20.2121 115.065 19.0951 113.408 18.1398 111.658C20.2464 112.863 22.4769 113.838 24.7927 114.566Z" fill="black"/>
<path opacity="0.1" d="M42.3964 114.566C44.7114 113.838 46.9412 112.864 49.0476 111.659C48.0917 113.41 46.9748 115.067 45.7113 116.611C44.9429 116.914 44.1453 117.197 43.3185 117.461L42.3964 114.566Z" fill="black"/>
<path opacity="0.1" d="M35.7917 123.122C34.3404 123.403 32.8487 123.403 31.3975 123.122C31.4632 122.57 31.5007 122.015 31.51 121.458H35.6791C35.6884 122.015 35.726 122.57 35.7917 123.122Z" fill="black"/>
<path d="M11.9728 82.2651C12.0497 104.774 21.6994 122.976 33.5955 122.976C45.4915 122.976 55.1394 104.774 55.2181 82.2651H11.9728Z" fill="#03A803"/>
<path opacity="0.1" d="M15.8149 82.2651H11.9728C12.0497 104.774 21.6994 122.976 33.5955 122.976C34.2392 122.975 34.8817 122.921 35.5165 122.814C24.5193 120.978 15.8881 103.549 15.8149 82.2651Z" fill="white"/>
<path d="M45.0608 148.794H22.1283V154.686H45.0608V148.794Z" fill="#3F3D56"/>
<path opacity="0.1" d="M23.2005 149.597H45.0608V148.794H22.1283V154.686H23.2005V149.597Z" fill="white"/>
<defs>
<linearGradient id="paint0_linear" x1="111.083" y1="154.719" x2="111.083" y2="20.8329" gradientUnits="userSpaceOnUse">
<stop stop-color="#808080" stop-opacity="0.25"/>
<stop offset="0.54" stop-color="#808080" stop-opacity="0.12"/>
<stop offset="1" stop-color="#808080" stop-opacity="0.1"/>
</linearGradient>
</defs>
</svg>
