<svg width="184" height="136" viewBox="0 0 184 136" fill="none" xmlns="http://www.w3.org/2000/svg">
<g clip-path="url(#clip0)">
<path d="M132.408 80.68L133.856 79.789C133.993 79.702 134.129 79.6092 134.268 79.5222C131.164 78.9897 128.335 77.4157 126.25 75.0608C124.164 72.7059 122.948 69.7113 122.801 66.5726C122.695 64.414 123.104 62.2611 123.995 60.2911C124.824 58.4479 126.049 56.8086 127.583 55.4888C129.116 54.1691 130.922 53.201 132.871 52.6528L132.8 58.3351L135.929 52.1502C135.942 52.1482 135.955 52.1482 135.968 52.1502C137.781 52.0658 139.594 52.3384 141.301 52.9526C143.009 53.5669 144.579 54.5106 145.921 55.73C147.263 56.9493 148.352 58.4204 149.124 60.0593C149.896 61.6982 150.337 63.4727 150.421 65.2815C150.433 65.5444 150.421 65.8034 150.421 66.0546C151.51 64.8157 152.499 63.4879 153.153 62.0325C154.479 59.085 154.51 55.7471 154.399 51.6902C154.19 43.6499 153.843 35.5496 153.39 27.4725C150.122 27.1106 147.091 25.5983 144.841 23.2074C142.591 20.8165 141.27 17.7037 141.114 14.4282C141.095 14.0049 141.101 13.5894 141.114 13.1757C141.114 13.0733 141.114 12.9689 141.13 12.8665C141.157 12.4664 141.194 12.0702 141.256 11.6798C141.256 11.6141 141.279 11.5522 141.291 11.4865C141.348 11.1553 141.415 10.8281 141.494 10.5046C141.525 10.3848 141.554 10.263 141.587 10.1432C141.684 9.79145 141.781 9.44548 141.915 9.10338C141.955 8.98935 142.004 8.87918 142.046 8.76707C142.145 8.51581 142.252 8.26842 142.364 8.02296C142.424 7.89346 142.482 7.7659 142.546 7.6364C142.562 7.60354 142.575 7.57068 142.593 7.53783C144.052 4.66347 146.474 2.38993 149.44 1.11239C152.405 -0.165143 155.725 -0.365895 158.823 0.545034L158.73 7.93985L161.831 1.83227C164.374 3.28421 166.385 5.50914 167.57 8.1821C168.755 10.8551 169.053 13.836 168.419 16.6895H168.434C168.413 16.7881 168.382 16.8828 168.359 16.9795C168.316 17.1611 168.27 17.3409 168.219 17.5206C168.153 17.7506 168.08 17.9768 168.004 18.2029C167.946 18.3711 167.89 18.5431 167.826 18.7093C167.733 18.9528 167.632 19.1906 167.52 19.4283C167.458 19.5674 167.401 19.7085 167.326 19.8458C167.149 20.2014 166.955 20.5493 166.745 20.8895C166.673 21.0074 166.592 21.1195 166.516 21.2374C166.369 21.4654 166.219 21.6916 166.059 21.9119C165.96 22.0472 165.853 22.1767 165.749 22.3101C165.597 22.5033 165.442 22.6966 165.282 22.8725C165.167 23.002 165.051 23.1296 164.931 23.2591C164.762 23.4369 164.588 23.6089 164.408 23.779C164.29 23.893 164.169 24.007 164.045 24.1153C163.842 24.295 163.629 24.467 163.414 24.6352C163.305 24.7202 163.201 24.8091 163.088 24.8903C162.761 25.1326 162.424 25.36 162.075 25.5726C162.009 25.6112 161.939 25.6441 161.881 25.6828C161.59 25.8548 161.3 26.0152 160.988 26.166C160.858 26.2297 160.722 26.2858 160.588 26.3457C160.339 26.4578 160.087 26.566 159.829 26.6646C159.68 26.7207 159.527 26.7728 159.374 26.825C159.12 26.912 158.862 26.9912 158.598 27.0628C158.443 27.1053 158.29 27.1478 158.133 27.1845C157.85 27.2522 157.562 27.3082 157.271 27.3565C157.252 27.3565 157.234 27.3565 157.215 27.3681C157.406 30.775 157.576 34.1838 157.725 37.5945C158.549 35.9068 159.71 34.4049 161.137 33.1809C162.564 31.9569 164.226 31.0366 166.023 30.4765C167.819 29.9164 169.711 29.7282 171.583 29.9235C173.455 30.1189 175.267 30.6936 176.908 31.6125L174.464 38.2903L179.491 33.4757C182.182 35.9357 183.784 39.3596 183.948 42.9966C184.012 44.2727 183.894 45.5515 183.597 46.7945C182.966 49.4844 181.538 51.923 179.5 53.7939C177.462 55.6647 174.908 56.8815 172.168 57.2863C169.428 57.6911 166.629 57.2653 164.135 56.0641C161.641 54.8629 159.566 52.9417 158.18 50.5499C158.18 50.8959 158.205 51.2438 158.215 51.5897C158.306 55.1692 158.42 59.6224 156.632 63.6C155.421 66.2962 153.469 68.4861 151.541 70.4479C150.288 71.7254 148.987 72.9605 147.654 74.1569C146.343 75.9125 144.632 77.3316 142.663 78.2969C140.473 79.9797 138.206 81.5555 135.861 83.0244L134.437 83.9406C133.121 84.7543 131.773 85.5892 130.449 86.4532C130.682 86.43 130.912 86.4049 131.149 86.3952C134.078 86.2583 136.976 87.0539 139.422 88.6669C141.869 90.28 143.738 92.6271 144.759 95.3691L136.121 102.383L145.616 100.186C145.613 102.517 145.018 104.81 143.886 106.85C142.754 108.89 141.122 110.611 139.143 111.851C137.163 113.091 134.901 113.811 132.567 113.943C130.233 114.074 127.904 113.614 125.797 112.604C126.01 112.87 126.225 113.135 126.438 113.4C126.862 113.928 127.285 114.451 127.698 114.971C133.317 122.07 134.883 128.812 132.098 133.951L128.715 132.127C131.428 127.125 127.359 120.723 124.679 117.349C124.274 116.838 123.859 116.324 123.44 115.802C119.85 111.357 115.781 106.309 115.883 100.122C116.029 90.8058 125.115 85.1872 132.408 80.68Z" fill="#F2F2F2"/>
<path d="M159.569 130.428C160.151 129.363 159.492 128.058 158.74 127.107C157.988 126.156 157.072 125.175 157.091 123.959C157.118 122.219 158.969 121.193 160.449 120.271C161.545 119.586 162.557 118.775 163.462 117.853C163.842 117.499 164.156 117.08 164.39 116.616C164.694 115.936 164.687 115.163 164.667 114.417C164.603 111.935 164.48 109.456 164.299 106.979" stroke="#3F3D56" stroke-width="4" stroke-miterlimit="10"/>
<path d="M167.111 106.848C167.089 106.394 166.954 105.952 166.717 105.564C166.48 105.176 166.149 104.853 165.754 104.625L165.146 105.827L165.163 104.374C164.747 104.249 164.307 104.227 163.88 104.307C163.453 104.388 163.052 104.569 162.71 104.837C162.369 105.104 162.096 105.45 161.916 105.844C161.736 106.238 161.653 106.67 161.675 107.103C161.709 107.821 162.028 108.495 162.56 108.979C162.824 109.218 163.133 109.404 163.468 109.524C163.804 109.645 164.16 109.698 164.516 109.681C164.872 109.664 165.222 109.578 165.545 109.426C165.867 109.275 166.157 109.062 166.397 108.798C166.637 108.535 166.823 108.228 166.944 107.893C167.064 107.558 167.118 107.203 167.101 106.848H167.111Z" fill="#57B793"/>
<path d="M162.261 125.209C161.976 125.761 161.51 126.198 160.94 126.448C160.371 126.698 159.732 126.744 159.132 126.581C158.532 126.417 158.007 126.052 157.644 125.548C157.282 125.043 157.104 124.43 157.141 123.811C157.178 123.191 157.427 122.603 157.847 122.145C158.266 121.687 158.831 121.387 159.446 121.295C160.062 121.203 160.69 121.324 161.226 121.639C161.762 121.955 162.173 122.444 162.391 123.025L160.693 124.403L162.561 123.97C162.561 124.401 162.458 124.826 162.261 125.209Z" fill="#57B793"/>
<path d="M160.918 119.935C160.561 119.952 160.204 119.899 159.868 119.778C159.532 119.657 159.223 119.471 158.959 119.231C158.695 118.991 158.482 118.702 158.33 118.379C158.179 118.056 158.093 117.707 158.077 117.351C158.056 116.926 158.136 116.503 158.312 116.116C158.474 115.753 158.715 115.431 159.016 115.171C159.318 114.911 159.672 114.72 160.056 114.612L160.042 115.731L160.658 114.513C161.379 114.48 162.084 114.733 162.617 115.218C163.15 115.702 163.469 116.379 163.503 117.097C163.536 117.816 163.282 118.519 162.797 119.051C162.311 119.583 161.633 119.901 160.912 119.935H160.918Z" fill="#57B793"/>
<path d="M167.52 115.545C166.8 115.579 166.097 115.326 165.564 114.843C165.031 114.359 164.713 113.685 164.679 112.967C164.645 112.249 164.898 111.548 165.383 111.016C165.868 110.485 166.544 110.167 167.264 110.134C167.772 110.108 168.278 110.228 168.721 110.478L168.24 111.792L169.229 110.845C169.759 111.328 170.075 112.002 170.108 112.718C170.121 112.968 170.097 113.22 170.039 113.464C169.903 114.037 169.584 114.55 169.129 114.926C168.674 115.301 168.109 115.519 167.52 115.545Z" fill="#57B793"/>
<path opacity="0.1" d="M166.745 107.563C166.117 107.633 165.506 107.828 164.877 107.866C164.247 107.905 163.555 107.754 163.156 107.265C162.941 107.002 162.834 106.67 162.652 106.384C162.48 106.117 162.246 105.896 161.968 105.74C161.804 106.082 161.714 106.455 161.703 106.834C161.693 107.213 161.763 107.59 161.908 107.941C162.053 108.292 162.27 108.608 162.546 108.869C162.821 109.13 163.149 109.331 163.507 109.458C163.866 109.585 164.247 109.635 164.626 109.606C165.005 109.576 165.373 109.468 165.708 109.287C166.042 109.106 166.334 108.858 166.566 108.557C166.798 108.256 166.964 107.91 167.053 107.542C166.948 107.546 166.845 107.553 166.745 107.563Z" fill="black"/>
<path opacity="0.1" d="M167.52 115.545C167.051 115.569 166.584 115.471 166.164 115.261C165.744 115.05 165.387 114.735 165.126 114.345C164.865 113.956 164.71 113.505 164.676 113.038C164.643 112.571 164.731 112.103 164.933 111.68C165.149 111.825 165.334 112.011 165.479 112.227C165.673 112.519 165.789 112.855 166.018 113.124C166.44 113.62 167.165 113.783 167.822 113.752C168.479 113.721 169.111 113.537 169.76 113.477C169.849 113.477 169.942 113.462 170.033 113.46C169.898 114.033 169.58 114.546 169.127 114.923C168.673 115.299 168.109 115.518 167.52 115.545Z" fill="black"/>
<path opacity="0.1" d="M160.918 119.935C160.561 119.952 160.204 119.899 159.868 119.778C159.532 119.657 159.223 119.471 158.959 119.231C158.695 118.991 158.482 118.701 158.33 118.379C158.179 118.056 158.093 117.707 158.077 117.351C158.056 116.926 158.136 116.503 158.312 116.116C158.537 116.263 158.734 116.449 158.893 116.666C159.104 116.964 159.236 117.306 159.474 117.581C159.934 118.091 160.705 118.271 161.4 118.253C162.096 118.236 162.722 118.073 163.392 118.023C163.227 118.557 162.901 119.027 162.458 119.369C162.015 119.711 161.477 119.908 160.918 119.935Z" fill="black"/>
<path opacity="0.1" d="M162.261 125.209C162.114 125.534 161.905 125.827 161.646 126.071C161.386 126.315 161.08 126.506 160.747 126.632C160.413 126.759 160.058 126.819 159.701 126.808C159.344 126.797 158.993 126.717 158.667 126.571C158.342 126.425 158.048 126.217 157.803 125.957C157.558 125.698 157.367 125.394 157.24 125.061C157.114 124.728 157.054 124.373 157.064 124.018C157.075 123.662 157.156 123.311 157.302 122.987C157.525 123.135 157.726 123.314 157.899 123.518C158.157 123.833 158.327 124.189 158.627 124.485C159.184 125.028 160.081 125.258 160.879 125.273C161.341 125.279 161.802 125.258 162.261 125.209Z" fill="black"/>
<path d="M155.469 129.2C155.469 129.2 157.614 129.135 158.261 128.675C158.908 128.215 161.555 127.666 161.724 128.404C161.893 129.143 164.95 132.076 162.526 132.088C160.102 132.1 156.895 131.702 156.25 131.315C155.605 130.928 155.469 129.2 155.469 129.2Z" fill="#656380"/>
<path opacity="0.2" d="M162.569 131.831C160.147 131.85 156.938 131.444 156.293 131.058C155.802 130.76 155.605 129.688 155.541 129.193H155.469C155.469 129.193 155.605 130.919 156.244 131.319C156.884 131.719 160.096 132.107 162.52 132.092C163.22 132.092 163.462 131.837 163.449 131.47C163.357 131.688 163.09 131.827 162.569 131.831Z" fill="black"/>
<path d="M37.6713 124.465C36.2645 121.868 37.865 118.686 39.6942 116.371C41.5234 114.055 43.7634 111.647 43.715 108.696C43.6452 104.455 39.1342 101.952 35.5301 99.7044C32.8556 98.0362 30.3885 96.0581 28.1803 93.8114C27.2948 92.9088 26.4364 91.9463 25.9209 90.7943C25.1768 89.136 25.1962 87.2515 25.2447 85.4347C25.3997 79.3787 25.6994 73.3342 26.1438 67.3014" stroke="#3F3D56" stroke-width="4" stroke-miterlimit="10"/>
<path d="M19.29 66.9708C19.3431 65.8645 19.6739 64.7891 20.2522 63.8435C20.8305 62.8979 21.6377 62.1124 22.5996 61.559L24.0839 64.4872L24.0394 60.9425C25.3878 60.5462 26.8276 60.5875 28.151 61.0607C29.4743 61.5338 30.6126 62.4142 31.4016 63.5747C32.1906 64.7352 32.5894 66.1158 32.5404 67.5172C32.4915 68.9185 31.9973 70.2681 31.1292 71.371C30.2611 72.4739 29.0641 73.2731 27.7109 73.6531C26.3578 74.0332 24.9186 73.9745 23.6011 73.4855C22.2835 72.9965 21.1559 72.1025 20.3811 70.9325C19.6062 69.7626 19.2241 68.3773 19.29 66.9766V66.9708Z" fill="#57B793"/>
<path d="M31.1139 111.726C31.7805 113.022 32.8575 114.062 34.1776 114.685C35.4976 115.307 36.9868 115.477 38.4139 115.169C39.8409 114.86 41.1258 114.09 42.0689 112.978C43.0121 111.867 43.5608 110.475 43.6297 109.02C43.6759 108.106 43.5287 107.192 43.1975 106.338C42.7134 105.085 41.8586 104.009 40.7465 103.252C39.6345 102.496 38.3181 102.095 36.9721 102.103C35.6261 102.11 34.3144 102.527 33.2112 103.296C32.1081 104.065 31.2657 105.151 30.7962 106.409L34.9371 109.768L30.3815 108.711C30.3796 109.76 30.6308 110.794 31.1139 111.726Z" fill="#57B793"/>
<path d="M34.3868 98.8888C36.0124 98.963 37.6087 98.4382 38.8716 97.4145C40.1345 96.3908 40.9759 94.9396 41.2356 93.3372C41.4952 91.7348 41.1551 90.0931 40.2799 88.7246C39.4047 87.3562 38.0555 86.3565 36.4892 85.916L36.5241 88.6393L35.032 85.6764H35.0146C33.2578 85.5946 31.5403 86.2123 30.2401 87.3936C28.9399 88.5748 28.1634 90.2229 28.0814 91.9753C27.9995 93.7276 28.6187 95.4407 29.803 96.7376C30.9873 98.0345 32.6396 98.809 34.3965 98.8908L34.3868 98.8888Z" fill="#57B793"/>
<path d="M18.2921 88.2063C19.3186 88.2562 20.3426 88.0674 21.2834 87.6549C22.2241 87.2423 23.0559 86.6174 23.713 85.8292C24.3701 85.0411 24.8346 84.1115 25.0697 83.1136C25.3049 82.1158 25.3043 81.0771 25.068 80.0795C24.8317 79.0819 24.3662 78.1527 23.7082 77.3654C23.0502 76.578 22.2178 75.9539 21.2765 75.5425C20.3353 75.131 19.3111 74.9434 18.2847 74.9944C17.2583 75.0454 16.2578 75.3337 15.3623 75.8365L16.5249 79.0391L14.1241 76.7256C13.4823 77.3081 12.962 78.0112 12.5929 78.7946C12.2238 79.5779 12.0132 80.4262 11.9732 81.2908C11.9424 81.9026 11.9992 82.5157 12.1418 83.1115C12.4714 84.5126 13.2503 85.7683 14.3603 86.6878C15.4703 87.6073 16.8507 88.1404 18.2921 88.2063Z" fill="#57B793"/>
<path opacity="0.1" d="M20.1814 68.7335C21.7122 68.9017 23.2003 69.3752 24.735 69.4699C26.2697 69.5646 27.9574 69.1993 28.9282 68.0087C29.4514 67.367 29.713 66.5553 30.1548 65.8556C30.5734 65.2037 31.1472 64.6652 31.8251 64.2881C32.2472 65.1262 32.4858 66.0443 32.525 66.9814C32.5642 67.9185 32.4031 68.8533 32.0525 69.7235C31.7018 70.5938 31.1696 71.3797 30.4912 72.0292C29.8127 72.6786 29.0035 73.1767 28.1173 73.4903C27.2312 73.804 26.2882 73.926 25.3511 73.8484C24.414 73.7708 23.5042 73.4953 22.682 73.0401C21.8598 72.5849 21.1441 71.9606 20.5823 71.2084C20.0206 70.4562 19.6256 69.5935 19.4237 68.6775C19.6814 68.6891 19.9333 68.7065 20.1814 68.7335Z" fill="black"/>
<path opacity="0.1" d="M18.2921 88.2062C19.4347 88.2588 20.5714 88.0158 21.5921 87.5009C22.6127 86.9861 23.4826 86.2167 24.1173 85.2676C24.7519 84.3186 25.1299 83.2219 25.2143 82.0842C25.2988 80.9465 25.087 79.8063 24.5994 78.7743C24.073 79.1274 23.6202 79.579 23.2662 80.104C22.7934 80.8153 22.5086 81.6367 21.9525 82.29C20.9197 83.4999 19.1563 83.8961 17.5558 83.8246C15.9552 83.7531 14.4109 83.297 12.818 83.152C12.5971 83.1327 12.3724 83.1172 12.1495 83.1114C12.4787 84.5114 13.2565 85.7661 14.3649 86.6855C15.4734 87.6048 16.8521 88.1387 18.2921 88.2062Z" fill="black"/>
<path opacity="0.1" d="M34.3868 98.8888C35.5182 98.9418 36.6443 98.7047 37.6578 98.2002C38.6712 97.6957 39.5382 96.9406 40.176 96.007C40.8137 95.0733 41.201 93.9923 41.3009 92.8669C41.4007 91.7415 41.2098 90.6094 40.7464 89.5786C40.2004 89.9403 39.7255 90.3989 39.3454 90.9315C38.83 91.6563 38.5083 92.4912 37.9057 93.16C36.7876 94.4028 34.908 94.8415 33.2125 94.8009C31.5713 94.7661 29.9901 94.3641 28.3585 94.2385C28.7625 95.5376 29.5579 96.6809 30.6365 97.513C31.7152 98.3451 33.0247 98.8255 34.3868 98.8888Z" fill="black"/>
<path opacity="0.1" d="M31.1139 111.726C31.7805 113.022 32.8575 114.062 34.1775 114.684C35.4976 115.307 36.9868 115.477 38.4138 115.169C39.8408 114.86 41.1257 114.09 42.0689 112.978C43.0121 111.867 43.5607 110.475 43.6296 109.02C43.6759 108.106 43.5287 107.192 43.1975 106.338C42.652 106.695 42.1623 107.131 41.7442 107.631C41.1145 108.404 40.6979 109.266 39.9693 109.981C38.6129 111.307 36.4252 111.856 34.4778 111.914C33.3538 111.918 32.2305 111.855 31.1139 111.726Z" fill="black"/>
<path d="M83.5584 128.327L57.9805 133.545L57.3992 133.487L34.9216 131.226V102.814L62.4372 98.1755L82.3957 100.495L82.4016 100.62L82.4035 100.682L83.5584 128.327Z" fill="#03A803"/>
<path opacity="0.1" d="M83.5584 128.327L57.9805 133.545L57.3992 133.487V104.36L82.4016 100.62L83.5584 128.327Z" fill="black"/>
<path opacity="0.05" d="M82.4035 100.682L82.3958 100.688L57.3992 104.36L34.9216 102.814L62.4372 98.1755L82.3958 100.495L82.4016 100.62L82.4035 100.682Z" fill="black"/>
<path d="M111.655 129.487L86.0774 134.705L85.4961 134.647L63.0186 132.386V103.974L90.5342 99.3352L110.493 101.655L110.499 101.78L110.5 101.842L111.655 129.487Z" fill="#3F3D56"/>
<path opacity="0.1" d="M111.655 129.486L86.0774 134.705L85.4961 134.647V105.52L110.499 101.78L111.655 129.486Z" fill="black"/>
<path opacity="0.05" d="M110.5 101.842L110.493 101.848L85.4961 105.52L63.0186 103.974L90.5342 99.3352L110.493 101.655L110.499 101.78L110.5 101.842Z" fill="black"/>
<path d="M94.022 101.655L68.4441 106.873L67.8628 106.815L45.3853 104.554V76.1419L72.9009 71.5032L92.8594 73.8226L92.8652 73.9482L92.8671 74.01L94.022 101.655Z" fill="#3F3D56"/>
<path opacity="0.1" d="M94.022 101.654L68.4441 106.873L67.8628 106.815V77.688L92.8652 73.9481L94.022 101.654Z" fill="black"/>
<path opacity="0.05" d="M92.8671 74.01L92.8594 74.0158L67.8628 77.6881L45.3853 76.1419L72.9009 71.5032L92.8594 73.8226L92.8652 73.9482L92.8671 74.01Z" fill="black"/>
<path d="M108.555 102.845L95.2059 105.57L94.9017 105.539L83.1708 104.359V89.5303L97.5312 87.1085L107.948 88.3203L107.952 88.3861V88.417L108.555 102.845Z" fill="#3F3D56"/>
<path opacity="0.1" d="M108.555 102.845L95.206 105.57L94.9017 105.539V90.338L107.952 88.3859L108.555 102.845Z" fill="black"/>
<path opacity="0.05" d="M107.952 88.417L107.948 88.4209L94.9017 90.3382L83.1708 89.5303L97.5312 87.1085L107.948 88.3203L107.952 88.3861V88.417Z" fill="black"/>
<path d="M72.7071 74.0467L59.3582 76.77L59.054 76.741L47.323 75.5601V60.7318L61.6834 58.31L72.1006 59.5219L72.1045 59.5876V59.6185L72.7071 74.0467Z" fill="#3F3D56"/>
<path opacity="0.1" d="M72.7071 74.0467L59.3582 76.7699L59.054 76.7409V61.5396L72.1045 59.5875L72.7071 74.0467Z" fill="black"/>
<path opacity="0.05" d="M72.1045 59.6185L72.1006 59.6224L59.054 61.5397L47.323 60.7318L61.6834 58.31L72.1006 59.5219L72.1045 59.5876V59.6185Z" fill="black"/>
<path d="M96.1535 73.4669L82.8046 76.1902L82.5004 76.1612L70.7694 74.9803V60.152L85.1298 57.7302L95.547 58.942L95.5509 59.0078V59.0387L96.1535 73.4669Z" fill="#03A803"/>
<path opacity="0.1" d="M96.1536 73.4668L82.8046 76.1901L82.5004 76.1611V60.9598L95.5509 59.0077L96.1536 73.4668Z" fill="black"/>
<path opacity="0.05" d="M95.5509 59.0387L95.547 59.0426L82.5004 60.9599L70.7694 60.152L85.1299 57.7302L95.547 58.942L95.5509 59.0078V59.0387Z" fill="black"/>
<path d="M103.129 58.5845L89.7803 61.3078L89.4761 61.2788L77.7451 60.0979V45.2696L92.1056 42.8478L102.523 44.0597L102.527 44.1254V44.1563L103.129 58.5845Z" fill="#3F3D56"/>
<path opacity="0.1" d="M103.129 58.5844L89.7803 61.3077L89.4761 61.2787V46.0774L102.527 44.1253L103.129 58.5844Z" fill="black"/>
<path opacity="0.05" d="M102.527 44.1563L102.523 44.1602L89.4761 46.0775L77.7451 45.2696L92.1056 42.8478L102.523 44.0597L102.527 44.1254V44.1563Z" fill="black"/>
<path d="M112.221 28.2708C112.08 29.5271 111.118 30.5399 110.762 31.7498C110.227 33.5762 111.15 35.538 112.421 36.9683C113.445 38.1047 114.685 39.0271 116.07 39.682C117.454 40.3369 118.955 40.7113 120.485 40.7836C120.935 40.8222 121.388 40.7729 121.819 40.6386C122.202 40.4829 122.548 40.247 122.832 39.9467C123.785 38.99 124.299 37.666 124.502 36.3305C124.706 34.9949 124.628 33.6362 124.549 32.289C124.549 32.0102 124.498 31.7338 124.398 31.4734C124.268 31.2257 124.089 31.0068 123.873 30.8298C123.185 30.1998 122.428 29.6505 121.615 29.1927C121.266 28.9994 120.892 28.8061 120.67 28.4718C120.517 28.2055 120.417 27.912 120.377 27.6078L120.127 26.3399C120.083 25.9743 119.958 25.6231 119.761 25.3117C119.321 24.7202 118.478 24.6391 117.74 24.6101L115.027 24.5038C114.184 24.4709 113.076 24.2293 112.252 24.3955C111.477 24.5482 111.739 25.2556 111.878 25.8973C112.08 26.6734 112.195 27.4694 112.221 28.2708Z" fill="#FFC0C6"/>
<path opacity="0.1" d="M112.221 28.2708C112.08 29.5271 111.118 30.5399 110.762 31.7498C110.227 33.5762 111.15 35.538 112.421 36.9683C113.445 38.1047 114.685 39.0271 116.07 39.682C117.454 40.3369 118.955 40.7113 120.485 40.7836C120.935 40.8222 121.388 40.7729 121.819 40.6386C122.202 40.4829 122.548 40.247 122.832 39.9467C123.785 38.99 124.299 37.666 124.502 36.3305C124.706 34.9949 124.628 33.6362 124.549 32.289C124.549 32.0102 124.498 31.7338 124.398 31.4734C124.268 31.2257 124.089 31.0068 123.873 30.8298C123.185 30.1998 122.428 29.6505 121.615 29.1927C121.266 28.9994 120.892 28.8061 120.67 28.4718C120.517 28.2055 120.417 27.912 120.377 27.6078L120.127 26.3399C120.083 25.9743 119.958 25.6231 119.761 25.3117C119.321 24.7202 118.478 24.6391 117.74 24.6101L115.027 24.5038C114.184 24.4709 113.076 24.2293 112.252 24.3955C111.477 24.5482 111.739 25.2556 111.878 25.8973C112.08 26.6734 112.195 27.4694 112.221 28.2708Z" fill="black"/>
<path d="M129.449 84.8549L128.298 97.4411C127.998 100.742 127.692 104.057 127.103 107.316C126.909 108.439 126.661 109.556 126.378 110.663C125.591 113.738 124.45 116.744 124.082 119.896C124.07 119.987 124.06 120.089 124.051 120.173C123.975 120.868 123.909 121.572 123.663 122.221C123.469 122.703 123.196 123.141 122.997 123.617C122.609 124.568 122.547 125.619 122.499 126.649C121.102 125.863 119.572 125.339 117.986 125.103C117.211 124.989 116.368 124.91 115.854 124.33C115.273 123.7 115.341 122.735 115.438 121.889C115.743 119.26 116.046 116.633 116.348 114.007C116.449 112.877 116.644 111.757 116.93 110.659C117.034 110.294 117.16 109.935 117.288 109.575C117.464 109.08 117.643 108.586 117.776 108.077C117.962 107.261 118.09 106.432 118.16 105.597C118.472 102.953 118.848 100.315 119.177 97.6731L119.195 97.5339C119.689 93.5292 120.065 89.5051 119.956 85.4714C119.941 84.8742 119.916 84.277 119.877 83.6778C119.823 82.81 119.743 82.35 120.458 81.8069C121.255 81.2077 122.303 80.7883 123.214 80.3959C123.704 80.1833 129.102 78.2699 129.221 78.6912C129.471 79.5862 129.602 80.5104 129.608 81.4396C129.619 82.5801 129.566 83.7203 129.449 84.8549Z" fill="#605D82"/>
<path opacity="0.1" d="M127.103 107.316C126.909 108.439 126.661 109.556 126.378 110.663C125.591 113.738 124.45 116.744 124.082 119.896C124.07 119.987 124.06 120.089 124.051 120.173C121.644 116.744 119.617 113.056 117.269 109.591C117.445 109.096 117.623 108.601 117.757 108.093C117.95 107.271 118.084 106.438 118.16 105.597C118.472 102.953 118.848 100.315 119.177 97.673L119.195 97.5339C119.331 98.0946 119.526 98.6394 119.776 99.1593C121.354 102.356 125.101 103.972 126.934 107.032C126.995 107.127 127.051 107.222 127.103 107.316Z" fill="black"/>
<path d="M107.574 79.2092C107.654 81.772 108.065 84.3136 108.476 86.8456L109.322 92.0641C109.785 94.9246 110.27 97.8412 111.626 100.402C112.642 102.319 114.103 103.955 115.426 105.673C118.678 109.898 121.121 114.685 124.204 119.034C125.101 120.298 126.382 121.667 127.911 121.402C128.915 121.23 129.643 120.395 130.43 119.753C131.36 118.995 132.48 118.441 133.212 117.49C133.945 116.539 134.088 114.962 133.096 114.285C132.757 114.055 132.344 113.968 131.961 113.821C130.424 113.242 129.428 111.742 128.796 110.226C128.165 108.711 127.779 107.086 126.936 105.677C125.103 102.617 121.354 101.001 119.776 97.8025C118.893 96.0127 118.807 93.9369 118.742 91.952L118.569 86.8668C118.55 86.3102 118.536 85.7323 118.763 85.224C119.365 83.871 121.187 83.7435 122.663 83.5714C124.338 83.3764 125.96 82.8662 127.444 82.0677C128.295 81.6097 129.124 81.026 129.575 80.1756C129.99 79.4024 130.046 78.4921 130.095 77.6146L130.606 68.3972C130.651 67.6048 130.69 66.7833 130.412 66.0411C129.709 64.1741 127.345 63.5633 125.347 63.6522C121.631 63.8184 118.201 65.413 114.69 66.4915C113.82 66.7582 112.946 66.9979 112.049 67.1776C111.274 67.3342 110.305 67.2704 109.561 67.5216C108.227 67.9701 108.26 70.8808 108.072 72.0869C107.685 74.4403 107.518 76.8248 107.574 79.2092Z" fill="#605D82"/>
<path d="M127.407 121.792C127.734 122.123 127.841 122.606 127.926 123.062C128.4 125.593 128.646 128.162 128.663 130.737C128.641 130.977 128.689 131.219 128.8 131.433C128.893 131.56 129.018 131.66 129.163 131.723C130.11 132.173 131.209 131.545 131.999 130.855C133.462 129.577 134.701 127.861 134.784 125.922C134.805 125.424 134.749 124.919 134.836 124.427C134.964 123.696 135.392 123.06 135.768 122.422C136.411 121.335 136.931 120.18 137.318 118.978C137.462 118.526 137.559 117.957 137.202 117.642C137.077 117.543 136.935 117.469 136.782 117.424L132.499 115.839C132.127 115.702 131.205 118.066 131.06 118.325C130.701 118.957 130.345 119.314 129.626 119.461C128.907 119.608 128.019 119.395 127.333 119.761C126.171 120.377 126.75 121.133 127.407 121.792Z" fill="#535070"/>
<path d="M120.803 123.251C120.724 123.093 120.613 122.953 120.478 122.84C120.28 122.714 120.054 122.638 119.821 122.617C119.007 122.478 118.042 122.387 117.478 122.992C116.951 123.559 117.042 124.481 116.602 125.118C116.463 125.312 116.273 125.486 116.153 125.698C116.003 126.024 115.937 126.381 115.959 126.738C115.936 127.722 115.912 128.709 115.982 129.691C116.038 130.515 116.176 131.379 116.693 132.024C117.523 133.06 119.019 133.209 120.344 133.275L121.419 133.331C121.715 133.365 122.015 133.338 122.299 133.25C122.475 133.169 122.633 133.053 122.764 132.91C122.894 132.767 122.995 132.599 123.059 132.417C123.619 131.029 122.733 129.535 122.187 128.143C121.557 126.541 121.669 124.765 120.803 123.251Z" fill="#535070"/>
<path d="M111.911 21.1871C111.897 21.0464 111.918 20.9045 111.971 20.7735C112.128 20.4971 112.539 20.5802 112.849 20.6498C114.095 20.9629 115.409 20.6788 116.693 20.7522C117.978 20.8257 119.424 21.4654 119.681 22.7217C120.613 22.0638 121.417 21.241 122.051 20.2942C122.408 19.7627 122.718 19.1538 122.669 18.516C122.599 17.596 121.826 16.9079 121.119 16.3242L118.988 14.5847C118.707 14.3278 118.383 14.1224 118.03 13.9778C117.538 13.8097 116.999 13.8909 116.48 13.8909C114.93 13.8909 113.267 13.1854 111.886 13.8909C111.304 14.1866 110.872 14.6949 110.454 15.1897L108.549 17.4395C108.405 17.5829 108.3 17.7604 108.243 17.9555C108.189 18.23 108.33 18.5005 108.38 18.7769C108.47 19.2795 108.253 19.8168 108.419 20.3C108.696 21.1001 109.673 21.2142 110.27 21.6742C110.491 21.8443 110.839 22.426 111.105 22.4183C111.572 22.4086 111.897 21.5582 111.911 21.1871Z" fill="#3F3D56"/>
<path d="M115.143 27.8224C118.514 27.8224 121.247 25.0966 121.247 21.7341C121.247 18.3717 118.514 15.6459 115.143 15.6459C111.772 15.6459 109.039 18.3717 109.039 21.7341C109.039 25.0966 111.772 27.8224 115.143 27.8224Z" fill="#FFC0C6"/>
<path d="M116.573 35.0567C116.366 34.4667 115.977 33.9573 115.461 33.6023C114.945 33.2473 114.33 33.0649 113.703 33.0814C113.524 33.1156 113.338 33.092 113.172 33.0138C113.079 32.9424 113.004 32.8496 112.953 32.7432C112.583 32.0769 112.285 31.3733 112.064 30.6442C111.967 30.3214 111.833 29.9407 111.506 29.8576C111.242 29.7899 110.973 29.96 110.797 30.1668C110.641 30.3887 110.471 30.6011 110.289 30.8027C109.514 31.4869 108.158 30.8626 107.346 31.4908C107.212 31.5932 107.102 31.7246 106.958 31.8193C106.819 31.9041 106.668 31.9692 106.511 32.0126C104.935 32.524 103.39 33.1262 101.883 33.8159C102.426 37.0707 102.98 40.3874 104.251 43.4315C104.856 44.8811 105.54 46.3017 106.024 47.7957C107.098 51.1065 107.144 54.6493 107.158 58.1303C107.158 60.5115 107.158 62.9429 106.383 65.1965C106.208 65.7068 105.995 66.2132 105.947 66.7427C105.898 67.2723 106.057 67.8715 106.493 68.1885C106.746 68.3545 107.035 68.4561 107.336 68.4842C108.675 68.6775 110.024 68.3257 111.341 68.0203C114.874 67.2047 118.478 66.7369 122.072 66.2808L128.099 65.5077C128.531 65.4775 128.954 65.3681 129.347 65.1849C130.449 64.5838 130.554 62.9294 129.868 61.8779C129.54 61.3735 129.077 60.9599 128.8 60.4264C128.523 59.893 128.502 59.143 128.976 58.7739C129.945 58.0201 129.655 56.6227 129.701 55.4012C129.83 51.984 129.813 48.5695 129.649 45.1575C129.6 44.4499 129.588 43.7402 129.614 43.0314C129.682 41.8292 129.98 40.6521 130.279 39.4828L132.11 32.2929C131.631 31.5391 130.715 31.0598 129.848 30.8433C128.982 30.6268 128.077 30.563 127.223 30.2982C125.479 29.7571 123.913 28.3848 122.086 28.5124C121.947 28.5148 121.811 28.5478 121.687 28.609C121.276 28.8429 121.34 29.4343 121.315 29.9059C121.257 30.9515 120.485 31.8232 119.637 32.4359C118.788 33.0486 117.815 33.4931 117.034 34.1909C116.899 34.2928 116.787 34.4232 116.707 34.5728C116.628 34.7224 116.582 34.8876 116.573 35.0567Z" fill="#3F3D56"/>
<path d="M92.3885 41.8775C91.9843 42.1397 91.5545 42.3605 91.1058 42.5366C90.6795 42.7048 90.2241 42.8381 89.8753 43.1319C89.7026 43.2814 89.5577 43.46 89.4471 43.6596C89.2406 44.025 89.1362 44.4391 89.1448 44.8585C89.1534 45.2779 89.2746 45.6874 89.4959 46.0441C89.7172 46.4009 90.0304 46.6919 90.4029 46.8868C90.7753 47.0817 91.1934 47.1733 91.6135 47.1521C92.1735 47.1231 92.7025 46.897 93.2159 46.6747L97.5215 44.8057C98.2501 44.4907 99.0368 44.1234 99.3818 43.4083C99.4213 43.3413 99.4363 43.2628 99.4244 43.186C99.391 43.1018 99.3275 43.0329 99.2461 42.9928C98.2759 42.3631 97.4272 41.5644 96.7407 40.6348C96.5643 40.3951 96.3531 39.8307 96.0973 39.6858C95.1866 39.1813 93.1191 41.4059 92.3885 41.8775Z" fill="#FFC0C6"/>
<path d="M138.413 40.3603L140 42.1693C140.341 42.5559 140.682 42.9425 140.992 43.3599C141.755 44.408 142.367 45.5576 142.81 46.7752C143.155 47.6778 143.442 48.6403 143.321 49.5989C143.241 50.0904 143.108 50.5719 142.924 51.035C142.633 51.9253 142.273 52.7914 141.845 53.6249C141.488 54.2574 141.084 54.8627 140.638 55.4359C139.408 57.0605 138.063 58.5946 136.613 60.0263C136.07 60.5617 135.838 61.4295 135.607 62.1523C135.171 63.4879 134.135 64.5297 133.133 65.5154C132.811 65.8551 132.454 66.1609 132.069 66.4277C131.492 66.7989 130.818 66.99 130.131 66.9766C129.832 66.9783 129.535 66.917 129.261 66.7968C128.575 66.4721 128.227 65.6816 128.155 64.9278C128.092 64.2429 128.206 63.5532 128.488 62.9255C129.399 60.9134 131.738 60.0418 133.391 58.5728C134.359 57.7128 135.102 56.6304 135.834 55.5616C136.33 54.8935 136.745 54.1687 137.068 53.4027C137.437 52.4189 137.293 51.2553 137.617 50.258C137.752 49.8347 138.004 49.454 138.142 49.0346C138.279 48.6152 138.326 48.1184 138.068 47.757C137.875 47.526 137.628 47.3455 137.349 47.2313C136.293 46.6978 135.111 46.0098 134.91 44.8443C134.829 44.1989 134.998 43.5471 135.383 43.0217C135.765 42.503 136.212 42.0354 136.714 41.6301C137.173 41.2165 137.95 40.7584 138.413 40.3603Z" fill="#FFC0C6"/>
<path d="M91.3693 44.4018C91.0902 43.8374 90.7395 43.2614 90.1737 42.9812C89.8983 42.8627 89.6016 42.8016 89.3017 42.8016C89.0018 42.8016 88.7051 42.8627 88.4297 42.9812C87.8814 43.2176 87.3678 43.5271 86.9028 43.9012L85.5348 44.9082C85.2247 45.1112 84.9504 45.3639 84.7229 45.6562C84.5059 46.0107 84.3623 46.405 84.3005 46.8158C84.1067 47.7571 83.9497 48.7254 84.0854 49.6783C84.3024 51.2245 85.2325 52.562 86.2556 53.7371C86.8951 54.4677 87.6857 55.206 88.6584 55.2389C89.0789 55.2524 89.5459 55.0862 89.7203 54.7054C89.7811 54.5541 89.8132 54.3929 89.8152 54.23C89.9198 52.5137 89.3036 50.8379 88.5867 49.2743C88.3929 48.8491 88.1836 48.4084 88.1992 47.9426C88.1932 47.8635 88.2136 47.7847 88.2573 47.7184C88.3188 47.6541 88.4012 47.6137 88.4898 47.6044C89.4722 47.4111 91.1658 48.1726 91.8537 47.0845C92.2994 46.3655 91.687 45.0415 91.3693 44.4018Z" fill="#FFC0C6"/>
<path d="M111.589 19.2717C111.577 19.1309 111.598 18.9892 111.651 18.8581C111.808 18.5798 112.219 18.6648 112.529 18.7344C113.775 19.0475 115.089 18.7634 116.374 18.8368C117.658 18.9103 119.102 19.55 119.362 20.8063C120.293 20.1473 121.096 19.3247 121.731 18.3788C122.088 17.8453 122.398 17.2365 122.349 16.5987C122.28 15.6787 121.505 14.9906 120.799 14.4088L118.668 12.6693C118.388 12.4125 118.064 12.207 117.713 12.0624C117.218 11.8943 116.682 11.9755 116.162 11.9755C114.612 11.9755 112.95 11.27 111.568 11.9755C110.987 12.2712 110.555 12.7795 110.136 13.2743L108.229 15.524C108.086 15.6678 107.981 15.8453 107.925 16.0401C107.871 16.3146 108.012 16.5851 108.063 16.8615C108.152 17.3641 107.935 17.9014 108.101 18.3826C108.379 19.1847 109.355 19.2988 109.952 19.7588C110.173 19.9289 110.522 20.5106 110.787 20.5029C111.246 20.4932 111.572 19.6428 111.589 19.2717Z" fill="#3F3D56"/>
<path d="M98.626 35.9555C98.38 36.1148 98.1637 36.3156 97.9866 36.5488C97.7638 36.8871 97.7173 37.3219 97.5254 37.6698C97.1146 38.4313 96.1516 38.7039 95.5528 39.3282C95.4558 39.4135 95.388 39.5271 95.3591 39.6529C95.3554 39.8229 95.4124 39.9886 95.5199 40.1206L98.4148 44.6588C99.3837 44.7438 100.302 44.1408 101.267 44.222C101.626 44.2509 101.996 44.3746 102.341 44.2683C102.587 44.1588 102.818 44.0178 103.029 43.8489C103.61 43.4856 104.369 43.443 104.852 42.9657C105.334 42.4883 105.375 41.7867 105.369 41.1353C105.378 40.57 105.32 40.0056 105.197 39.4538C104.771 37.7143 103.435 36.3729 102.598 34.8306C102.189 34.0787 101.969 33.64 101.106 34.156C100.244 34.6721 99.4418 35.3602 98.626 35.9555Z" fill="#3F3D56"/>
<path d="M133.778 33.6613C134.322 34.0137 134.813 34.4419 135.235 34.9331C135.675 35.4994 135.925 36.1952 136.349 36.775C136.774 37.3548 137.318 37.7723 137.783 38.2903C138.491 39.075 138.969 40.0298 139.438 40.9788C138.29 42.4686 137.039 43.8765 135.695 45.1923C135.545 45.3682 135.347 45.4971 135.125 45.5633C134.974 45.5795 134.822 45.5581 134.682 45.501C134.542 45.444 134.419 45.3532 134.323 45.2367C134.113 45.0202 133.966 44.7496 133.766 44.5235C133.296 44.0398 132.67 43.7378 131.997 43.6712C131.331 43.6064 130.66 43.5967 129.992 43.6422C129.845 43.6595 129.697 43.6347 129.564 43.5706C129.465 43.5029 129.385 43.4111 129.331 43.3039C128.556 41.9742 128.798 40.3043 129.075 38.7851L129.709 35.3061C129.801 34.6419 129.979 33.9923 130.238 33.3733C130.478 32.8611 131.013 31.9914 131.676 32.146C132.338 32.3006 133.218 33.2593 133.778 33.6613Z" fill="#3F3D56"/>
<path d="M78.5204 59.1644L65.1714 61.8876L64.8672 61.8586L53.1362 60.6777V45.8494L67.4967 43.4277L77.9138 44.6395L77.9177 44.7052V44.7362L78.5204 59.1644Z" fill="#03A803"/>
<path opacity="0.1" d="M78.5202 59.1643L65.1713 61.8876L64.8671 61.8586V46.6573L77.9176 44.7052L78.5202 59.1643Z" fill="black"/>
<path opacity="0.05" d="M77.9177 44.7362L77.9138 44.74L64.8672 46.6573L53.1362 45.8494L67.4967 43.4277L77.9138 44.6395L77.9177 44.7052V44.7362Z" fill="black"/>
<path d="M85.4961 44.4752L72.1471 47.2004L71.8429 47.1695L60.1119 45.9886V31.1603L74.4724 28.7385L84.8896 29.9504L84.8934 30.0161V30.047L85.4961 44.4752Z" fill="#3F3D56"/>
<path opacity="0.1" d="M85.4961 44.4751L72.1471 47.2004L71.8429 47.1694V31.9681L84.8934 30.016L85.4961 44.4751Z" fill="black"/>
<path opacity="0.05" d="M84.8934 30.047L84.8896 30.0509L71.8429 31.9682L60.1119 31.1603L74.4724 28.7385L84.8896 29.9504L84.8934 30.0161V30.047Z" fill="black"/>
</g>
<defs>
<clipPath id="clip0">
<rect width="184" height="136" fill="white"/>
</clipPath>
</defs>
</svg>
