<svg width="24" height="24" viewBox="0 0 24 24" fill="none" xmlns="http://www.w3.org/2000/svg">
<path d="M16.6544 7.89428L7.8512 13.3541C7.69621 13.4502 7.6257 13.639 7.67978 13.8132L8.86064 17.6182C8.88544 17.6982 9.00193 17.6872 9.01131 17.604L9.29832 15.0526C9.30938 14.954 9.35667 14.863 9.43097 14.7973L16.8857 8.20515C17.0642 8.04737 16.8569 7.76868 16.6544 7.89428Z" fill="#03A803"/>
<path d="M0 0V24H24V0H0ZM20.0056 6.23621L17.2655 19.3366C17.1369 19.9513 16.4159 20.2274 15.9096 19.8558L11.7725 16.819L9.66391 18.9719C9.29385 19.3497 8.65458 19.1968 8.49559 18.6923L6.97359 13.8629L2.89534 12.6586C2.36029 12.5006 2.32874 11.7546 2.84858 11.552L18.8977 5.29786C19.5086 5.05983 20.1398 5.59446 20.0056 6.23621Z" fill="#03A803"/>
</svg>
